/* XPM */
static char *coin[] = {
/* columns rows colors chars-per-pixel */
"225 24 199 2 ",
"   c #000000",
".  c #BB732B",
"X  c #C08F1F",
"o  c #C39123",
"O  c #E0B363",
"+  c #E7BC62",
"@  c #9A6022",
"#  c #BFA25F",
"$  c #C48239",
"%  c #DFB263",
"&  c #E6BA62",
"*  c #8A5722",
"=  c #B17D34",
"-  c #E5B967",
";  c #BC9C5B",
":  c #E8C170",
">  c #975D22",
",  c #986225",
"<  c #E3B762",
"1  c #9D6225",
"2  c #9E6526",
"3  c #E8BD62",
"4  c #ECB12B",
"5  c #BE772B",
"6  c #ECC876",
"7  c #E7A928",
"8  c #BC742B",
"9  c #DB9B40",
"0  c #E8C273",
"q  c #E8BB5B",
"w  c #E8C172",
"e  c #1D190E",
"r  c #EDB027",
"t  c #C07B2F",
"y  c #DE9E41",
"u  c #E8C276",
"i  c #EAC573",
"p  c #E9C271",
"a  c #E8C275",
"s  c #EBAE2A",
"d  c #C38137",
"f  c #ECC877",
"g  c #D9973D",
"h  c #DC9A2B",
"j  c #C17B2B",
"k  c #C27F32",
"l  c #C07C34",
"z  c #C07A2A",
"x  c #E5BC6B",
"c  c #C37E2A",
"v  c #DFA349",
"b  c #ECC776",
"n  c #BA7025",
"m  c #E3A43C",
"M  c #C37A2A",
"N  c #F0C253",
"B  c #513212",
"V  c #472C10",
"C  c #E7B457",
"Z  c #E1AA51",
"A  c #C47E2A",
"S  c #DFB262",
"D  c #EBC776",
"F  c #DC9B3F",
"G  c #DD9D41",
"H  c #C38033",
"J  c #EAAC2B",
"K  c #ECCA7E",
"L  c #EBC675",
"P  c #E5BB6B",
"I  c #BD762A",
"U  c #BD762B",
"Y  c #E0A44A",
"T  c #EDC361",
"R  c #C88336",
"E  c #CC8936",
"W  c #E8C271",
"Q  c #C88331",
"!  c #E4A645",
"~  c #E0A02D",
"^  c #E6A830",
"/  c #E7C170",
"(  c #C17D34",
")  c #EAAC27",
"_  c #E2B767",
"`  c #DA993E",
"'  c #C68538",
"]  c #EBC87B",
"[  c #BB7226",
"{  c #B76C22",
"}  c #E9BF65",
"|  c #EAAB29",
" . c #E1A243",
".. c #D7953C",
"X. c #C88432",
"o. c #C88332",
"O. c #E0A044",
"+. c #CB8C3E",
"@. c #C38138",
"#. c #DE9F3F",
"$. c #D7963C",
"%. c #EBAD2A",
"&. c #C47E2F",
"*. c #82511D",
"=. c #BC7429",
"-. c #D39139",
";. c #B66E29",
":. c #E7A93B",
">. c #C27C30",
",. c #D29039",
"<. c #DF9F3D",
"1. c #DE9F41",
"2. c #C37D30",
"3. c #C37D2E",
"4. c #BF782D",
"5. c #EAC676",
"6. c #E7A827",
"7. c #A2791A",
"8. c #DFA246",
"9. c #BB7329",
"0. c #EDB535",
"q. c #DE9E3E",
"w. c #C27B2D",
"e. c #E8C274",
"r. c #EAAB28",
"t. c #B9712B",
"y. c #E0A042",
"u. c #ECBE55",
"i. c #E8A92B",
"p. c #ECB230",
"a. c #E0A13C",
"s. c #E8BF6B",
"d. c #DEA043",
"f. c #EAC064",
"g. c #E3AB54",
"h. c #DD9C44",
"j. c #E2A33C",
"k. c #DE9E43",
"l. c #EAAC32",
"z. c #E8C375",
"x. c #EAC675",
"c. c #DFA03D",
"v. c #ECAE28",
"b. c #ECAF2C",
"n. c #DFA44C",
"m. c #DC9922",
"M. c #B66D29",
"N. c #E2A344",
"B. c #E7B75F",
"V. c #C68130",
"C. c #C27C2F",
"Z. c #E9BB54",
"A. c #ECC46C",
"S. c #ECB334",
"D. c #C47E35",
"F. c #DFA244",
"G. c #B86F27",
"H. c #DE9D3F",
"J. c #EAAB2F",
"K. c #EBB034",
"L. c #DD9D40",
"P. c #EFB230",
"I. c #CB8534",
"U. c #F0BE44",
"Y. c #BF7A2E",
"T. c #E2A343",
"R. c #E5B057",
"E. c #DFA042",
"W. c #E1B263",
"Q. c #ECC66F",
"!. c #C58437",
"~. c #E8BC6A",
"^. c #C07929",
"/. c #BC752A",
"(. c #CB8533",
"). c #CB8734",
"_. c #E09E3F",
"`. c #E4AD52",
"'. c #E7AC31",
"]. c #C78236",
"[. c #C6812A",
"{. c #EFBC46",
"}. c #DF9F41",
"|. c #DE9D3E",
" X c #DE9E40",
".X c #C17C2E",
"XX c #C17B2D",
"oX c #C0792C",
"OX c #DF9F44",
"+X c #DE9C3F",
"@X c #D5923B",
"#X c #E3AB4F",
"$X c #D9983E",
"%X c #A66825",
"&X c #A96B27",
"*X c #A36425",
"=X c #D7963D",
"-X c #BF8738",
";X c #C18837",
/* pixels */
"                                                                                                                                                                                                                                                                                                                                                                                                                                                                  ",
"                                                                                                                                                                                                                                                                                                                                                                                                                                                                  ",
"                                                                                                                                                                                                                              . . .                                                                                                                                                                                                                               ",
"                X o O + O O O @                                     # $ % & % O O *                                       = - - - @                                       ; : : : % >                                       > : : : %                                         % : : : ;                                         @ - - - =                                       , O O % < % 1 #                                 @ 2 O O O + 3 X                   ",
"              4 : : : : : : : 3 5                                 6 . : : : : : : 7 8                                   9 : : : : : 5                                     : : : : . .                                       . : : : :                                         . : : : : 0                                     5 : : : : : 9                                   8 q : : : : : w . e                             5 r : : : : : : : :                 ",
"            : : 5 t : : : : r 5 : y 5                           6 u i t p : : a s d 6 .                               u f . p : : a g 5                                 f : : . : : :                                       . : : : :                                       . : : . : : :                                   5 g a : : p . f u                               h 6 j s : : : p k i l 6                         y 4 5 z : : : : : 5 : : r             ",
"          : : x : : : 5 5 c y v 5 : r                         6 . b . p i n . s m 6 M N B                           9 f f p i n . 9 i 9 5                             f : p : . : : :                                       . : : : :                                       . : : . : p : f                               V 9 i 9 . n i p f f 9                           . C M Z m A . S i D . : .                       5 : F : G r 5 5 H : : 5 : :             ",
"        r : 5 : : x 5 5 5 5 5 J : 5 y 5                       . K f L P I . . . U Y T R E                         9 K . : P I . . . 9 Y g                             : : : : : : . . .                                     . : : : :                                     . : . . : . : W : f                             Q Y 9 . . . I P : . K 9                         ! ~ T ^ U . . . I / L ( K 6                   5 y 5 4 y ) 5 5 5 5 5 : : 5 : r           ",
"        : : : : : x 5 _ 5 ` 5 ' r y 5 y 5                   6 ] . 6 : P [ W { . . } |  ....                       ] f . : P [ W { . . i 9                             : : P : : : : . .                                     . : : : :                                     . 9 : . : . P W : :                             X.i . . { W [ P : . f ]                       . o.O.| +.. . { @.[ / : 6 . . 6                 y y y #.: 5 5 ` 5 _ 5 : : : 5 : r         ",
"      r : 5 : : : x 5 $.5 %.5 &.y y y y y *.              6 . . f : : P =.-.;.:.>.y y  .,. ..                   9 f f : : P =.-.;.:.y i y 5                         f : : : . : : <.y 9 .                                   . : : : :                                     9 : <.. : : : W : :                           5 y i y :.;.-.=.P : : f f 9                   .  . .1.y 2.>.3.;.4.=./ : D f 5..               5 y 5 y y y 5 y 6.5 $.5 : : : : : : 7.      ",
"      5 : 5 : : : x 5 5 5 8.r y y y y y y *.              6 . . f : : P I 5 9.W 0.y y  .,. ..                   9 f f : : P I 5 9.W 0.i y 5                         f : : : . : : 9 <.9 .                                   . : : : :                                     9 : 9 . : : : : : :                           5 y i 0.W 9.5 I P : : f f 9                   .  . .1.y q.0.@.9.. I / : D f 6 .               5 y 5 y y y #.: ` 5 5 5 : : : : : : *.      ",
"      5 : 5 : : r y : 6.5 w.y y y y y y y *.              6 . . f : e.y y r.t.. y.y y  .,. ..                   9 f f : e.y y r.t.. y.i y 5                         f : e.: . : : : . 9 9                                   . : : 9 :                                   . 9 y : 9 : : : : : :                           5 y i y.. t.r.y y e.: f f 9                   .  . .1.y y y.. t.u.y i.e.D f 6 .               5 y 5 y y y y y 5 5 p.y a.: : : : : *.      ",
"      5 : y : s.y d.r ` 5 5 y y y y y y y *.              6 . . f u r.y f.g.9.. . y y h.j.k..                   9 f f u r.y f.g.9.. . i y 5                         f : : : . : 9 9 . 9 9                                   . : : : 9                                   . 9 y 9 : : : : : : :                           5 y i . . 9.g.f.y r.u f f 9                   . k. .G y y . . 9.l.f.y r.z.f x..               5 y r y y y y 5 5 5 c.: y r : : : : *.      ",
"      5 : y r y : v.: 6.5 y 5 &.y y y y y *.              6 . . f y y b.n.m.M.N.. y y  .B.k..                   9 f f y y b.n.N.M.N.. i y 5                         f : : : . : 9 9 . 9 9                                   . 9 : : 9                                   . 9 y 9 . : 9 : : : :                           5 y i . N.M.N.n.b.y y f f 9                   . k. .1.y V.. C.M.Z.n.A.y i.f x..               5 y r y y y 5 y ` 5 p.y S.y r : : : *.      ",
"      5 : y y d.r d.r ` 5 y 5 &.y y y y y *.              6 . D.r.y 6 F.f.N.G.N.. y y  .B.H..                   9 f f y 6 F.f.N.G.N.. i y 5                         : : : <.. 9 9 9 . 9 9                                   . : 9 9 9                                   . 9 y 9 . 9 : <.: : :                           5 y i . N.G.N.f.F.6 y f f 9                   . H. .1.y V.. C.G.J.f.K.6 y r.x..               5 y : y y y 5 y ` 5 c.: a.: y r : : *.      ",
"        r y : v.: 5 y ` 5 L.5 &.y y : y 5                   6 P.I.U.y Y.3.N.. T.. y y  .R..                     9 9 9 U.y 9 3.N.. T.. i y 5                           9 9 9 9 9 9 9 . 9 .                                   . : 9 9 9                                     9 9 9 . 9 . 9 : 9 :                           5 E.i . T.. N.3.9 y U.9 9 9                     . 6  .y 2.. C.. N.3.W.y Q.I.. 6                 y y y y y 5 L.` 5 y 5 !.y : 5 r 5         ",
"        5 y 5 d.r 5 5 ` 5 ` 5 y y : y 5                       . 6 y ~.^./.N.G.. . y  .6 (.                      5 9 6 y f 9 /.N.G.. . i  .                            9 : 9 9 9 9 . . 9 .                                   . 9 9 9 9                                     9 9 . . 9 . 9 9 9 9                             ).i . . G.N./.9 f y 6 9 5                       _.`. .2.. . G.C./.'.~.].6 y                   5 y : y y F 5 ` 5 ` 5 [.: 5 : 5           ",
"          5 : ) y y G 5 5 w.y y : y y                           y {.D.}.E.. . . y. .6  .B                         5 9 9 . 9 E.. . y y. .5                               9 9 9 . 9 y y.9 .                                   . 9 9 9 9                                     9 9 y 9 . 9 9 9                                 V  .y.y . . E.9 . 9 9 5                         . |.6  Xy.. . . E.}.D..Xy                       5 y d.y y y 5 5 XXy y 5 : r             ",
"            r y 5 oXy y y y y S.y y 5                             . OXD.}.y y y y 6 +X.                             5 9 9 9 }.y y y i 5                                 9 9 9 9 . 9 9 .                                     . 9 9 9 9                                     . 9 9 9 9 9 9 9                                   5 i y y y }.9 9 9 5                             @X+X#Xy y y y }.D.OX$X                          y y : v.y y y y y 5 y r 5             ",
"              5 y y y y y y y y 5                                   y }.y y y y y ` .                                 5 9 9 9 y y y y                                     9 9 9 9 . y .                                     . 9 9 9 9                                     . 9 . 9 9 9 9                                       y y y y 9 9 9 5                                 . L.y y y y y 4.y                               5 y y y y y y y y 5                 ",
"                %X&X` ` ` ` ` %X                                      4.` $X$X$X` *X                                    %X=X=X$X$X$X%X                                      -X9 9 9 .                                       *X9 9 9 =X                                      *X9 9 9 9                                         %X$X$X$X=X=X%X                                    *X` $X$X$X` ;X                                  %X&X` ` ` ` ` %X                  ",
"                                                                                                                                                                                                                              . . .                                                                                                                                                                                                                               ",
"                                                                                                                                                                                                                                                                                                                                                                                                                                                                  ",
"                                                                                                                                                                                                                                                                                                                                                                                                                                                                  "
};
