/* XPM */
static char *enemy[] = {
/* columns rows colors chars-per-pixel */
"56 86 13 1 ",
"  c black",
". c #130D1D",
"X c #3F660D",
"o c #769B0D",
"O c #B3CA22",
"+ c #28470D",
"@ c #3B1406",
"# c #552A11",
"$ c #647160",
"% c #222760",
"& c #1D85AB",
"* c #2CAFDE",
"= c #1A4E83",
/* pixels */
"                                                        ",
"                                                        ",
"                                                        ",
"                                                        ",
"                                                        ",
"                                                        ",
"                                                        ",
"                                                        ",
"                                                        ",
"                                                        ",
"                                                        ",
"                                                        ",
"                                                        ",
"                                                        ",
"                                                        ",
"                                                        ",
"                                                        ",
"                                                        ",
"                                                        ",
"                                                        ",
"                                                        ",
"                       ............                     ",
"                       ............                     ",
"                       ............                     ",
"                       ............                     ",
"           ............XXXXoooooooo....                 ",
"           ............XXXXoooooooo....                 ",
"           ............XXXXoooooooo....                 ",
"           ............XXXXoooooooo....                 ",
"           ....XXXXooooXXXXOOOOOOOOoooo....             ",
"           ....XXXXooooXXXXOOOOOOOOoooo....             ",
"           ....XXXXooooXXXXOOOOOOOOoooo....             ",
"           ....XXXXooooXXXXOOOOOOOOoooo....             ",
"               ....++++oooo....XXXX........             ",
"               ....++++oooo....XXXX........             ",
"               ....++++oooo....XXXX........             ",
"               ....++++oooo....XXXX........             ",
"                   ....XXXXooooOOOOoooo....             ",
"                   ....XXXXooooOOOOoooo....             ",
"                   ....XXXXooooOOOOoooo....             ",
"                   ....XXXXooooOOOOoooo....             ",
"               ....OOOO....XXXXXXXX....                 ",
"               ....OOOO....XXXXXXXX....                 ",
"               ....OOOO....XXXXXXXX....                 ",
"               ....OOOO....XXXXXXXX....                 ",
"           ....OOOOooooXXXX........XXXX....             ",
"           ....OOOOooooXXXX........XXXX....             ",
"           ....OOOOooooXXXX........XXXX....             ",
"           ....OOOOooooXXXX........XXXX....             ",
"       ....ooooOOOO++++ooooOOOOXXXXoooo........         ",
"       ....ooooOOOO++++ooooOOOOXXXXoooo........         ",
"       ....ooooOOOO++++ooooOOOOXXXXoooo........         ",
"       ....ooooOOOO++++ooooOOOOXXXXoooo........         ",
"       ....ooooXXXX....XXXXooooooooXXXX++++XXXX....     ",
"       ....ooooXXXX....XXXXooooooooXXXX++++XXXX....     ",
"       ....ooooXXXX....XXXXooooooooXXXX++++XXXX....     ",
"       ....ooooXXXX....XXXXooooooooXXXX++++XXXX....     ",
"       ....XXXXOOOOoooo@@@@####$$$$####XXXX++++....     ",
"       ....XXXXOOOOoooo@@@@####$$$$####XXXX++++....     ",
"       ....XXXXOOOOoooo@@@@####$$$$####XXXX++++....     ",
"       ....XXXXOOOOoooo@@@@####$$$$####XXXX++++....     ",
"           ....ooooOOOO%%%%&&&&********........         ",
"           ....ooooOOOO%%%%&&&&********........         ",
"           ....ooooOOOO%%%%&&&&********........         ",
"           ....ooooOOOO%%%%&&&&********........         ",
"               ....%%%%&&&&========&&&&%%%%             ",
"               ....%%%%&&&&========&&&&%%%%             ",
"               ....%%%%&&&&========&&&&%%%%             ",
"               ....%%%%&&&&========&&&&%%%%             ",
"               ....ooooXXXX........oooo....             ",
"               ....ooooXXXX........oooo....             ",
"               ....ooooXXXX........oooo....             ",
"               ....ooooXXXX........oooo....             ",
"               ....XXXX....    ....XXXX....             ",
"               ....XXXX....    ....XXXX....             ",
"               ....XXXX....    ....XXXX....             ",
"               ....XXXX....    ....XXXX....             ",
"                                                        ",
"                                                        ",
"                                                        ",
"                                                        ",
"                                                        ",
"                                                        ",
"                                                        ",
"                                                        ",
"                                                        "
};
