/* XPM */
static char *flag[] = {
/* columns rows colors chars-per-pixel */
"25 50 90 1 ",
"  c #000000",
". c #FEFEFE",
"X c gray99",
"o c #E9E9E9",
"O c gray90",
"+ c gray91",
"@ c #E7E7E7",
"# c gray96",
"$ c #DDDDDD",
"% c #CBC9C8",
"& c #FAF7FA",
"* c gray87",
"= c #4088F1",
"- c #3886F8",
"; c #FEFEFF",
": c #FFFFFD",
"> c #FFFDFE",
", c #DFDFDF",
"< c #1C55C4",
"1 c #255FD1",
"2 c #4088F4",
"3 c #3D89FD",
"4 c #FFFEFC",
"5 c #1C56C4",
"6 c #1E56C8",
"7 c #4185F3",
"8 c #3E88F8",
"9 c #DBEFF8",
"0 c #FFFEFF",
"q c #1D56C8",
"w c #398AEF",
"e c #FFFEF9",
"r c #1E56C7",
"t c #2159CA",
"y c #3F86F2",
"u c #3C89F4",
"i c #FFFDFF",
"p c #296AD9",
"a c #3D88F6",
"s c #6EA0D5",
"d c #1D57C7",
"f c #3C84F3",
"g c #4087F4",
"h c #FAFBEF",
"j c #3273E7",
"k c #F3F3F1",
"l c #F4F4F2",
"z c #1B56C5",
"x c #CECDC9",
"c c #1D57C6",
"v c #1D55C7",
"b c gray79",
"n c #F4F4F3",
"m c #BDCAE8",
"M c #1D54C8",
"N c #F4F4F4",
"B c #FFFEFE",
"V c #1F4EA3",
"C c #1C57C8",
"Z c #FFFEF7",
"A c #1E54D0",
"S c #FFFEF8",
"D c #1E54C4",
"F c #1E56C5",
"G c #A5BDD9",
"H c #2154C8",
"J c #FFFFFB",
"K c #879ACA",
"L c #FEFFFD",
"P c #A9A9A9",
"I c #AEAEAE",
"U c #AAAAAA",
"Y c #A7A7A7",
"T c #F8F8F8",
"R c gray66",
"E c #FBFBFB",
"W c #ACACAC",
"Q c gray67",
"! c gray65",
"~ c #848484",
"^ c #B6B6B6",
"/ c #B7B7B7",
"( c #808080",
") c #838383",
"_ c #9B9B9B",
"` c gray72",
"' c gray52",
"] c #F3F3F3",
"[ c #FDFDFD",
"{ c #A2A2A2",
/* pixels */
"                         ",
"                         ",
"                         ",
"        .                ",
"       Xo.               ",
"       O+@#              ",
"       $$%&              ",
"       $*=-;:>.          ",
"       $,<1234.          ",
"       $,56678900        ",
"       $,566qq8we0       ",
"       $,5rrrrrtyui0     ",
"       $,5rrrrrrrpas>:   ",
"       $,5rrrrrrrrdfgh   ",
"       $,5rrrrrrrrrrjk   ",
"       $,5rrrrrrrrrrjl   ",
"       $,5rrrrrrrrrrjl   ",
"       $,zrrrrrrrrrrjl   ",
"       $,xcvrrrrrrrrjl   ",
"       $,bnmMrrrrrrrjl   ",
"       $,bN BVCrrrrrjl   ",
"       $,bN  BZArrrrjl   ",
"       $,bN     SDFrjl   ",
"       $,bN      :GHjl   ",
"       $,bN       :JKL   ",
"       $,bN              ",
"       $,bN              ",
"       $,bN              ",
"       $,bN              ",
"       $,bN              ",
"       $,bN              ",
"       $,bN              ",
"       $,bN              ",
"       $,bN              ",
"       $,bN              ",
"       $,bN              ",
"       $,bN              ",
"      P$,bI              ",
"     UU$,bIPY            ",
"    TUR$,bUUP            ",
"    EWUUQQU!~            ",
"    E^/UUU())            ",
"    E^/___~~)            ",
"    E^/___~~)            ",
"    .``___~']            ",
"      [___{              ",
"                         ",
"                         ",
"                         ",
"                         "
};
