/* XPM */
static char *flag_closed[] = {
/* columns rows colors chars-per-pixel */
"29 58 33 1 ",
"  c black",
". c #C71E1E",
"X c #C61E1F",
"o c #C52020",
"O c #EE4244",
"+ c #EE4246",
"@ c #EC4349",
"# c #F34141",
"$ c #F24142",
"% c #F44040",
"& c #F04244",
"* c #808080",
"= c #838383",
"- c #848484",
"; c #9B9B9B",
": c #A2A2A2",
"> c gray65",
", c #A7A7A7",
"< c #A9A9A9",
"1 c gray67",
"2 c #ACACAC",
"3 c #AEAEAE",
"4 c #B6B6B6",
"5 c #B7B7B7",
"6 c gray72",
"7 c gray79",
"8 c #CBC9C8",
"9 c #CECDC9",
"0 c #DDDDDD",
"q c gray87",
"w c #DFDFDF",
"e c gray90",
"r c gray91",
/* pixels */
"                             ",
"                             ",
"                             ",
"                             ",
"                             ",
"         r                   ",
"        errr                 ",
"        0088                 ",
"        00##O                ",
"        00...$@              ",
"        00....OO#            ",
"        0e....#O#            ",
"        00......###          ",
"        00.........#@        ",
"        0e...........#&      ",
"        00............&&     ",
"        0w.............#     ",
"        0w.............#     ",
"        0w.............#     ",
"        0w.............#     ",
"        0w.............O     ",
"        0w99...........#     ",
"        0w88 .XX.......#     ",
"        0w88   o.......#     ",
"        0w77     ......&     ",
"        0w77     ......#     ",
"        0w77        ...#     ",
"        0w77         ..#     ",
"        0w87          X#     ",
"        0w77                 ",
"        0w88                 ",
"        0w88                 ",
"        0w77                 ",
"        0w77                 ",
"        0w87                 ",
"        0w87                 ",
"        ww77                 ",
"        ww77                 ",
"        0w77                 ",
"        0w77                 ",
"        0w77                 ",
"        0w77                 ",
"        0w87                 ",
"       <0w873                ",
"      220w883<,              ",
"      2>0w7822<              ",
"      2,2<22<>-              ",
"      22<2<22>-              ",
"      44<2<<*-*              ",
"      46;;;;---              ",
"      44;;;;---              ",
"      66;;;;--               ",
"        ;;;;:                ",
"                             ",
"                             ",
"                             ",
"                             ",
"                             "
};
