/* XPM */
static char *flag_open[] = {
/* columns rows colors chars-per-pixel */
"29 58 42 1 ",
"  c black",
". c #1F4EA3",
"X c #1C56C4",
"o c #1D57C6",
"O c #1D57C7",
"+ c #1E56C7",
"@ c #1C57C8",
"# c #1E54D0",
"$ c #2154C8",
"% c #2159CA",
"& c #255FD1",
"* c #296AD9",
"= c #3273E7",
"- c #398AEF",
"; c #3C84F3",
": c #3F86F2",
"> c #3C89F4",
", c #3F88F7",
"< c #3886F8",
"1 c #3E88F8",
"2 c #3D89FD",
"3 c #4185F3",
"4 c #4087F4",
"5 c #4088F4",
"6 c #808080",
"7 c #848484",
"8 c #9B9B9B",
"9 c #A2A2A2",
"0 c #A7A7A7",
"q c #AAAAAA",
"w c gray67",
"e c #AEAEAE",
"r c #B6B6B6",
"t c gray72",
"y c gray79",
"u c #CBC9C8",
"i c #CECDC9",
"p c #DDDDDD",
"a c #DFDFDF",
"s c gray90",
"d c gray91",
"f c #E9E9E9",
/* pixels */
"                             ",
"                             ",
"                             ",
"                             ",
"                             ",
"         f                   ",
"        sddf                 ",
"        ppuu                 ",
"        pp55<                ",
"        ppXX&42              ",
"        psXX@@311            ",
"        ppXX$@311            ",
"        ppXX+X+X1>-          ",
"        ppXX++++@%%31        ",
"        psXX++++$Xoo*;5      ",
"        ppXX++++O$@X@@;4     ",
"        psXXOOo$Oo@$$OO=     ",
"        ppXX$$X@@$XoXo$=     ",
"        ppXXOO$o@O$O@$O=     ",
"        ppXo$@@O$O$OOO$=     ",
"        psXX@$oOoXoX$OO=     ",
"        ppiu$@X$O$$@$O$=     ",
"        pauu @OOO$OoO$o=     ",
"        ppyy   .OO@$O@X=     ",
"        payy     ##O$X@=     ",
"        payy     ##$Oo$=     ",
"        payy        OXO=     ",
"        payy         $$=     ",
"        payy          O1     ",
"        payy                 ",
"        payu                 ",
"        payu                 ",
"        payy                 ",
"        payy                 ",
"        pauy                 ",
"        pauy                 ",
"        payy                 ",
"        payy                 ",
"        payy                 ",
"        pauu                 ",
"        payy                 ",
"        payy                 ",
"        payy                 ",
"       qpayye                ",
"      wqpayueq0              ",
"      qqpayuwwq              ",
"      eqwwqwq07              ",
"      qqqwqqq07              ",
"      rrqqqq677              ",
"      rt8888776              ",
"      rr8888777              ",
"      tt888877               ",
"        88889                ",
"                             ",
"                             ",
"                             ",
"                             ",
"                             "
};
