/* XPM */
static char *player_left[] = {
/* columns rows colors chars-per-pixel */
"56 84 13 1 ",
"  c #1C2F60",
". c #984868",
"X c #B2696F",
"o c #E49557",
"O c #65308A",
"+ c #635D96",
"@ c #A6858F",
"# c #FFB482",
"$ c #FFE3AE",
"% c #978BDE",
"& c #C4C7EE",
"* c gray99",
"= c #000000",
/* pixels */
"========================================================",
"========================================================",
"========================================================",
"========================================================",
"========================================================",
"========================================================",
"========================================================",
"========================================================",
"========================================================",
"========================================================",
"========================================================",
"========================================================",
"========================================================",
"========================================================",
"========================================================",
"========================================================",
"========================================================",
"========================================================",
"==================                        ==============",
"==================                        ==============",
"==================                        ==============",
"==============    oooooooooooooooooooooooo    ==========",
"==============    oooooooooooooooooooooooo    ==========",
"==============    oooooooooooooooooooooooo    ==========",
"==============    oooooooooooooooooooooooo    ==========",
"===========   oooooooooooooooooooooooooooooooo   =======",
"===========   oooooooooooooooooooooooooooooooo   =======",
"===========   oooooooooooooooooooooooooooooooo   =======",
"===========   oooooooooooooooooooooooooooooooo   =======",
"===========   oooooooooooooooooooooooooooooooo   =======",
"===========   oooooooooooooooooooooooooooooooo   =======",
"===========   oooooooooooooooooooooooooooooooo   =======",
"===========   oooooooooooooooooooooooooooooooo   =======",
"===========   oooooooooooooooooooooooooooooooo   =======",
"===========   oooooooooooooooooooooooooooooooo   =======",
"=======    XXXoooooooooooooooooooooooooooooooo   =======",
"=======    XXXoooooooooooooooooooooooooooooooo   =======",
"=======    XXXoooooooooooooooooooooooooooooooo   =======",
"=======    XXXoooooooooooooooooooooooooooooooo   =======",
"=======    XXXXXXXoooooooooooooooooooooXXX....   =======",
"=======    XXXXXXXoooooooooooooooooooooXXX....   =======",
"=======    XXXXXXXoooooooooooooooooooooXXX....   =======",
"===========   XXXXXXXXXXXXXXXXXXXXX.......++++   =======",
"===========   XXXXXXXXXXXXXXXXXXXXX.......++++   =======",
"===========   XXXXXXXXXXXXXXXXXXXXX.......++++   =======",
"===========   XXXXXXXXXXXXXXXXXXXXX.......++++   =======",
"===========   ++++$$$$$$$+++++++++++++++++++++   =======",
"===========   ++++$$$$$$$+++++++++++++++++++++   =======",
"===========   ++++$$$$$$$+++++++++++++++++++++   =======",
"===========   @@@@$$$$$$$@@@@@@@@@@@@@@+++++++   =======",
"===========   @@@@$$$$$$$@@@@@@@@@@@@@@+++++++   =======",
"===========   @@@@$$$$$$$@@@@@@@@@@@@@@+++++++   =======",
"===========   @@@@$$$$$$$@@@@@@@@@@@@@@+++++++   =======",
"==============    ###@@@@@@@@@@@@@@+++++++    ==========",
"==============    ###@@@@@@@@@@@@@@+++++++    ==========",
"==============    ###@@@@@@@@@@@@@@+++++++    ==========",
"==============       OOOOXXXXXXXXXXXXXX       ==========",
"==============       OOOOXXXXXXXXXXXXXX       ==========",
"==============       OOOOXXXXXXXXXXXXXX       ==========",
"==============       OOOOXXXXXXXXXXXXXX       ==========",
"==============    XXXooooXXXooooooooooo   @@@@   =======",
"==============    XXXooooXXXooooooooooo   @@@@   =======",
"==============    XXXooooXXXooooooooooo   @@@@   =======",
"===========   $$$$###    ooooooooooXXXX   @@@@   =======",
"===========   $$$$###    ooooooooooXXXX   @@@@   =======",
"===========   $$$$###    ooooooooooXXXX   @@@@   =======",
"===========   $$$$###    ooooooooooXXXX   @@@@   =======",
"===========   $$$$$$$    +++       ++++       ==========",
"===========   $$$$$$$    +++       ++++       ==========",
"===========   $$$$$$$    +++       ++++       ==========",
"==============       %%%%+++    %%%%%%%   ==============",
"==============       %%%%+++    %%%%%%%   ==============",
"==============       %%%%+++    %%%%%%%   ==============",
"==============       %%%%+++    %%%%%%%   ==============",
"==============    ******=&&&    ========================",
"==============    ******=&&&    ========================",
"==============    *******&&&    ========================",
"========================================================",
"========================================================",
"========================================================",
"========================================================",
"========================================================",
"========================================================",
"========================================================"
};
