/* XPM */
static char *player_left[] = {
/* columns rows colors chars-per-pixel */
"16 24 13 1 ",
"  c #000000",
". c #1C2F60",
"X c #E49557",
"o c #B2696F",
"O c #984868",
"+ c #635D96",
"@ c #FFE3AE",
"# c #A6858F",
"$ c #FFB482",
"% c #65308A",
"& c #978BDE",
"* c gray99",
"= c #C4C7EE",
/* pixels */
"                ",
"                ",
"                ",
"                ",
"                ",
"     .......    ",
"    .XXXXXXX.   ",
"   .XXXXXXXXX.  ",
"   .XXXXXXXXX.  ",
"   .XXXXXXXXX.  ",
"  .oXXXXXXXXX.  ",
"  .ooXXXXXXoO.  ",
"   .ooooooOO+.  ",
"   .+@@++++++.  ",
"   .#@@####++.  ",
"    .$####++.   ",
"    ..%oooo..   ",
"    .oXoXXX.#.  ",
"   .@$.XXXo.#.  ",
"   .@@.+..+..   ",
"    ..&+.&&.    ",
"    .**=.       ",
"                ",
"                "
};
