/* XPM */
static char *player_right[] = {
/* columns rows colors chars-per-pixel */
"16 24 12 1 ",
"  c #000000",
". c #1C2F60",
"X c #E49557",
"o c #C4C7EE",
"O c gray99",
"+ c #B2696F",
"@ c #635D96",
"# c #A6858F",
"$ c #FFE3AE",
"% c #FFB482",
"& c #984868",
"* c #978BDE",
/* pixels */
"                ",
"                ",
"                ",
"                ",
"                ",
"    .......     ",
"   .XXXXXXX.    ",
"  .XXXXXXXXX.   ",
"  .XXXXXXXXX.   ",
"  .XXXXXXoO+.   ",
"  .XXXXXXOoXX.  ",
"  .+XXX++XXX+.  ",
"  .@+++XXX+..   ",
"  .#$$@$.$$..   ",
"  .#$$#$.$$$.   ",
"   .@%#%$$$.    ",
"   ..@&+oo..    ",
"   .+X+XOO.#.   ",
"  .$%.XXOO.#.   ",
"  .$$.@..@..    ",
"   ..@*.@**.    ",
"    .oOO.       ",
"                ",
"                "
};
