/* XPM */
static char *player_bottom[] = {
/* columns rows colors chars-per-pixel */
"56 84 12 1 ",
"  c #1C2F60",
". c #984868",
"X c #B2696F",
"o c #E49557",
"O c #635D96",
"+ c #A6858F",
"@ c #FFB482",
"# c #FFE3AE",
"$ c #978BDE",
"% c #C4C7EE",
"& c gray99",
"* c #000000",
/* pixels */
"********************************************************",
"********************************************************",
"********************************************************",
"********************************************************",
"********************************************************",
"********************************************************",
"********************************************************",
"********************************************************",
"********************************************************",
"********************************************************",
"********************************************************",
"********************************************************",
"********************************************************",
"********************************************************",
"********************************************************",
"********************************************************",
"********************************************************",
"********************************************************",
"******************                        **************",
"******************                        **************",
"******************                        **************",
"**************    oooooooooooooooooooooooo    **********",
"**************    oooooooooooooooooooooooo    **********",
"**************    oooooooooooooooooooooooo    **********",
"**************    oooooooooooooooooooooooo    **********",
"***********   oooooooooooooooooooooooooooooooo   *******",
"***********   oooooooooooooooooooooooooooooooo   *******",
"***********   oooooooooooooooooooooooooooooooo   *******",
"***********   oooooooooooooooooooooooooooooooo   *******",
"***********   oooooooooooooooooooooooooooooooo   *******",
"***********   oooooooooooooooooooooooooooooooo   *******",
"***********   oooooooooooooooooooooooooooooooo   *******",
"***********   XXXX&&&%%%%ooooooooooooooooooooo   *******",
"***********   XXXX&&&%%%%ooooooooooooooooooooo   *******",
"***********   XXXX&&&%%%%ooooooooooooooooooooo   *******",
"*******    ooooooo%%%&&&&ooooooooooooooooooooo   *******",
"*******    ooooooo%%%&&&&ooooooooooooooooooooo   *******",
"*******    ooooooo%%%&&&&ooooooooooooooooooooo   *******",
"*******    ooooooo%%%&&&&ooooooooooooooooooooo   *******",
"*******    XXXoooooooooooXXXXXXXooooooooooXXXX   *******",
"*******    XXXoooooooooooXXXXXXXooooooooooXXXX   *******",
"*******    XXXoooooooooooXXXXXXXooooooooooXXXX   *******",
"***********       XXXoooooooooooXXXXXXXXXXOOOO   *******",
"***********       XXXoooooooooooXXXXXXXXXXOOOO   *******",
"***********       XXXoooooooooooXXXXXXXXXXOOOO   *******",
"***********       XXXoooooooooooXXXXXXXXXXOOOO   *******",
"***********       #######   ####OOO#######++++   *******",
"***********       #######   ####OOO#######++++   *******",
"***********       #######   ####OOO#######++++   *******",
"***********   ###########   ####+++#######++++   *******",
"***********   ###########   ####+++#######++++   *******",
"***********   ###########   ####+++#######++++   *******",
"***********   ###########   ####+++#######++++   *******",
"**************    ##########@@@@+++@@@@OOO    **********",
"**************    ##########@@@@+++@@@@OOO    **********",
"**************    ##########@@@@+++@@@@OOO    **********",
"**************       %%%%%%%XXXX...OOOO       **********",
"**************       %%%%%%%XXXX...OOOO       **********",
"**************       %%%%%%%XXXX...OOOO       **********",
"**************       %%%%%%%XXXX...OOOO       **********",
"***********   ++++   &&&*&&&ooooXXXooooXXX    **********",
"***********   ++++   &&&*&&&ooooXXXooooXXX    **********",
"***********   ++++   &&&&&&&ooooXXXooooXXX    **********",
"***********   ++++   &&&&&&&ooooooo    @@@####   *******",
"***********   ++++   &&&&&&&ooooooo    @@@####   *******",
"***********   ++++   &&&&&&&ooooooo    @@@####   *******",
"***********   ++++   &&&&&&&ooooooo    @@@####   *******",
"**************       OOOO       OOO    #######   *******",
"**************       OOOO       OOO    #######   *******",
"**************       OOOO       OOO    #######   *******",
"**************    $$$$$$$OOO    $$$OOOO       **********",
"**************    $$$$$$$OOO    $$$OOOO       **********",
"**************    $$$$$$$OOO    $$$OOOO       **********",
"**************    $$$$$$$OOO    $$$OOOO       **********",
"*************************   &&&&&&&%%%%   **************",
"*************************   &&&&&&&%%%%   **************",
"*************************   &&&&&&&%%%%   **************",
"********************************************************",
"********************************************************",
"********************************************************",
"********************************************************",
"********************************************************",
"********************************************************",
"********************************************************"
};
