/* XPM */
static char *player_right[] = {
/* columns rows colors chars-per-pixel */
"56 84 12 1 ",
"  c #1C2F60",
". c #984868",
"X c #B2696F",
"o c #E49557",
"O c #635D96",
"+ c #A6858F",
"@ c #FFB482",
"# c #FFE3AE",
"$ c #978BDE",
"% c #C4C7EE",
"& c gray99",
"* c #000000",
/* pixels */
"********************************************************",
"********************************************************",
"********************************************************",
"********************************************************",
"********************************************************",
"********************************************************",
"********************************************************",
"********************************************************",
"********************************************************",
"********************************************************",
"********************************************************",
"********************************************************",
"********************************************************",
"********************************************************",
"********************************************************",
"********************************************************",
"********************************************************",
"********************************************************",
"**************                         *****************",
"**************                         *****************",
"**************                         *****************",
"***********   ooooooooooooooooooooooooo   **************",
"***********   ooooooooooooooooooooooooo   **************",
"***********   ooooooooooooooooooooooooo   **************",
"***********   ooooooooooooooooooooooooo   **************",
"*******    ooooooooooooooooooooooooooooooo    **********",
"*******    ooooooooooooooooooooooooooooooo    **********",
"*******    ooooooooooooooooooooooooooooooo    **********",
"*******    ooooooooooooooooooooooooooooooo    **********",
"*******    ooooooooooooooooooooooooooooooo    **********",
"*******    ooooooooooooooooooooooooooooooo    **********",
"*******    ooooooooooooooooooooooooooooooo    **********",
"*******    ooooooooooooooooooooo%%%&&&&XXX    **********",
"*******    ooooooooooooooooooooo%%%&&&&XXX    **********",
"*******    ooooooooooooooooooooo%%%&&&&XXX    **********",
"*******    ooooooooooooooooooooo**&%%%%ooooooo   *******",
"*******    ooooooooooooooooooooo&&&%%%%ooooooo   *******",
"*******    ooooooooooooooooooooo&&&%%%%ooooooo   *******",
"*******    ooooooooooooooooooooo&&&%%%%ooooooo   *******",
"*******    XXXoooooooooooXXXXXXXooooooooooXXXX   *******",
"*******    XXXoooooooooooXXXXXXXooooooooooXXXX   *******",
"*******    XXXoooooooooooXXXXXXXooooooooooXXXX   *******",
"*******    OOOXXXXXXXXXXXooooooooooXXXX       **********",
"*******    OOOXXXXXXXXXXXooooooooooXXXX       **********",
"*******    OOOXXXXXXXXXXXooooooooooXXXX       **********",
"*******    OOOXXXXXXXXXXXooooooooooXXXX       **********",
"*******    +++#######OOOO###    #######       **********",
"*******    +++#######OOOO###    #######       **********",
"*******    +++#######OOOO###    #######       **********",
"*******    +++#######++++###    ##########    **********",
"*******    +++#######++++###    ##########    **********",
"*******    +++#######++++###    ##########    **********",
"*******    +++#######++++###    ##########    **********",
"***********   OOOO@@@++++@@@###########   **************",
"***********   OOOO@@@++++@@@###########   **************",
"***********   OOOO@@@++++@@@###########   **************",
"***********       OOO....XXX%%%%%%%       **************",
"***********       OOO....XXX%%%%%%%       **************",
"***********       OOO....XXX%%%%%%%       **************",
"***********       OOO....XXX%%%%%%%       **************",
"***********   XXXXoooXXXXooo&&&&&&&    +++    **********",
"***********   XXXXoooXXXXooo&&&&&&&    +++    **********",
"***********   XXXXoooXXXXooo&&&&&&&    +++    **********",
"*******    ###@@@@   ooooooo&&&&&&&    +++    **********",
"*******    ###@@@@   ooooooo&&&&&&&    +++    **********",
"*******    ###@@@@   ooooooo&&&&&&&    +++    **********",
"*******    ###@@@@   ooooooo&&&&&&&    +++    **********",
"*******    #######   OOOO       OOO       **************",
"*******    #######   OOOO       OOO       **************",
"*******    #######   OOOO       OOO       **************",
"***********       OOO$$$$   OOOO$$$$$$$   **************",
"***********       OOO$$$$   OOOO$$$$$$$   **************",
"***********       OOO$$$$   OOOO$$$$$$$   **************",
"***********       OOO$$$$   OOOO$$$$$$$   **************",
"**************    %%%&&&&&&&    ************************",
"**************    %%%&&&&&&&    ************************",
"**************    %%%&&&&&&&    ************************",
"********************************************************",
"********************************************************",
"********************************************************",
"********************************************************",
"********************************************************",
"********************************************************",
"********************************************************"
};
