/* XPM */
static char * player_xpm[] = {
"76 96 10 1",
" 	c #000000",
".	c #E49557",
"+	c #C4C7EE",
"@	c #FCFCFC",
"#	c #B2696F",
"$	c #FFB482",
"%	c #635D96",
"&	c #A6858F",
"*	c #FFE3AE",
"=	c #978BDE",
"                                                                            ",
"                                                                            ",
"                                                                            ",
"                                                                            ",
"                                                                            ",
"                                                                            ",
"                                                                            ",
"                                                                            ",
"                                                                            ",
"                                                                            ",
"                                                                            ",
"                                                                            ",
"                                                                            ",
"                                                                            ",
"                                                                            ",
"                    ....................................                    ",
"                    ....................................                    ",
"                    ....................................                    ",
"                    ....................................                    ",
"                    ....................................                    ",
"               ..............................................               ",
"               ..............................................               ",
"               ..............................................               ",
"               ..............................................               ",
"               ..............................................               ",
"               ..............................................               ",
"               ..............................................               ",
"               ..............................................               ",
"               ..............................................               ",
"               ..............................................               ",
"               ...............+++++@@@@@@+++++...............               ",
"               ...............+++++@@@@@@+++++...............               ",
"               ...............+++++@@@@@@+++++...............               ",
"               ...............+++++@@@@@@+++++...............               ",
"               ...............+++++@@@@@@+++++...............               ",
"               ...............@@@@@@@@@@@@@@@@...............               ",
"               ...............@@@@@@@@@@@@@@@@...............               ",
"               ...............@@@@@@@@@@@@@@@@...............               ",
"               ...............@@@@@@@@@@@@@@@@...............               ",
"               ...............@@@@@@@@@@@@@@@@...............               ",
"               ##############################################               ",
"               ##############################################               ",
"               ##############################################               ",
"               ##############################################               ",
"               ##############################################               ",
"          $$$$$%%%%%....................................%%%%%$$$$$          ",
"          $$$$$%%%%%....................................%%%%%$$$$$          ",
"          $$$$$%%%%%....................................%%%%%$$$$$          ",
"          $$$$$%%%%%....................................%%%%%$$$$$          ",
"          $$$$$%%%%%....................................%%%%%$$$$$          ",
"          $$$$$%%%%%....................................%%%%%$$$$$          ",
"          $$$$$&&&&&*****     ****************     *****&&&&&$$$$$          ",
"          $$$$$&&&&&*****     ****************     *****&&&&&$$$$$          ",
"          $$$$$&&&&&*****     ****************     *****&&&&&$$$$$          ",
"          $$$$$&&&&&*****     ****************     *****&&&&&$$$$$          ",
"          $$$$$&&&&&*****     ****************     *****&&&&&$$$$$          ",
"               &&&&&*****     ****************     *****&&&&&               ",
"               &&&&&*****     ****************     *****&&&&&               ",
"               &&&&&*****     ****************     *****&&&&&               ",
"               &&&&&*****     ****************     *****&&&&&               ",
"               &&&&&*****     ****************     *****&&&&&               ",
"                    $$$$$**************************$$$$$                    ",
"                    $$$$$**************************$$$$$                    ",
"                    $$$$$**************************$$$$$                    ",
"                    $$$$$**************************$$$$$                    ",
"                    $$$$$**************************$$$$$                    ",
"                         #####++++++++++++++++#####                         ",
"                         #####++++++++++++++++#####                         ",
"                         #####++++++++++++++++#####                         ",
"                         #####++++++++++++++++#####                         ",
"                         #####++++++++++++++++#####                         ",
"               .....#####.....@@@@@@@@@@@@@@@@.....#####.....               ",
"               .....#####.....@@@@@@@@@@@@@@@@.....#####.....               ",
"               .....#####.....@@@@@@@@@@@@@@@@.....#####.....               ",
"               .....#####.....@@@@@@@@@@@@@@@@.....#####.....               ",
"               .....#####.....@@@@@@@@@@@@@@@@.....#####.....               ",
"          *****$$$$$     .....@@@@@@@@@@@@@@@@.....     $$$$$*****          ",
"          *****$$$$$     .....@@@@@@@@@@@@@@@@.....     $$$$$*****          ",
"          *****$$$$$     .....@@@@@@@@@@@@@@@@.....     $$$$$*****          ",
"          *****$$$$$     .....@@@@@@@@@@@@@@@@.....     $$$$$*****          ",
"          *****$$$$$     .....@@@@@@@@@@@@@@@@.....     $$$$$*****          ",
"          **********     %%%%%                %%%%%     **********          ",
"          **********     %%%%%                %%%%%     **********          ",
"          **********     %%%%%                %%%%%     **********          ",
"          **********     %%%%%                %%%%%     **********          ",
"          **********     %%%%%                %%%%%     **********          ",
"                         =====%%%%%      %%%%%=====                         ",
"                         =====%%%%%      %%%%%=====                         ",
"                         =====%%%%%      %%%%%=====                         ",
"                         =====%%%%%      %%%%%=====                         ",
"                         =====%%%%%      %%%%%=====                         ",
"                    @@@@@@@@@@+++++      +++++@@@@@@@@@@                    ",
"                    @@@@@@@@@@+++++      +++++@@@@@@@@@@                    ",
"                    @@@@@@@@@@+++++      +++++@@@@@@@@@@                    ",
"                    @@@@@@@@@@+++++      +++++@@@@@@@@@@                    ",
"                    @@@@@@@@@@+++++      +++++@@@@@@@@@@                    "};
