/* XPM */
static char *player_up[] = {
/* columns rows colors chars-per-pixel */
"16 24 13 1 ",
"  c #000000",
". c #1C2F60",
"X c #E49557",
"o c #B2696F",
"O c #984868",
"+ c #635D96",
"@ c #FFE3AE",
"# c #A6858F",
"$ c #FFB482",
"% c #65308A",
"& c #978BDE",
"* c #C4C7EE",
"= c gray99",
/* pixels */
"                ",
"                ",
"                ",
"                ",
"                ",
"    .......     ",
"   .XXXXXXX.    ",
"  .XXXXXXXXX.   ",
"  .XXXXXXXXX.   ",
"  .XXXXXXXXX.   ",
"  .XXXXXXXXXo.  ",
"  .OoXXXXXXoo.  ",
"  .+OOoooooo.   ",
"  .++++++@@+.   ",
"  .++####@@#.   ",
"   .++####$.    ",
"   ..oooo%..    ",
"  .#.XXXoXo.    ",
"  .#.oXXX.$@.   ",
"   ..+..+.@@.   ",
"    .&&.+&..    ",
"       .*==.    ",
"                ",
"                "
};
