/* XPM */
static char *player_bottom[] = {
/* columns rows colors chars-per-pixel */
"16 24 12 1 ",
"  c white",
". c #1C2F60",
"X c #E49557",
"o c #B2696F",
"O c gray99",
"+ c #C4C7EE",
"@ c #635D96",
"# c #FFE3AE",
"$ c #A6858F",
"% c #FFB482",
"& c #984868",
"* c #978BDE",
/* pixels */
"                ",
"                ",
"                ",
"                ",
"                ",
"     .......    ",
"    .XXXXXXX.   ",
"   .XXXXXXXXX.  ",
"   .XXXXXXXXX.  ",
"   .oO+XXXXXX.  ",
"  .XX+OXXXXXX.  ",
"  .oXXXooXXXo.  ",
"   ..oXXXooo@.  ",
"   ..##.#@##$.  ",
"   .###.#$##$.  ",
"    .###%$%@.   ",
"    ..++o&@..   ",
"   .$.OOXoXo.   ",
"   .$.OOXX.%#.  ",
"    ..@..@.##.  ",
"    .**@.*@..   ",
"       .OO+.    ",
"                ",
"                "
};
