/* XPM */
static char *rock[] = {
/* columns rows colors chars-per-pixel */
"29 32 109 2 ",
"   c #1E1D18",
".  c #211F19",
"X  c #25231D",
"o  c #29261F",
"O  c #292720",
"+  c #2C2A23",
"@  c #2F2E28",
"#  c #312E26",
"$  c #333027",
"%  c #35322A",
"&  c #39372D",
"*  c #3C392E",
"=  c #3E3B30",
"-  c #403E33",
";  c #454135",
":  c #454339",
">  c #49463A",
",  c #4E4A3D",
"<  c #504D3E",
"1  c #4F4C40",
"2  c #514E43",
"3  c #555144",
"4  c #595545",
"5  c #55534A",
"6  c #59564C",
"7  c #5E5A4B",
"8  c #5E5B51",
"9  c #625E4D",
"0  c #615E51",
"q  c #615F58",
"w  c #666252",
"e  c #6A6553",
"r  c #6D6956",
"t  c #69665A",
"y  c #6E6A5B",
"u  c #716D5B",
"i  c #75705D",
"p  c #7A755F",
"a  c #6F6C60",
"s  c #726F62",
"d  c #767263",
"f  c #797563",
"g  c #7D7863",
"h  c #76746A",
"j  c #78756D",
"k  c #7D796A",
"l  c #7E7B71",
"z  c #817B65",
"x  c #827D6C",
"c  c #827F72",
"v  c #86816C",
"b  c #89826A",
"n  c #8F886E",
"m  c #90896E",
"M  c #868274",
"N  c #8A8573",
"B  c #8E8974",
"V  c #8D897B",
"C  c #938D74",
"Z  c #928E7C",
"A  c #979177",
"S  c #96917B",
"D  c #9B957D",
"F  c #9E987F",
"G  c #918E85",
"H  c #969283",
"J  c #9B9683",
"K  c #9E9983",
"L  c #96958D",
"P  c #99968B",
"I  c #9D998D",
"U  c #A29C86",
"Y  c #A39E8B",
"T  c #A19E93",
"R  c #A6A18E",
"E  c #A9A48F",
"W  c #A5A193",
"Q  c #AAA592",
"!  c #AEA995",
"~  c #A9A69B",
"^  c #ADA99A",
"/  c #B2AD9B",
"(  c #B5B09E",
")  c #AFAEA7",
"_  c #AEADA8",
"`  c #B2AEA0",
"'  c #B7B3A3",
"]  c #BAB6A6",
"[  c #BBB8A7",
"{  c #B8B5A9",
"}  c #BDB9AA",
"|  c #BDBBB3",
" . c #C1BEAE",
".. c #C2BFB1",
"X. c #C5C1B4",
"o. c #C8C4B7",
"O. c #CAC6BA",
"+. c #CCC9BD",
"@. c #CECCC2",
"#. c #D1CEC3",
"$. c #D3D1C6",
"%. c #D5D3CA",
"&. c #D8D6CD",
"*. c #DAD8CF",
"=. c #DCDBD2",
"-. c #E0DED6",
";. c #E1DFD8",
":. c #E2E1D9",
">. c #000000",
/* pixels */
">.>.>.>.>.>.>.>.>.= O >.u g u >.>.>.>.>.>.>.>.>.>.>.>.>.>.",
">.>.>.>.>.>.>.8 - % 2 p n m m b r >.>.>.>.>.>.>.>.>.>.>.>.",
">.>.>.>.L M 6 = 3 x C C b z e 4 : # o >.>.>.>.>.>.>.>.>.>.",
">.>.>.{ l : 8 V Q Y C b C c > O + X # >.>.>.>.>.>.>.>.>.>.",
">.>._ ..2 j ..} / E E J f 3 * + # o X >.>.>.>.>.>.>.>.>.>.",
">.>.~ X.5 G O.O.o./ C u 4 < * + # o X >.>.>.>.>.>.>.>.>.>.",
">.>.T ..6 P O.o.O.Y e w 9 3 - + % o o >.>.>.>.>.>.>.>.>.>.",
">.>.T X.6 G O.o.O.E e e 9 4 - # - 4 p u >.>.>.>.>.>.>.>.>.",
">.>.~ O.5 l @.O.+.` e e 9 4 4 r Z A i > >.>.>.>.>.>.>.>.>.",
">.>.| #.8 j #.@.#.` e e u c W Q k 2 , 3 7 >.>.>.>.>.>.>.>.",
">.>.@.%.q L &.%.%./ r H ' ' V 6 < e g b C b >.>.>.>.>.>.>.",
">.>.&.*.h | =.=.=.{ u W G 9 < 9 x D D F A C p >.>.>.>.>.>.",
">._ =.=.L %.=.=.-...x k : < r H Q E U U A p < >.>.>.>.>.>.",
">._ =.*.| =.;.:.;.@.M g - , S ! / J Q N 7 > ; >.>.>.>.>.>.",
">.O.%.@.&.*.=.=.=.@.c V * * S / J 7 Y 0 ; ; - >.>.>.>.>.>.",
"L +.@.O.@.$.$.@.%.@.s M > # Z ! d 2 Z 3 - ; * >.>.>.>.>.>.",
"G X.O.X. .O.+.o.+.@.h f t % J ! 8 , v , * = & >.>.>.>.>.>.",
"V [ X.X.[ X.o.X.o.o.M 5 k 5 Q Y 1 : i ; * , 6 >.>.>.>.>.>.",
"V ' [ ] ( } [ '  .X.M = f V ! J ; : w 1 h N x e % + >.>.>.",
"V / ( ( ! ' ^ ( ] [ k % w E ! Z & k W W W J N g 3 & 8 a >.",
"V ! ! Q Q ! Q ! / ( y $ e Q ! x + h ( H I W H N d > , 7 1 ",
"V Q ! Q E ! R E ! ! 7 + e R ! d o 6 K B Q W Y B r ; $ = = ",
"S Q Q E E ! Y E ! E 1 o t H C w , 4 r v D N N 2 * % $ * >.",
"H ! ! E Q Q Y E ! Y - X e C w 7 7 9 u v S v z & % + + % >.",
"M Y ! Q ! ! R E ! J $ . t D C r 9 e x Z I Q J 5 * o + >.>.",
">.>.V E ( ( E E / Z + X u D D U x u N J Q { ..} L = >.>.>.",
">.>.>.>.I ^ W ! } G X & V D D U U Z J T ` ..} ^ v : >.>.>.",
">.>.>.>.>.>.V ~ X.c . 2 N Z F U U F K U / T y : 3 >.>.>.>.",
">.>.>.>.>.>.>.>.~ t   >.>.f C K F D A A A 7 ; = 3 >.>.>.>.",
">.>.>.>.>.>.>.>.>.>.>.>.>.>.>.f N A A C N 3 ; % >.>.>.>.>.",
">.>.>.>.>.>.>.>.>.>.>.>.>.>.>.>.>.>.z n z , = >.>.>.>.>.>.",
">.>.>.>.>.>.>.>.>.>.>.>.>.>.>.>.>.>.>.>.e = >.>.>.>.>.>.>."
};
