/* XPM */
static char *_2ee26c2675c4c31fa0fff335ed73f6egrHrNkUGAaQKaHnb[] = {
/* columns rows colors chars-per-pixel */
"16 16 11 1 ",
"  c None",
". c #54090E",
"X c #542409",
"o c #752802",
"O c #7E370E",
"+ c #9C1017",
"@ c #B4131E",
"# c #DD1725",
"$ c #FF1C2B",
"% c #FF5E69",
"& c #FF969D",
/* pixels */
"                ",
"         o      ",
"        OX      ",
"        o       ",
"     ++oXoo     ",
"   +@&@X+#@oo   ",
"  +@$%&&&%$@oo  ",
"  +@$$$$$$#$@o  ",
"  +@#$#$###$#.  ",
"  o@@##@@#@$#.  ",
"  o@@@@@#@@$@.  ",
"   o@@#@@@#@.   ",
"   o+@@@##@+.   ",
"    .+@++@+.    ",
"     .ooo..     ",
"                "
};
