/* XPM */
static char * test_tile_xpm[] = {
"40 20 2 1",
" 	c None",
".	c #FFFFFF",
"                  ....                  ",
"                ..    ..                ",
"              ..        ..              ",
"            ..            ..            ",
"          ..                ..          ",
"        ..                    ..        ",
"      ..                        ..      ",
"    ..                            ..    ",
"  ..                                ..  ",
"..                                    ..",
"..                                    ..",
"  ..                                ..  ",
"    ..                            ..    ",
"      ..                        ..      ",
"        ..                    ..        ",
"          ..                ..          ",
"            ..            ..            ",
"              ..        ..              ",
"                ..    ..                ",
"                  ....                  "};
