/* XPM */
static char * tile_022_xpm[] = {
"52 46 8 1",
" 	c #000000",
".	c #75A743",
"+	c #A8CA58",
"@	c #468232",
"#	c #241527",
"$	c #602C2C",
"%	c #25562E",
"&	c #341C27",
"                        ....                        ",
"                        ....                        ",
"                  .    ...   ++                     ",
"             ++++++.....+++++++.                    ",
"             ++++++.....+++++++.                    ",
"               +++++++++++++++++++++                ",
"               +++++++++++++++++++++                ",
"           ....++++++++++++++++++++++++++           ",
"        ..+++++++++++++++++++++++++++++...          ",
"        ..+++++++++++++++++++++++++++++...          ",
"      ..++++++++++++++++++++++++++++++++++..        ",
"   ++ +++++++++++++++++++++++++++++++++++++++++     ",
"   ++ +++++++++++++++++++++++++++++++++++++++++     ",
"   ++++++++++++++++++++++++++++++++++++++++++++     ",
"   ++++++++++++++++++++++++++++++++++++++++++++     ",
"   ++++++++++++++++++++++++++++++++++++++++++++++   ",
"  +++++++++++++++++++++++++++++++++++++++++++++++.  ",
"  +++++++++++++++++++++++++++++++++++++++++++++++.  ",
"@@......++++++++++++++++++++++++++++++++++++++++++..",
"@@......++++++++++++++++++++++++++++++++++++++++++..",
"##....+++++..+++++++++++++++++++++++++++++++@++@@@@@",
"##....+++++..+++++++++++++++++++++++++++++++@++@@@@@",
"$$#.......+++..+++++++++++++++++++++++++++@@%@@%%&##",
"&&$##@@@........++++++++++++++++++++@@@@@@%%%%%&&###",
"$$&&&&&&##@@@...++++++++++++@+++++@@%%%@@%%%&#######",
"$$&&&&&&##@@@...++++++++++++@+++++@@%%%@@%%%&#######",
"&&&$$&$$&&#@@@@......+++++++@@@+@@%%%%%%%###&&&&&###",
"&&&$$&$$&&#@@@@......+++++++@@@+@@%%%%%%%###&&&&&###",
"&&$$$###$$&####@@@.++..++++++@@@%%%%%##&&###&&&&&&##",
"&&$$$###$$&####@@@.++..++++++@@@%%%%%##&&###&&&&&&##",
"$$$$$$$$$$$&&&&&##@@@@@.+++++@@%%%##&####&&&&&&&&###",
"##$$$$##$$&&&$$$$$#@@@@...@@@%%%&&###&&&&&&&######&&",
"##$$$$##$$&&&$$$$$#@@@@...@@@%%%&&###&&&&&&&######&&",
"&&####&&&&###$$$$$$&&&&@@@@@%%%&&&&&&&&&&&&&#####&&&",
"&&####&&&&###$$$$$$&&&&@@@@@%%%&&&&&&&&&&&&&#####&&&",
"   &&######&&$$$$$$$$$$&&&#####&&&##&&&&&&#######   ",
"      &&###&&&&$$$#&&$$$$$$$&&&&##&&#########       ",
"      &&###&&&&$$$#&&$$$$$$$&&&&##&&#########       ",
"          &##&&&&&###&&$$$&&&&&&&&########          ",
"             ##########&&&&&&&&###&&###             ",
"             ##########&&&&&&&&###&&###             ",
"                &&##########&&&&&&&&                ",
"                &&##########&&&&&&&&                ",
"                   ##&&#&&&&&&&&                    ",
"                       &&&&&&                       ",
"                       &&&&&&                       "};
