/* XPM */
static char *_[] = {
/* columns rows colors chars-per-pixel */
"78 90 65 1 ",
"  c #150C07",
". c #150D0A",
"X c #15110F",
"o c #141413",
"O c #131813",
"+ c #141618",
"@ c #121A1D",
"# c #0F1F25",
"$ c #111E23",
"% c #0F2027",
"& c #0F222B",
"* c #122027",
"= c #11232B",
"- c #102B2F",
"; c #0D2732",
": c #0C2835",
"> c #0B2C3A",
", c #112630",
"< c #102A35",
"1 c #102F3D",
"2 c #10303F",
"3 c #092F40",
"4 c #0A3243",
"5 c #06374C",
"6 c #0D3649",
"7 c #05384F",
"8 c #0D394D",
"9 c #053B52",
"0 c #0C3D54",
"q c #033F59",
"w c #0D4057",
"e c #02425D",
"r c #0D425A",
"t c #004665",
"y c #0A4661",
"u c #004867",
"i c #0C4A66",
"p c #004A6A",
"a c #0A4B69",
"s c #004E70",
"d c #015275",
"f c #0A5273",
"g c #01567C",
"h c #0A5679",
"j c #00587F",
"k c #09587C",
"l c #025C84",
"z c #095C83",
"x c #005F89",
"c c #01618C",
"v c #08638D",
"b c #026591",
"n c #066996",
"m c #056B9A",
"M c #0372A4",
"N c #0276AB",
"B c #0278AE",
"V c #037BB2",
"C c #037EBB",
"Z c #0281BB",
"A c #0286C3",
"S c #0289C6",
"D c #0287CB",
"F c #028BCA",
"G c #000000",
/* pixels */
"GGGGGGGGGGGGGGGGGGGGGGGGGGGGGGGGGGGGGGGGGGGGGGGGGGGGGGGGGGGGGGGGGGGGGGGGGGGGGG",
"GGGGGGGGGGGGGGGGGGGGGGGGGGGGGGGGGGGGGGGGGGGGGGGGGGGGGGGGGGGGGGGGGGGGGGGGGGGGGG",
"GGGGGGGGGGGGGGGGGGGGGGGGGGGGGGGGGGGGGGGGGGGGGGGGGGGGGGGGGGGGGGGGGGGGGGGGGGGGGG",
"GGGGGGGGGGGGGGGGGGGGGGGGGGGGGGGGGGGGGGGGGGGGGGGGGGGGGGGGGGGGGGGGGGGGGGGGGGGGGG",
"GGGGGGGGGGGGGGGGGGGGGGGGGGGGGGGGGGGGGGGGGGGGGGGGGGGGGGGGGGGGGGGGGGGGGGGGGGGGGG",
"GGGGGGGGGGGGGGGGGGGGGGGGGGGGGGGGGGGGGGGGGGGGGGGGGGGGGGGGGGGGGGGGGGGGGGGGGGGGGG",
"GGGGGGGGGGGGGGGGGGGGXXXXXXXXXXXXXXXXXXXXXXo.o.XXXXXXXXXXXXGGGGGGGGGGGGGGGGGGGG",
"GGGGGGGGGGGGGGGGGGGoooXooooXXoXooooXooXooXooooooXoXooXooooXGGGGGGGGGGGGGGGGGGG",
"GGGGGGGGGGGGGGGGGG++o++oo+o++o++oo++oo+o+o+ooo+oo+o++o++o++oGGGGGGGGGGGGGGGGGG",
"GGGGGGGGGGGGGGGGGG@@@+@@@@@@@@@@@@@@@$@@@@@@@$@@@@@@@@@@@@@@GGGGGGGGGGGGGGGGGG",
"GGGGGGGGGGGGGGGGG$###&#&###&####*#**##&###########&###&#*$$$$GGGGGGGGGGGGGGGGG",
"GGGGGGGGGGGGGGGG@#&;;::::>:::::::::<:::::::>::>::>::::::<<;&#$GGGGGGGGGGGGGGGG",
"GGGGGGGGGGGGGGo+$&;>33444444443444344434443444444344443433>:&$+oGGGGGGGGGGGGGG",
"GGGGGGGGGGGGGXo+#&>4599999999999999999999999999999999999974>&#+oXGGGGGGGGGGGGG",
"GGGGGGGGGGGGoo+@&:35qqtetqqteeeeeeeeqeeetqqeqeeqqqqtetteeq73;&@+ooGGGGGGGGGGGG",
"GGGGGGGGGGGG+@@#&>59qtttttttttttttttttttttttuttttttttttttq94>&#@@+GGGGGGGGGGGG",
"GGGGGGGGGGG$$$#;:35qetuuptttuttutuuuptutuuuttttpuuuuupupttq53:&##$$GGGGGGGGGGG",
"GGGGGGGGGG$#&&:>359qttuuuppttpuuuutututttutpupttututuuuuttq953>:&&$$GGGGGGGGGG",
"GGGGGGGGo@$#:>3459qqtttuutttttttttttttttttttttttttttututtqqq9553>;&#@+GGGGGGGG",
"GGGGGGGo+@#;>479qqetttutttttttttttttttttttttttttttttttttttteqq9543;#$+oGGGGGGG",
"GGGGGGXo++#:35qqtuuutuuppuuupppppuupptpppupuppppupuuupppututttqq53;#$oXXGGGGGG",
"GGGGGGXo+@#:39qtuppppsssdppdssppssssspsssssssppsssssssspssspputq74;#+ooXGGGGGG",
"GGGGGGXo+@#:49qupdsgjjjjjggjjgjjjjjgjjjjjjjgjgjjjjjjjjjjggsgssuy94;#$ooXGGGGGG",
"GGGGGGXX+@#:39tusgjlxxcccccccccbxccxccxcxccxccxcxcxcccccxxllgspq94;$$ooXGGGGGG",
"GGGGGGXo+@*:37tpslxbmmMmMMmmmmMmmMmMmmmMmMmmmMMmmMMmmMMmmbbxlspe53;#$oXXGGGGGG",
"GGGGGGXXo@$;37qpglbmMNNVNBBNNNNNNNNNNVNNNNNVNNNNNNNNNVNVBNmbldpe93;#$ooXGGGGGG",
"GGGGGGXX+@*:49tslbmMVCZZZZZCZZCZCZZCZZZZZZASZZZCCZZZZZZZCVMmxgst93<$+oXXGGGGGG",
"GGGGGGXX+@&:40tslbMBZAAASAAAAAAAAAAAAAAAAAAFAAAAAAAAASSAACVMbxdu06<*$ooXGGGGGG",
"GGGGGGXoo$=>5yslcmMCAASFFFAFSSFFFFFFFFFFFFFFFFSFSSSSSFSSAZCNMblsi81=*+XXGGGGGG",
"GGGGGG.o+@,30plbmNVCAAFFFFSFFFFFFFFFFFFFFFFFFFFFFFSFFFFFFACBNmbliw2,+oXXGGGGGG",
"GGGGGG.X+$<6ihbMBVCAAFFFAFSFFFFFFFFFFFFFFFFFFFFFFFFSFSFFSAACVNmbhi8<*oXXGGGGGG",
"GGGGGG.o+$<0axmBCCAAAAASSSASAFSFFFFFFFFFFFFFFFFFSSSASSASAAAAZCBmvi8<*+X.GGGGGG",
"GGGGGG.X+*1whvMZZSSSAAASSSSSSSZZFFAZAAZAAAZAZAZZSSAAASASAASSSAZMvhw1*oX.GGGGGG",
"GGGGGG.X+*1rhvZZSSSSSSAASZSSZZZZZZVVVVVVVVVVVZZZZAASSSSASASSSSZZvhr1*+X.GGGGGG",
"GGGGGG.X+*2rhnVZFFFSASSSSSZZZZVMmmmnnmmmnmnnnmMVVZZASSSSASSFFSAZmzr2*+X.GGGGGG",
"GGGGGG.X+*2rknZAFFSFSAASSSZZZMnvzzhhhkhhkhhhkzvmMZZASSSSSASSFSAVnhr2*+X.GGGGGG",
"GGGGGG.X+*1rknZAFFFFSASSSSSZVnzhirrrrrrrrwrwrihznVZZAASSASSFFFSZnzr2*+X GGGGGG",
"GGGGGG.X+*1rknZAFFFFASSFSSZZMvhrw21<1161111128rfvmZASSSSSSSFFFZZnhr2*+X.GGGGGG",
"GGGGGG.X+*2rhnVAFFFFSASFFSZZMzi8-*@$$****@*O*-8izmZASFFSASSFFSAVnhr2*+X.GGGGGG",
"GGGGGG.X+*1rhvVZSFFFAASFFAZZmkr2$OXXooooOOXOO*6rknZASFFSSASFFSZVnhr2*+X.GGGGGG",
"GGGGGG.X+*2rhnVAFFFSSSSSFFZVnhr1OO  .XXX...XX$1rhnZASFFSAASFFSAZnhr2*+X.GGGGGG",
"GGGGGG.X+*2rhnVAFFFSSSSSFFAVnhr<*X. ..XX.. .X@<rhvVZFFFSASSFFFZVnhr2*+X GGGGGG",
"GGGGGG.X+*2rhnZZSFFSSSSFFFZVmhr1$O. ..XXX. .X*1rhnVZFFFSSASFFSAVnzw2*+X.GGGGGG",
"GGGGGG.XO*1rhnVAFFFSSSSFFFAVmhr1*OX.XXooX..Xo*1wknZAFFFSASSFFSZVnhr2*+X.GGGGGG",
"GGGGGG.X+*2rhnZZFFFSZSSSFFZVmkr2*OXXXXooXXXX+*1wknZAFFFSSSSSFFAZnhw2*+X.GGGGGG",
"GGGGGG.X+*2rhvZZSFFSSSSSFFAVmkr2*OXXXoooXXXX+*6rknZAFFFSSSSFFSZVnhw2*+X.GGGGGG",
"GGGGGG.X+*1rhnVZFFSSSSSFFFZVmhr2*oXXXXooXXXXo*1rkvVZSFSSSASFSSAZnzw2*+X.GGGGGG",
"GGGGGG.XO*1rhnZSSFSSSSSFFFAVmhw2$oX..XXXXX.Xo*1rkvZAFFSSASSFFSAMnhw2*+X.GGGGGG",
"GGGGGG.X+*1rhnVASFFSSSSFFSAVmkr2#oX....oX...o$2rknZAFFFSAASFFSAZnhr2*+X.GGGGGG",
"GGGGGG.X+*1rhnVAFFFSAASFFFANmkr2#oXXooooXXXXo*1rknZAFFFSSASFFFZZnhr2*+X.GGGGGG",
"GGGGGG.X+*1rhnVASFFSSASFFFAVmkr2#+oXooooooXo+*4rknVZSFFSASSFFAZZnhr2*+X.GGGGGG",
"GGGGGG X+*1rhvVAFFFSASSFFFZVmki4&#+o++@@++++$,4ykvZZFFFSSASFFAZVnhw2*+X.GGGGGG",
"GGGGGG.X+*1rhnZAFFFSSASFFFAVmva7:*#$###&$$##=>8izmZZAAFAAAAFFFAZnhr2*+..GGGGGG",
"GGGGGG.X+*2rhnVASFFSASSSFSAVmvfw4>;;;::::;;&>4wfzVZAASFSFAFFFSZZnhr2*+X.GGGGGG",
"GGGGGG.X+*2rhnVAFFFSASSSFSAVMchy95333344333369idvnZASFSSAAAFFAZZnhr2*+X.GGGGGG",
"GGGGGG X+*2rhvVZSFFSSASSSSAZNnlpe979799997799epznZZASFSSFAFFFAAMnhr2*+X.GGGGGG",
"GGGGGG.X+*1rhnZASFFSSASSSSAZNmxsueqqqqeeqqqqepdxnmZASSSSAAFFFAAZnkr2*+X.GGGGGG",
"GGGGGG.X+*1rhnVAFFFSASSSSSACNmcjputettttttetppgxnZZASSSSAAAFFFZZnhr2*+X.GGGGGG",
"GGGGGG.X+*1rhnVZFFFSSSSSFSAZBMcjdtttttttttttpsjcmZZASFSSFAFFSAZZnhr1*+X.GGGGGG",
"GGGGGG.X+*1rhvVASFFSAASSSSACNmxgspttttttttettsjcvZZSSSSSAAFFSAZVnhr2*+X.GGGGGG",
"GGGGGG.Xo*2rhnZAFFFSASSSSSACNmbjpttttttttettppkvnMZSSSSSASSFFFAZnkr2*+X.GGGGGG",
"GGGGGG.X+*2rhnVAFFFSAASSFSAZNmxjstttttttttetufkvmZZASSSSASSFFSZZnhr2*+X.GGGGGG",
"GGGGGG.X+*2rhnVZSFFSSASSFSAZBMcjsputtpttutuupdkvnMZASSSSSASFSAZZnhr1*+X.GGGGGG",
"GGGGGG.X+*2rhvVAFFFSASSSSSZZNMblgsspppssdpppsdzvMZZASSSSASSSSAZZnhr1*+X.GGGGGG",
"GGGGGG.X+*2rznVDDFFFAASSSSAZZMnvzkkhhhjjjgggjlcmMVZSSSSSASSFFFAVmkr2*+X.GGGGGG",
"GGGGGG X+*2rznVDDDFFSSSSSAAAZMMnnvvvvvcccxxxbbmMNCZASSSAASSFFFDVmkr2=+X.GGGGGG",
"GGGGGG X+*2rkmADFFFFSAASSAAAZVVMnmmnmmmmmmmmmMMVVCZASASAASFFFFFAmkr2*+X.GGGGGG",
"GGGGGG X+*2rknCDFFFFASASASAAZZZZMZZVBBVNNVNNNVVVCAASASSAASFFFFFAmzr2*+X.GGGGGG",
"GGGGGG X+*2whnVAFFAAAAAAASASAZZZAVCVCVVAZZZZZZZAAAASSASAASSDDADVvhw1*+X.GGGGGG",
"GGGGGG.Xo*2wfzVZZSAAASSSSASSAAASSFSASSSSAAAFAAAAAAAAASSSSAAZACVNvfw1*+X.GGGGGG",
"GGGGGGGX+*1wihvnMZZZASSFSSSSFFSSFFFFFFFFFFFFFFFFSSSFFFSSSAZVVmnvkiw1*+XGGGGGGG",
"GGGGGGGG+*,2wifkvnMZASFFFFFFFFFFFFFFFFFFFFFFFFFFFFFFFFFFDAVVmvzfiw2,*+GGGGGGGG",
"GGGGGGGGGG,12wwihznVADFFFFFFFFFFFFFFFFFFFFFFFFDDFFFFFFFFFAVmzhir822,GGGGGGGGGG",
"GGGGGGGGGGG=,128rhvVZDFFFFSSSFFFFSFFFFSSFFFSFFDDFFFFFFFFFAMvhr81<,,GGGGGGGGGGG",
"GGGGGGGGGGGG+*=,8iknZADSFAZAAZSACASSFSSASAZAFAAAAAAASSSDDVnzi8<=*+GGGGGGGGGGGG",
"GGGGGGGGGGGGXo+*2wfvMVZAZZVVVVVZVVVVVVVVVZVVVZVVBVVNVVCCVNvfr2=+XXGGGGGGGGGGGG",
"GGGGGGGGGGGGG o*<wihvvnmmnnnvnnnnnnnnnnnvnnnnnnnnmnmmmmmnvzi8<*X.GGGGGGGGGGGGG",
"GGGGGGGGGGGGGGX+,2wifhkkkhhhhhhhhhhhkhhhhhhhhhkhhhhhhkkkffi02,+XGGGGGGGGGGGGGG",
"GGGGGGGGGGGGGGGG*22wwrrrrrrwrrrrrrrrrrrrrrrrwrwwrwrwrwrr08861=GGGGGGGGGGGGGGGG",
"GGGGGGGGGGGGGGGGG,,1222222121222111222111222222222222222611<,GGGGGGGGGGGGGGGGG",
"GGGGGGGGGGGGGGGGGG******************************************GGGGGGGGGGGGGGGGGG",
"GGGGGGGGGGGGGGGGGG+++o+++++++++++o++++++++++++++++++++++++o+GGGGGGGGGGGGGGGGGG",
"GGGGGGGGGGGGGGGGGGGXXXXXXXXXXXXXXXXXXXXXXXXXXXXXXXXXXXXXXXXGGGGGGGGGGGGGGGGGGG",
"GGGGGGGGGGGGGGGGGGGG......................................GGGGGGGGGGGGGGGGGGGG",
"GGGGGGGGGGGGGGGGGGGGGGGGGGGGGGGGGGGGGGGGGGGGGGGGGGGGGGGGGGGGGGGGGGGGGGGGGGGGGG",
"GGGGGGGGGGGGGGGGGGGGGGGGGGGGGGGGGGGGGGGGGGGGGGGGGGGGGGGGGGGGGGGGGGGGGGGGGGGGGG",
"GGGGGGGGGGGGGGGGGGGGGGGGGGGGGGGGGGGGGGGGGGGGGGGGGGGGGGGGGGGGGGGGGGGGGGGGGGGGGG",
"GGGGGGGGGGGGGGGGGGGGGGGGGGGGGGGGGGGGGGGGGGGGGGGGGGGGGGGGGGGGGGGGGGGGGGGGGGGGGG",
"GGGGGGGGGGGGGGGGGGGGGGGGGGGGGGGGGGGGGGGGGGGGGGGGGGGGGGGGGGGGGGGGGGGGGGGGGGGGGG",
"GGGGGGGGGGGGGGGGGGGGGGGGGGGGGGGGGGGGGGGGGGGGGGGGGGGGGGGGGGGGGGGGGGGGGGGGGGGGGG"
};
