/* XPM */
static char *_[] = {
/* columns rows colors chars-per-pixel */
"90 104 4 1 ",
"  c gray8",
". c #004766",
"X c #0287C4",
"o c #000000",
/* pixels */
"oooooooooooooooooooooooooooooooooooooooooooooooooooooooooooooooooooooooooooooooooooooooooo",
"oooooooooooooooooooooooooooooooooooooooooooooooooooooooooooooooooooooooooooooooooooooooooo",
"oooooooooooooooooooooooooooooooooooooooooooooooooooooooooooooooooooooooooooooooooooooooooo",
"oooooooooooooooooooooooooooooooooooooooooooooooooooooooooooooooooooooooooooooooooooooooooo",
"oooooooooooooooooooooooooooooooooooooooooooooooooooooooooooooooooooooooooooooooooooooooooo",
"oooooooooooooooooooooooooooooooooooooooooooooooooooooooooooooooooooooooooooooooooooooooooo",
"oooooooooooooooooooooooooooooooooo                            oooooooooooooooooooooooooooo",
"oooooooooooooooooooooooooooooooooo                            oooooooooooooooooooooooooooo",
"oooooooooooooooooooooooooooooooooo                            oooooooooooooooooooooooooooo",
"oooooooooooooooooooooooooooooooooo                            oooooooooooooooooooooooooooo",
"oooooooooooooooooooooooooooooooooo                            oooooooooooooooooooooooooooo",
"oooooooooooooooooooooooooooooooooo                            oooooooooooooooooooooooooooo",
"oooooooooooooooooooooooooooooooooo                            oooooooooooooooooooooooooooo",
"oooooooooooooooooooooooooooooooooo                            oooooooooooooooooooooooooooo",
"oooooooooooooooooooooooooooo      ............................        oooooooooooooooooooo",
"oooooooooooooooooooooooooooo      ............................        oooooooooooooooooooo",
"oooooooooooooooooooooooooooo      ............................        oooooooooooooooooooo",
"oooooooooooooooooooooooooooo      ............................        oooooooooooooooooooo",
"oooooooooooooooooooooooooooo      ............................        oooooooooooooooooooo",
"oooooooooooooooooooooooooooo      ............................        oooooooooooooooooooo",
"oooooooooooooooooooo        ..................................        oooooooooooooooooooo",
"oooooooooooooooooooo        ..................................        oooooooooooooooooooo",
"oooooooooooooooooooo        ..................................        oooooooooooooooooooo",
"oooooooooooooooooooo        ..................................        oooooooooooooooooooo",
"oooooooooooooooooooo        ..................................        oooooooooooooooooooo",
"oooooooooooooooooooo        ..................................        oooooooooooooooooooo",
"oooooooooooooooooooo        ..................................        oooooooooooooooooooo",
"oooooooooooooooooooo        ..................................        oooooooooooooooooooo",
"oooooooooooooo      ..............XXXXXXXXXXXXXXXXXXXXXXXXXXXX        oooooooooooooooooooo",
"oooooooooooooo      ..............XXXXXXXXXXXXXXXXXXXXXXXXXXXX        oooooooooooooooooooo",
"oooooooooooooo      ..............XXXXXXXXXXXXXXXXXXXXXXXXXXXX        oooooooooooooooooooo",
"oooooooooooooo      ..............XXXXXXXXXXXXXXXXXXXXXXXXXXXX        oooooooooooooooooooo",
"oooooooooooooo      ..............XXXXXXXXXXXXXXXXXXXXXXXXXXXX        oooooooooooooooooooo",
"oooooooooooooo      ..............XXXXXXXXXXXXXXXXXXXXXXXXXXXX        oooooooooooooooooooo",
"oooooooooooooo      ........XXXXXXXXXXXXXXXXXXXXXXXXXXXXXXXXXX        oooooooooooooooooooo",
"oooooooooooooo      ........XXXXXXXXXXXXXXXXXXXXXXXXXXXXXXXXXX        oooooooooooooooooooo",
"oooooooooooooo      ........XXXXXXXXXXXXXXXXXXXXXXXXXXXXXXXXXX        oooooooooooooooooooo",
"oooooooooooooo      ........XXXXXXXXXXXXXXXXXXXXXXXXXXXXXXXXXX        oooooooooooooooooooo",
"oooooooooooooo      ........XXXXXXXXXXXXXXXXXXXXXXXXXXXXXXXXXX        oooooooooooooooooooo",
"oooooooooooooo      ........XXXXXXXXXXXXXXXXXXXXXXXXXXXXXXXXXX        oooooooooooooooooooo",
"oooooooooooooo      ........XXXXXXXXXXXXXXXXXXXXXXXXXXXXXXXXXX        oooooooooooooooooooo",
"oooooooooooooo      ........XXXXXXXXXXXXXXXXXXXXXXXXXXXXXXXXXX        oooooooooooooooooooo",
"oooooooooooooo      XXXXXXXXXXXXXXXXXXXXXXXXXXXXXXXXXXXXXXXXXX        oooooooooooooooooooo",
"oooooooooooooo      XXXXXXXXXXXXXXXXXXXXXXXXXXXXXXXXXXXXXXXXXX        oooooooooooooooooooo",
"oooooooooooooo      XXXXXXXXXXXXXXXXXXXXXXXXXXXXXXXXXXXXXXXXXX        oooooooooooooooooooo",
"oooooooooooooo      XXXXXXXXXXXXXXXXXXXXXXXXXXXXXXXXXXXXXXXXXX        oooooooooooooooooooo",
"oooooooooooooo      XXXXXXXXXXXXXXXXXXXXXXXXXXXXXXXXXXXXXXXXXX        oooooooooooooooooooo",
"oooooooooooooo      XXXXXXXXXXXXXXXXXXXXXXXXXXXXXXXXXXXXXXXXXX        oooooooooooooooooooo",
"oooooooooooooooooooo              XXXXXXXXXXXXXXXXXXXXXXXXXXXX        oooooooooooooooooooo",
"oooooooooooooooooooo              XXXXXXXXXXXXXXXXXXXXXXXXXXXX        oooooooooooooooooooo",
"oooooooooooooooooooo              XXXXXXXXXXXXXXXXXXXXXXXXXXXX        oooooooooooooooooooo",
"oooooooooooooooooooo              XXXXXXXXXXXXXXXXXXXXXXXXXXXX        oooooooooooooooooooo",
"oooooooooooooooooooo              XXXXXXXXXXXXXXXXXXXXXXXXXXXX        oooooooooooooooooooo",
"oooooooooooooooooooo              XXXXXXXXXXXXXXXXXXXXXXXXXXXX        oooooooooooooooooooo",
"oooooooooooooooooooo              XXXXXXXXXXXXXXXXXXXXXXXXXXXX        oooooooooooooooooooo",
"oooooooooooooooooooo              XXXXXXXXXXXXXXXXXXXXXXXXXXXX        oooooooooooooooooooo",
"oooooooooooooooooooooooooooo      XXXXXXXXXXXXXXXXXXXXXXXXXXXX        oooooooooooooooooooo",
"oooooooooooooooooooooooooooo      XXXXXXXXXXXXXXXXXXXXXXXXXXXX        oooooooooooooooooooo",
"oooooooooooooooooooooooooooo      XXXXXXXXXXXXXXXXXXXXXXXXXXXX        oooooooooooooooooooo",
"oooooooooooooooooooooooooooo      XXXXXXXXXXXXXXXXXXXXXXXXXXXX        oooooooooooooooooooo",
"oooooooooooooooooooooooooooo      XXXXXXXXXXXXXXXXXXXXXXXXXXXX        oooooooooooooooooooo",
"oooooooooooooooooooooooooooo      XXXXXXXXXXXXXXXXXXXXXXXXXXXX        oooooooooooooooooooo",
"oooooooooooooooooooooooooooo      XXXXXXXXXXXXXXXXXXXXXXXXXXXX        oooooooooooooooooooo",
"oooooooooooooooooooooooooooo      XXXXXXXXXXXXXXXXXXXXXXXXXXXX        oooooooooooooooooooo",
"oooooooooooooooooooooooooooo      XXXXXXXXXXXXXXXXXXXXXXXXXXXX        oooooooooooooooooooo",
"oooooooooooooooooooooooooooo      XXXXXXXXXXXXXXXXXXXXXXXXXXXX        oooooooooooooooooooo",
"oooooooooooooooooooooooooooo      XXXXXXXXXXXXXXXXXXXXXXXXXXXX        oooooooooooooooooooo",
"oooooooooooooooooooooooooooo      XXXXXXXXXXXXXXXXXXXXXXXXXXXX        oooooooooooooooooooo",
"oooooooooooooooooooooooooooo      XXXXXXXXXXXXXXXXXXXXXXXXXXXX        oooooooooooooooooooo",
"oooooooooooooooooooooooooooo      XXXXXXXXXXXXXXXXXXXXXXXXXXXX        oooooooooooooooooooo",
"oooooooooooooooooooooooooooo      XXXXXXXXXXXXXXXXXXXXXXXXXXXX        oooooooooooooooooooo",
"oooooooooooooooooooooooooooo      XXXXXXXXXXXXXXXXXXXXXXXXXXXX        oooooooooooooooooooo",
"oooooooooooooooooooooooooooo      XXXXXXXXXXXXXXXXXXXXXXXXXXXX        oooooooooooooooooooo",
"oooooooooooooooooooooooooooo      XXXXXXXXXXXXXXXXXXXXXXXXXXXX        oooooooooooooooooooo",
"oooooooooooooooooooooooooooo      XXXXXXXXXXXXXXXXXXXXXXXXXXXX        oooooooooooooooooooo",
"oooooooooooooooooooooooooooo      XXXXXXXXXXXXXXXXXXXXXXXXXXXX        oooooooooooooooooooo",
"oooooooooooooooooooooooooooo      XXXXXXXXXXXXXXXXXXXXXXXXXXXX        oooooooooooooooooooo",
"oooooooooooooooooooooooooooo      XXXXXXXXXXXXXXXXXXXXXXXXXXXX        oooooooooooooooooooo",
"oooooooooooooooooooooooooooo      XXXXXXXXXXXXXXXXXXXXXXXXXXXX        oooooooooooooooooooo",
"oooooooooooooooooooooooooooo      XXXXXXXXXXXXXXXXXXXXXXXXXXXX        oooooooooooooooooooo",
"oooooooooooooooooooooooooooo      XXXXXXXXXXXXXXXXXXXXXXXXXXXX        oooooooooooooooooooo",
"oooooooooooooooooooooooooooo      XXXXXXXXXXXXXXXXXXXXXXXXXXXX        oooooooooooooooooooo",
"oooooooooooooooooooooooooooo      XXXXXXXXXXXXXXXXXXXXXXXXXXXX        oooooooooooooooooooo",
"oooooooooooooooooooooooooooo      XXXXXXXXXXXXXXXXXXXXXXXXXXXX        oooooooooooooooooooo",
"oooooooooooooooooooooooooooo      XXXXXXXXXXXXXXXXXXXXXXXXXXXX        oooooooooooooooooooo",
"oooooooooooooooooooooooooooo      XXXXXXXXXXXXXXXXXXXXXXXXXXXX        oooooooooooooooooooo",
"oooooooooooooooooooooooooooo      XXXXXXXXXXXXXXXXXXXXXXXXXXXX        oooooooooooooooooooo",
"oooooooooooooooooooooooooooo      XXXXXXXXXXXXXXXXXXXXXXXXXXXX        oooooooooooooooooooo",
"oooooooooooooooooooooooooooo      XXXXXXXXXXXXXXXXXXXXXXXXXXXX        oooooooooooooooooooo",
"oooooooooooooooooooooooooooo      XXXXXXXXXXXXXXXXXXXXXXXXXXXX        oooooooooooooooooooo",
"oooooooooooooooooooooooooooooooooo                            oooooooooooooooooooooooooooo",
"oooooooooooooooooooooooooooooooooo                            oooooooooooooooooooooooooooo",
"oooooooooooooooooooooooooooooooooo                            oooooooooooooooooooooooooooo",
"oooooooooooooooooooooooooooooooooo                            oooooooooooooooooooooooooooo",
"oooooooooooooooooooooooooooooooooo                            oooooooooooooooooooooooooooo",
"oooooooooooooooooooooooooooooooooo                            oooooooooooooooooooooooooooo",
"oooooooooooooooooooooooooooooooooo                            oooooooooooooooooooooooooooo",
"oooooooooooooooooooooooooooooooooo                            oooooooooooooooooooooooooooo",
"oooooooooooooooooooooooooooooooooooooooooooooooooooooooooooooooooooooooooooooooooooooooooo",
"oooooooooooooooooooooooooooooooooooooooooooooooooooooooooooooooooooooooooooooooooooooooooo",
"oooooooooooooooooooooooooooooooooooooooooooooooooooooooooooooooooooooooooooooooooooooooooo",
"oooooooooooooooooooooooooooooooooooooooooooooooooooooooooooooooooooooooooooooooooooooooooo",
"oooooooooooooooooooooooooooooooooooooooooooooooooooooooooooooooooooooooooooooooooooooooooo",
"oooooooooooooooooooooooooooooooooooooooooooooooooooooooooooooooooooooooooooooooooooooooooo"
};
