/* XPM */
static char *_[] = {
/* columns rows colors chars-per-pixel */
"78 90 68 1 ",
"  c #160A05",
". c #150D09",
"X c #15110F",
"o c #141414",
"O c #131813",
"+ c #141618",
"@ c #121A1D",
"# c #0F1F26",
"$ c #111E23",
"% c #0F2027",
"& c #0F222B",
"* c #122027",
"= c #122128",
"- c #102B2F",
"; c #0D2732",
": c #0C2835",
"> c #0B2C3A",
", c #112934",
"< c #102F3D",
"1 c #10303F",
"2 c #092F40",
"3 c #093143",
"4 c #06364C",
"5 c #0D3749",
"6 c #05394F",
"7 c #0D394C",
"8 c #103141",
"9 c #053B53",
"0 c #0D3D53",
"q c #033F59",
"w c #0D4057",
"e c #02425D",
"r c #0D425A",
"t c #004665",
"y c #094763",
"u c #004867",
"i c #0B4A66",
"p c #00496A",
"a c #0B4C6A",
"s c #004E70",
"d c #005175",
"f c #0A5273",
"g c #01567C",
"h c #0A5679",
"j c #03587F",
"k c #09587D",
"l c #015C84",
"z c #085D84",
"x c #015F89",
"c c #01618D",
"v c #08638D",
"b c #016592",
"n c #086394",
"m c #066996",
"M c #056B99",
"N c #016FA1",
"B c #0272A5",
"V c #0474AB",
"C c #0178AE",
"Z c #047BB2",
"A c #037EBB",
"S c #0281BB",
"D c #0287C3",
"F c #0289C6",
"G c #0287CB",
"H c #018BCA",
"J c #018FD0",
"K c #000000",
/* pixels */
"KKKKKKKKKKKKKKKKKKKKKKKKKKKKKKKKKKKKKKKKKKKKKKKKKKKKKKKKKKKKKKKKKKKKKKKKKKKKKK",
"KKKKKKKKKKKKKKKKKKKKKKKKKKKKKKKKKKKKKKKKKKKKKKKKKKKKKKKKKKKKKKKKKKKKKKKKKKKKKK",
"KKKKKKKKKKKKKKKKKKKKKKKKKKKKKKKKKKKKKKKKKKKKKKKKKKKKKKKKKKKKKKKKKKKKKKKKKKKKKK",
"KKKKKKKKKKKKKKKKKKKKKKKKKKKKKKKKKKKKKKKKKKKKKKKKKKKKKKKKKKKKKKKKKKKKKKKKKKKKKK",
"KKKKKKKKKKKKKKKKKKKKKKKKKKKKKKKKKKKKKKKKKKKKKKKKKKKKKKKKKKKKKKKKKKKKKKKKKKKKKK",
"KKKKKKKKKKKKKKKKKKKKKKKKKKKKKKKKKKKKKKKKKKKKKKKKKKKKKKKKKKKKKKKKKKKKKKKKKKKKKK",
"KKKKKKKKKKKKKKKKKKKKKKKKKKKKKKKKXXXXX.XXXXX.XX.oXXXXKKKKKKKKKKKKKKKKKKKKKKKKKK",
"KKKKKKKKKKKKKKKKKKKKKKKKKKKKKKKoooXoooooXooooooooooXoKKKKKKKKKKKKKKKKKKKKKKKKK",
"KKKKKKKKKKKKKKKKKKKKKKKKKKKKKKooooooo+o+o+o+o+o++o+o+oKKKKKKKKKKKKKKKKKKKKKKKK",
"KKKKKKKKKKKKKKKKKKKKKKKKKKKKKK@@@@@@@@@@@@@@@@@@@@@@@@KKKKKKKKKKKKKKKKKKKKKKKK",
"KKKKKKKKKKKKKKKKKKKKKKKKKKKKK$##%%==%%%#%%#%%%%##%###$$KKKKKKKKKKKKKKKKKKKKKKK",
"KKKKKKKKKKKKKKKKKKKKKKKKKKKK@$&;::::::::::::::::::::;&%$KKKKKKKKKKKKKKKKKKKKKK",
"KKKKKKKKKKKKKKKKKKKKKKKKKKoo##;>2333333333233223333>>:;$@oKKKKKKKKKKKKKKKKKKKK",
"KKKKKKKKKKKKKKKKKKKKKKKKKoo+#;>349999q9999999999q9943>;$@ooKKKKKKKKKKKKKKKKKKK",
"KKKKKKKKKKKKKKKKKKKKKKKKoo+@%:349eeeeeeeeeeeeeeteteq4>:=@ooXKKKKKKKKKKKKKKKKKK",
"KKKKKKKKKKKKKKKKKKKKKKKKo@@#&>39ettptttttttttttttttq93:=@ooXKKKKKKKKKKKKKKKKKK",
"KKKKKKKKKKKKKKKKKKKKKKK@###&:34qttuuuuuutuuutuupppte92:#$+oXKKKKKKKKKKKKKKKKKK",
"KKKKKKKKKKKKKKKKKKKKKK@$&&;>339qtuuuuuuuuutuutupuute93:#@+oXKKKKKKKKKKKKKKKKKK",
"KKKKKKKKKKKKKKKKKKKKo+$=;>334qqqetuuuttttttttttpuutq92:#@ooXKKKKKKKKKKKKKKKKKK",
"KKKKKKKKKKKKKKKKKKKoo@$&>349qqqtttttutttttuttttpuute93:#@oXXKKKKKKKKKKKKKKKKKK",
"KKKKKKKKKKKKKKKKKKooo@%:24qetttttuupuupuuupupuppppty92:#@ooXKKKKKKKKKKKKKKKKKK",
"KKKKKKKKKKKKKKKKKKo+@#&>39etuspspsssssssssssssssdssuq4>#@ooXKKKKKKKKKKKKKKKKKK",
"KKKKKKKKKKKKKKKKK@##%&>249tupsddgglggggggggggjgjlgdsy9>#@+o.KKKKKKKKKKKKKKKKKK",
"KKKKKKKKKKKKKKKK$%%;:>3399tpsgglxxbxcbcccccccccbbbxlpr5-$ooXKKKKKKKKKKKKKKKKKK",
"KKKKKKKKKKKKKKo@$&:>2349qqtpdgxbMMMNNMNMMNMMBMNNBNMnhi7,$oX.KKKKKKKKKKKKKKKKKK",
"KKKKKKKKKKKKKoo@#&>349qqqeupdlbMBVCZZCCCCVCCCCZZZCVNza0,$+o.KKKKKKKKKKKKKKKKKK",
"KKKKKKKKKKKKXoo@%;24qqttttusgxMBZASSSSSASSSSSSSSSSZVnf0<=+o.KKKKKKKKKKKKKKKKKK",
"KKKKKKKKKKKKXo+@%;39qttppssdlbNZADDDFDDDDDSDDDDFHHDZmhr<=+X KKKKKKKKKKKKKKKKKK",
"KKKKKKKKKKKKXo+@%:36etpssdllxMBZSDFHFFFFFFFFFHHHHHFZMkr1*+X.KKKKKKKKKKKKKKKKKK",
"KKKKKKKKKKKKXoo@#:39epsdllxbMVZSDFHHHHHFFFFHFHHJJHFZmkr1*+X.KKKKKKKKKKKKKKKKKK",
"KKKKKKKKKKKKXXo@#;36epdllbMNVZASDFFHFFFFFFFFFHHHHHDZMkr<=+X.KKKKKKKKKKKKKKKKKK",
"KKKKKKKKKKKKXoo@#;>9epdlbMNCZASDDFFFFFFFFDFFFFHHHHFZmkr<*+X.KKKKKKKKKKKKKKKKKK",
"KKKKKKKKKKKKXX+$%:36edkvmmSDDDDDDDDFDFDDFDDDDFFHHFDZmkr<*OX.KKKKKKKKKKKKKKKKKK",
"KKKKKKKKKKKKXX++%:3qidlnMSSDDFFFDDFDDDFDDDDFDDFHHHSZmhr<*+X.KKKKKKKKKKKKKKKKKK",
"KKKKKKKKKKKKXX++&>6ydlnVSSDFFFFFFFDDDFDDFDDFDDFHHHDZmhr1*+X.KKKKKKKKKKKKKKKKKK",
"KKKKKKKKKKKKXX+$&5rdlmMZSSFHHHHFDDDDDDDDDDDDDFFHHHSZmhr<=+X.KKKKKKKKKKKKKKKKKK",
"KKKKKKKKKKKK.X+$:7yjnVZSSFFHHHHFFDDDDFDDDDFDFDFHHHSSmhr<=+X.KKKKKKKKKKKKKKKKKK",
"KKKKKKKKKKKK.X+=<0avVZSSSFFHDDFFDFDDDDDDDFDDDDFHHHSZmhr<=+X.KKKKKKKKKKKKKKKKKK",
"KKKKKKKKKKKK.X+=>0fnZADSDSSSDDDDDDFDDDFDDDDDDDFHHFDZmhr<=+X.KKKKKKKKKKKKKKKKKK",
"KKKKKKKKKKKK.X+$<0fnMSSSSSSSSSSSDDDDFFDDDDFDDFFHHHSSmhr<=+X.KKKKKKKKKKKKKKKKKK",
"KKKKKKKKKKKKKX+=<7aknMMMMMMMSSSSSDFFFDDDFDFDDDFHHFSZmhw<=+X.KKKKKKKKKKKKKKKKKK",
"KKKKKKKKKKKKKK+=,7rahhkzhhkzkvMSSFFFFFDDDDDDFDFHHFDZmhr1=+X.KKKKKKKKKKKKKKKKKK",
"KKKKKKKKKKKKKKKK,870rrrrwrrafzMMSDFFFFDDFDDFFDFHHHDZmhr1=+..KKKKKKKKKKKKKKKKKK",
"KKKKKKKKKKKKKKKKK,<<111<<887rhvSZDFFFFFDDDDDDDFHHHDZmhr1=+X.KKKKKKKKKKKKKKKKKK",
"KKKKKKKKKKKKKKKKKK==**$$*O=-0azMZDHHHFFDDDDDDFFHHHSZmhr1=+X.KKKKKKKKKKKKKKKKKK",
"KKKKKKKKKKKKKKKKKK+++++XXXO=8rzmZSHHHFDDFDDFDDFHHHDZmhr1=+X.KKKKKKKKKKKKKKKKKK",
"KKKKKKKKKKKKKKKKKKKXXX....XO,rkmZSHHHFDFDFDDDDFHHHDZmhr<=+X.KKKKKKKKKKKKKKKKKK",
"KKKKKKKKKKKKKKKKKKKK..   .X*<wkmZDHHHFDDDDDDFDFHHHSZmhw1=+X.KKKKKKKKKKKKKKKKKK",
"KKKKKKKKKKKKKKKKKKKKKK   .X*,whmSSHHHFFDFDFDDFFHHHSSmhr1*OX.KKKKKKKKKKKKKKKKKK",
"KKKKKKKKKKKKKKKKKKKKKKK  .o*8whnZDHHHFDDDDDDDDFHHHSZmhr1=OX.KKKKKKKKKKKKKKKKKK",
"KKKKKKKKKKKKKKKKKKKKKKKK.X+*8wkmZSHHHFFDDDDDDFFHHHSSmhr<=+X.KKKKKKKKKKKKKKKKKK",
"KKKKKKKKKKKKKKKKKKKKKKKK..+*8whmSSFHHFDDFDFDDDFHHHSZmhr<=OX.KKKKKKKKKKKKKKKKKK",
"KKKKKKKKKKKKKKKKKKKKKKKK.X+*8whmZSFHHFDDDDFDDFFFHHDSnhr<=+X.KKKKKKKKKKKKKKKKKK",
"KKKKKKKKKKKKKKKKKKKKKKKK.X+*8wkmZSHHHFDFDDDDDFFHHHSZnhr<=+X.KKKKKKKKKKKKKKKKKK",
"KKKKKKKKKKKKKKKKKKKKKKKK.X+=8whmSSFHHFFDDFDFDDFHHDSZmhr8=+X.KKKKKKKKKKKKKKKKKK",
"KKKKKKKKKKKKKKKKKKKKKKKK.X+=8whnZDHHHFDDDDDDDFFHHHDZmhr8*+X.KKKKKKKKKKKKKKKKKK",
"KKKKKKKKKKKKKKKKKKKKKKKK.XO=8rkmZSFHHFFFDFDDFDFHHFSZmhw<*+X.KKKKKKKKKKKKKKKKKK",
"KKKKKKKKKKKKKKKKKKKKKKKK.X+=8rhmSSHHHFFFDDDDFDFFHFDZmhr1*+X.KKKKKKKKKKKKKKKKKK",
"KKKKKKKKKKKKKKKKKKKKKKKK.XO=<whmZDFHHFFDFDDFDFFHHHDZmhr1*+X.KKKKKKKKKKKKKKKKKK",
"KKKKKKKKKKKKKKKKKKKKKKKK.XO*8wkmZSFFHFSDDDDDDDFHHHDZmhr1*+X.KKKKKKKKKKKKKKKKKK",
"KKKKKKKKKKKKKKKKKKKKKKKK.X+=<whmSSHHHFFFDDDDDDFHHHDZmhr1*+X.KKKKKKKKKKKKKKKKKK",
"KKKKKKKKKKKKKKKKKKKKKKKK.X+=8rhmZFHHHFFFDFFDFFFHHHSZmhr8*+X.KKKKKKKKKKKKKKKKKK",
"KKKKKKKKKKKKKKKKKKKKKKKK.X+=<whmZSFHFFDDDDDDDDFHHFDZmhr<*+X.KKKKKKKKKKKKKKKKKK",
"KKKKKKKKKKKKKKKKKKKKKKKK.X+=<whnZDFHFFFDDDFDDFFHHHSZmhr<*+X.KKKKKKKKKKKKKKKKKK",
"KKKKKKKKKKKKKKKKKKKKKKKK.X+*1rhmZSFHHFDFDDFDDDFHHFSSnhr1*+X.KKKKKKKKKKKKKKKKKK",
"KKKKKKKKKKKKKKKKKKKKKKKK.X+*<wkmZDHHHFDFDDDDFDFHHHSZnhr<*+X.KKKKKKKKKKKKKKKKKK",
"KKKKKKKKKKKKKKKKKKKKKKKK.X+*1rhmZDHHHFFDDFDFFDFHHHDZmhr<*+X.KKKKKKKKKKKKKKKKKK",
"KKKKKKKKKKKKKKKKKKKKKKKK.X+*1rhmZSHHHFDDDDDDDDFHHHSSmhr1*oX.KKKKKKKKKKKKKKKKKK",
"KKKKKKKKKKKKKKKKKKKKKKKK.X+*1whmZDFHFFDFDDFDDDFHFFSVmhr1*+X.KKKKKKKKKKKKKKKKKK",
"KKKKKKKKKKKKKKKKKKKKKKKK.X+*1wkmZSHHHFFFDFDDDFHHJFSSmkr<*+XXKKKKKKKKKKKKKKKKKK",
"KKKKKKKKKKKKKKKKKKKKKKKK.X+*8rkmZDHHHHFFFFFFFFHHHHFSmhr1*+X.KKKKKKKKKKKKKKKKKK",
"KKKKKKKKKKKKKKKKKKKKKKKK.X+*8rkMSGJJJHHHHHHHHHHJJJFSMkr1*oX.KKKKKKKKKKKKKKKKKK",
"KKKKKKKKKKKKKKKKKKKKKKKK.X+*8rzmAGGJJGHHJFJFFJHJJJFSMzr8*+X.KKKKKKKKKKKKKKKKKK",
"KKKKKKKKKKKKKKKKKKKKKKKK.X+*8wkMAGJJJHFFFFFFFFHJJHHSmkr8*+X.KKKKKKKKKKKKKKKKKK",
"KKKKKKKKKKKKKKKKKKKKKKKK.X+*<whmZGGHFFDDDDSDFDFFGGDZnhw<*+X.KKKKKKKKKKKKKKKKKK",
"KKKKKKKKKKKKKKKKKKKKKKKK.X+*<wfvVZSSZZZZZZZZZZZZAAZVvfw<*oX.KKKKKKKKKKKKKKKKKK",
"KKKKKKKKKKKKKKKKKKKKKKKKKXo*<0ahvmmMMmmmnnmmmmMMMMnvkaw<*+XKKKKKKKKKKKKKKKKKKK",
"KKKKKKKKKKKKKKKKKKKKKKKKKK+*,5wafhhhkhhhhhhhhhkkkkhfaw8,*+KKKKKKKKKKKKKKKKKKKK",
"KKKKKKKKKKKKKKKKKKKKKKKKKKKK,150wwrrrrrrrrrrwrrrrrrw078,KKKKKKKKKKKKKKKKKKKKKK",
"KKKKKKKKKKKKKKKKKKKKKKKKKKKKK,,<<<8<88<8<<<8<<888<<<,,,KKKKKKKKKKKKKKKKKKKKKKK",
"KKKKKKKKKKKKKKKKKKKKKKKKKKKKKK************************KKKKKKKKKKKKKKKKKKKKKKKK",
"KKKKKKKKKKKKKKKKKKKKKKKKKKKKKK++++++++++++++++++++++o+KKKKKKKKKKKKKKKKKKKKKKKK",
"KKKKKKKKKKKKKKKKKKKKKKKKKKKKKKKXXXXXXXXXX.XXXXXXXXXXXKKKKKKKKKKKKKKKKKKKKKKKKK",
"KKKKKKKKKKKKKKKKKKKKKKKKKKKKKKKK....................KKKKKKKKKKKKKKKKKKKKKKKKKK",
"KKKKKKKKKKKKKKKKKKKKKKKKKKKKKKKKKKKKKKKKKKKKKKKKKKKKKKKKKKKKKKKKKKKKKKKKKKKKKK",
"KKKKKKKKKKKKKKKKKKKKKKKKKKKKKKKKKKKKKKKKKKKKKKKKKKKKKKKKKKKKKKKKKKKKKKKKKKKKKK",
"KKKKKKKKKKKKKKKKKKKKKKKKKKKKKKKKKKKKKKKKKKKKKKKKKKKKKKKKKKKKKKKKKKKKKKKKKKKKKK",
"KKKKKKKKKKKKKKKKKKKKKKKKKKKKKKKKKKKKKKKKKKKKKKKKKKKKKKKKKKKKKKKKKKKKKKKKKKKKKK",
"KKKKKKKKKKKKKKKKKKKKKKKKKKKKKKKKKKKKKKKKKKKKKKKKKKKKKKKKKKKKKKKKKKKKKKKKKKKKKK",
"KKKKKKKKKKKKKKKKKKKKKKKKKKKKKKKKKKKKKKKKKKKKKKKKKKKKKKKKKKKKKKKKKKKKKKKKKKKKKK"
};
