/* XPM */
static char *_[] = {
/* columns rows colors chars-per-pixel */
"90 104 4 1 ",
"  c gray8",
". c #004766",
"X c #0287C4",
"o c #000000",
/* pixels */
"oooooooooooooooooooooooooooooooooooooooooooooooooooooooooooooooooooooooooooooooooooooooooo",
"oooooooooooooooooooooooooooooooooooooooooooooooooooooooooooooooooooooooooooooooooooooooooo",
"oooooooooooooooooooooooooooooooooooooooooooooooooooooooooooooooooooooooooooooooooooooooooo",
"oooooooooooooooooooooooooooooooooooooooooooooooooooooooooooooooooooooooooooooooooooooooooo",
"oooooooooooooooooooooooooooooooooooooooooooooooooooooooooooooooooooooooooooooooooooooooooo",
"oooooooooooooooooooooooooooooooooooooooooooooooooooooooooooooooooooooooooooooooooooooooooo",
"oooooooooooooooooooo                                                  oooooooooooooooooooo",
"oooooooooooooooooooo                                                  oooooooooooooooooooo",
"oooooooooooooooooooo                                                  oooooooooooooooooooo",
"oooooooooooooooooooo                                                  oooooooooooooooooooo",
"oooooooooooooooooooo                                                  oooooooooooooooooooo",
"oooooooooooooooooooo                                                  oooooooooooooooooooo",
"oooooooooooooooooooo                                                  oooooooooooooooooooo",
"oooooooooooooooooooo                                                  oooooooooooooooooooo",
"oooooooooooooo      ..................................................      oooooooooooooo",
"oooooooooooooo      ..................................................      oooooooooooooo",
"oooooooooooooo      ..................................................      oooooooooooooo",
"oooooooooooooo      ..................................................      oooooooooooooo",
"oooooooooooooo      ..................................................      oooooooooooooo",
"oooooooooooooo      ..................................................      oooooooooooooo",
"oooooo        ..............................................................        oooooo",
"oooooo        ..............................................................        oooooo",
"oooooo        ..............................................................        oooooo",
"oooooo        ..............................................................        oooooo",
"oooooo        ..............................................................        oooooo",
"oooooo        ..............................................................        oooooo",
"oooooo        ..............................................................        oooooo",
"oooooo        ..............................................................        oooooo",
"oooooo        ......XXXXXXXXXXXXXXXXXXXXXXXXXXXXXXXXXXXXXXXXXXXXXXXXXX......        oooooo",
"oooooo        ......XXXXXXXXXXXXXXXXXXXXXXXXXXXXXXXXXXXXXXXXXXXXXXXXXX......        oooooo",
"oooooo        ......XXXXXXXXXXXXXXXXXXXXXXXXXXXXXXXXXXXXXXXXXXXXXXXXXX......        oooooo",
"oooooo        ......XXXXXXXXXXXXXXXXXXXXXXXXXXXXXXXXXXXXXXXXXXXXXXXXXX......        oooooo",
"oooooo        ......XXXXXXXXXXXXXXXXXXXXXXXXXXXXXXXXXXXXXXXXXXXXXXXXXX......        oooooo",
"oooooo        ......XXXXXXXXXXXXXXXXXXXXXXXXXXXXXXXXXXXXXXXXXXXXXXXXXX......        oooooo",
"oooooo        XXXXXXXXXXXXXXXXXXXXXXXXXXXXXXXXXXXXXXXXXXXXXXXXXXXXXXXXXXXXXX        oooooo",
"oooooo        XXXXXXXXXXXXXXXXXXXXXXXXXXXXXXXXXXXXXXXXXXXXXXXXXXXXXXXXXXXXXX        oooooo",
"oooooo        XXXXXXXXXXXXXXXXXXXXXXXXXXXXXXXXXXXXXXXXXXXXXXXXXXXXXXXXXXXXXX        oooooo",
"oooooo        XXXXXXXXXXXXXXXXXXXXXXXXXXXXXXXXXXXXXXXXXXXXXXXXXXXXXXXXXXXXXX        oooooo",
"oooooo        XXXXXXXXXXXXXXXXXXXXXXXXXXXXXXXXXXXXXXXXXXXXXXXXXXXXXXXXXXXXXX        oooooo",
"oooooo        XXXXXXXXXXXXXXXXXXXXXXXXXXXXXXXXXXXXXXXXXXXXXXXXXXXXXXXXXXXXXX        oooooo",
"oooooo        XXXXXXXXXXXXXXXXXXXXXXXXXXXXXXXXXXXXXXXXXXXXXXXXXXXXXXXXXXXXXX        oooooo",
"oooooo        XXXXXXXXXXXXXXXXXXXXXXXXXXXXXXXXXXXXXXXXXXXXXXXXXXXXXXXXXXXXXX        oooooo",
"oooooo        XXXXXXXXXXXXXX      ......................XXXXXXXXXXXXXXXXXXXX        oooooo",
"oooooo        XXXXXXXXXXXXXX      ......................XXXXXXXXXXXXXXXXXXXX        oooooo",
"oooooo        XXXXXXXXXXXXXX      ......................XXXXXXXXXXXXXXXXXXXX        oooooo",
"oooooo        XXXXXXXXXXXXXX      ......................XXXXXXXXXXXXXXXXXXXX        oooooo",
"oooooo        XXXXXXXXXXXXXX      ......................XXXXXXXXXXXXXXXXXXXX        oooooo",
"oooooo        XXXXXXXXXXXXXX      ......................XXXXXXXXXXXXXXXXXXXX        oooooo",
"oooooooooooooo              ..............XXXXXXXXXXXXXXXXXXXXXXXXXXXX              oooooo",
"oooooooooooooo              ..............XXXXXXXXXXXXXXXXXXXXXXXXXXXX              oooooo",
"oooooooooooooo              ..............XXXXXXXXXXXXXXXXXXXXXXXXXXXX              oooooo",
"oooooooooooooo              ..............XXXXXXXXXXXXXXXXXXXXXXXXXXXX              oooooo",
"oooooooooooooo              ..............XXXXXXXXXXXXXXXXXXXXXXXXXXXX              oooooo",
"oooooooooooooo              ..............XXXXXXXXXXXXXXXXXXXXXXXXXXXX              oooooo",
"oooooooooooooo              ..............XXXXXXXXXXXXXXXXXXXXXXXXXXXX              oooooo",
"oooooooooooooo              ..............XXXXXXXXXXXXXXXXXXXXXXXXXXXX              oooooo",
"oooooooooooooo      ..............XXXXXXXXXXXXXXXXXXXXXXXXXXXX              oooooooooooooo",
"oooooooooooooo      ..............XXXXXXXXXXXXXXXXXXXXXXXXXXXX              oooooooooooooo",
"oooooooooooooo      ..............XXXXXXXXXXXXXXXXXXXXXXXXXXXX              oooooooooooooo",
"oooooooooooooo      ..............XXXXXXXXXXXXXXXXXXXXXXXXXXXX              oooooooooooooo",
"oooooooooooooo      ..............XXXXXXXXXXXXXXXXXXXXXXXXXXXX              oooooooooooooo",
"oooooooooooooo      ..............XXXXXXXXXXXXXXXXXXXXXXXXXXXX              oooooooooooooo",
"oooooo        ..............XXXXXXXXXXXXXXXXXXXXXXXXXXXX....................        oooooo",
"oooooo        ..............XXXXXXXXXXXXXXXXXXXXXXXXXXXX....................        oooooo",
"oooooo        ..............XXXXXXXXXXXXXXXXXXXXXXXXXXXX....................        oooooo",
"oooooo        ..............XXXXXXXXXXXXXXXXXXXXXXXXXXXX....................        oooooo",
"oooooo        ..............XXXXXXXXXXXXXXXXXXXXXXXXXXXX....................        oooooo",
"oooooo        ..............XXXXXXXXXXXXXXXXXXXXXXXXXXXX....................        oooooo",
"oooooo        ..............XXXXXXXXXXXXXXXXXXXXXXXXXXXX....................        oooooo",
"oooooo        ..............XXXXXXXXXXXXXXXXXXXXXXXXXXXX....................        oooooo",
"oooooo        ......XXXXXXXXXXXXXXXXXXXXXX..................................        oooooo",
"oooooo        ......XXXXXXXXXXXXXXXXXXXXXX..................................        oooooo",
"oooooo        ......XXXXXXXXXXXXXXXXXXXXXX..................................        oooooo",
"oooooo        ......XXXXXXXXXXXXXXXXXXXXXX..................................        oooooo",
"oooooo        ......XXXXXXXXXXXXXXXXXXXXXX..................................        oooooo",
"oooooo        ......XXXXXXXXXXXXXXXXXXXXXX..................................        oooooo",
"oooooo        XXXXXXXXXXXXXXXXXXXXXXXXXXXXXXXXXXXXXXXXXXXXXXXXXXXXXXXXXXXXXX        oooooo",
"oooooo        XXXXXXXXXXXXXXXXXXXXXXXXXXXXXXXXXXXXXXXXXXXXXXXXXXXXXXXXXXXXXX        oooooo",
"oooooo        XXXXXXXXXXXXXXXXXXXXXXXXXXXXXXXXXXXXXXXXXXXXXXXXXXXXXXXXXXXXXX        oooooo",
"oooooo        XXXXXXXXXXXXXXXXXXXXXXXXXXXXXXXXXXXXXXXXXXXXXXXXXXXXXXXXXXXXXX        oooooo",
"oooooo        XXXXXXXXXXXXXXXXXXXXXXXXXXXXXXXXXXXXXXXXXXXXXXXXXXXXXXXXXXXXXX        oooooo",
"oooooo        XXXXXXXXXXXXXXXXXXXXXXXXXXXXXXXXXXXXXXXXXXXXXXXXXXXXXXXXXXXXXX        oooooo",
"oooooo        XXXXXXXXXXXXXXXXXXXXXXXXXXXXXXXXXXXXXXXXXXXXXXXXXXXXXXXXXXXXXX        oooooo",
"oooooo        XXXXXXXXXXXXXXXXXXXXXXXXXXXXXXXXXXXXXXXXXXXXXXXXXXXXXXXXXXXXXX        oooooo",
"oooooo        XXXXXXXXXXXXXXXXXXXXXXXXXXXXXXXXXXXXXXXXXXXXXXXXXXXXXXXXXXXXXX        oooooo",
"oooooo        XXXXXXXXXXXXXXXXXXXXXXXXXXXXXXXXXXXXXXXXXXXXXXXXXXXXXXXXXXXXXX        oooooo",
"oooooo        XXXXXXXXXXXXXXXXXXXXXXXXXXXXXXXXXXXXXXXXXXXXXXXXXXXXXXXXXXXXXX        oooooo",
"oooooo        XXXXXXXXXXXXXXXXXXXXXXXXXXXXXXXXXXXXXXXXXXXXXXXXXXXXXXXXXXXXXX        oooooo",
"oooooo        XXXXXXXXXXXXXXXXXXXXXXXXXXXXXXXXXXXXXXXXXXXXXXXXXXXXXXXXXXXXXX        oooooo",
"oooooo        XXXXXXXXXXXXXXXXXXXXXXXXXXXXXXXXXXXXXXXXXXXXXXXXXXXXXXXXXXXXXX        oooooo",
"oooooooooooooo                                                              oooooooooooooo",
"oooooooooooooo                                                              oooooooooooooo",
"oooooooooooooo                                                              oooooooooooooo",
"oooooooooooooo                                                              oooooooooooooo",
"oooooooooooooo                                                              oooooooooooooo",
"oooooooooooooo                                                              oooooooooooooo",
"oooooooooooooo                                                              oooooooooooooo",
"oooooooooooooo                                                              oooooooooooooo",
"oooooooooooooooooooooooooooooooooooooooooooooooooooooooooooooooooooooooooooooooooooooooooo",
"oooooooooooooooooooooooooooooooooooooooooooooooooooooooooooooooooooooooooooooooooooooooooo",
"oooooooooooooooooooooooooooooooooooooooooooooooooooooooooooooooooooooooooooooooooooooooooo",
"oooooooooooooooooooooooooooooooooooooooooooooooooooooooooooooooooooooooooooooooooooooooooo",
"oooooooooooooooooooooooooooooooooooooooooooooooooooooooooooooooooooooooooooooooooooooooooo",
"oooooooooooooooooooooooooooooooooooooooooooooooooooooooooooooooooooooooooooooooooooooooooo"
};
