/* XPM */
static char *_[] = {
/* columns rows colors chars-per-pixel */
"78 90 73 1 ",
"  c #150D0A",
". c #15110F",
"X c #141414",
"o c #121915",
"O c #141718",
"+ c #121A1D",
"@ c #0F1F25",
"# c #111E23",
"$ c #0F2027",
"% c #0E232B",
"& c #0E292D",
"* c #122027",
"= c #11222A",
"- c #0D2732",
"; c #0C2835",
": c #072E3F",
"> c #0B2C3B",
", c #112731",
"< c #102934",
"1 c #102E3D",
"2 c #0E313C",
"3 c #10303F",
"4 c #092F40",
"5 c #073346",
"6 c #093143",
"7 c #0E3945",
"8 c #06364B",
"9 c #0D3649",
"0 c #05384F",
"q c #0C384D",
"w c #103140",
"e c #053B53",
"r c #0C3D54",
"t c #033F59",
"y c #0D4057",
"u c #02425D",
"i c #0D425B",
"p c #004664",
"a c #0A4661",
"s c #004867",
"d c #0C4966",
"f c #004A6A",
"g c #0A4C6A",
"h c #0B506F",
"j c #004E70",
"k c #015175",
"l c #0A5274",
"z c #01557B",
"x c #0A5679",
"c c #01587F",
"v c #09597D",
"b c #015C84",
"n c #095C82",
"m c #015F89",
"M c #01628D",
"N c #08638C",
"B c #026592",
"V c #056996",
"C c #036C9B",
"Z c #016FA1",
"A c #0272A5",
"S c #0276AB",
"D c #0278AE",
"F c #037BB3",
"G c #037FBA",
"H c #0281BC",
"J c #0286C3",
"K c #0288C6",
"L c #0287CB",
"P c #028BCA",
"I c #018ED0",
"U c #0191D3",
"Y c #000000",
/* pixels */
"YYYYYYYYYYYYYYYYYYYYYYYYYYYYYYYYYYYYYYYYYYYYYYYYYYYYYYYYYYYYYYYYYYYYYYYYYYYYYY",
"YYYYYYYYYYYYYYYYYYYYYYYYYYYYYYYYYYYYYYYYYYYYYYYYYYYYYYYYYYYYYYYYYYYYYYYYYYYYYY",
"YYYYYYYYYYYYYYYYYYYYYYYYYYYYYYYYYYYYYYYYYYYYYYYYYYYYYYYYYYYYYYYYYYYYYYYYYYYYYY",
"YYYYYYYYYYYYYYYYYYYYYYYYYYYYYYYYYYYYYYYYYYYYYYYYYYYYYYYYYYYYYYYYYYYYYYYYYYYYYY",
"YYYYYYYYYYYYYYYYYYYYYYYYYYYYYYYYYYYYYYYYYYYYYYYYYYYYYYYYYYYYYYYYYYYYYYYYYYYYYY",
"YYYYYYYYYYYYYYYYYYYYYYYYYYYYYYYYYYYYYYYYYYYYYYYYYYYYYYYYYYYYYYYYYYYYYYYYYYYYYY",
"YYYYYYYYYYYYYYYYYYYY.. X................... .X X..........YYYYYYYYYYYYYYYYYYYY",
"YYYYYYYYYYYYYYYYYYY.XX.XXXX.XXX..X.XX.XX.XXX.XXXXXX.XXX.XXXYYYYYYYYYYYYYYYYYYY",
"YYYYYYYYYYYYYYYYYYOOXOXOOXOOOXOOXOXOOXOXOXXOXXOXOXOXXXOXXXOOYYYYYYYYYYYYYYYYYY",
"YYYYYYYYYYYYYYYYYY+++O+++++++++++++++++++++++#+++++#+++#++++YYYYYYYYYYYYYYYYYY",
"YYYYYYYYYYYYYYYYY###@%@%@@$$@$$$*@**@%*#@@@@@**#@@=@@*@@*@###YYYYYYYYYYYYYYYYY",
"YYYYYYYYYYYYYYYY#@@--;;;;;;;;;;;;;;<;;;;;;;>;;;;;;;;;;;;<--=#+YYYYYYYYYYYYYYYY",
"YYYYYYYYYYYYYYXO#*;>:6666666666655456446544455464455554544>;%#X.YYYYYYYYYYYYYY",
"YYYYYYYYYYYYY.XO#->58eeeeeee0ee0eeeeeeeeeeeeeeeeeeeeeeeee04>&@+X.YYYYYYYYYYYYY",
"YYYYYYYYYYYYXXO+@;:0euupuuuuuuuutuuuuuuuuuuutuuutttppttptt04;@+OOXYYYYYYYYYYYY",
"YYYYYYYYYYYYO++@&;5euppfppppppppppppppppppppppppsppppssppue5>@@#OOYYYYYYYYYYYY",
"YYYYYYYYYYY###*-;40eppsfssssspspsspspssssppssspsssssssffput84;-@###YYYYYYYYYYY",
"YYYYYYYYYY##%%;;48etupssssssssssppsssspsssssspssspspssspppte84>;;@##YYYYYYYYYY",
"YYYYYYYYX+@%->:50etupppsspppppppppppppppppsppppppppppssppuute8544;@@+XYYYYYYYY",
"YYYYYYYXX+@->50eetuppppppspsppppppspppsppppppppppsppsppsppputte844,@+OXYYYYYYY",
"YYYYYY.XX+@;4qttpppppsssfsssssssfsfsssfsssssffsssssssssspppppptt84;@#XX.YYYYYY",
"YYYYYY.XO+@;4etpsjfjjjjjjjjjjjjjfkkfjjjjjjjjjjjjjjjjjjjfjjjjffpte4;@OO..YYYYYY",
"YYYYYY.XX+@;6eppfjjzzcccczzzzczzczczzzzczzzczzczczzzbbzbbkkkjjsue4;@OOX.YYYYYY",
"YYYYYY..X#@;40usjzcbmmBmMMMMMMMMMMMMMMMMMMMMMMMMmBmBmmBmmmbbzjfue4;@+O..YYYYYY",
"YYYYYY.XX+#;40ufjbmBVCZACZCCZCCZCCCCCCCCCCZCCZZCCCCZZZZZZVBmbjfue4,@#XX.YYYYYY",
"YYYYYY.XX+#-4eufzmBCASDDDDDDDDDDDDDDFDSFDDDDDSDDDDDSDDDDSAZBbkfu04;@+X..YYYYYY",
"YYYYYY.XX+*;4epjbmCZFHHHHHHHHHHHHHHHGHHHHHHHHHHHHHHHHHHHGFACmbjue4>@+X..YYYYYY",
"YYYYYY..O#*;5rpkbCZDHHJPJPJJJJHJJJJHJJJJJKHJHKJHJJJJJJPHJGDABmkft5;@#XX.YYYYYY",
"YYYYYY.XO+*>qpjbBZSGJJPPPPPPPPPPPKKKPPPJPKPPPKPJPJJPPJPPJHGSZMbjaq>@+O..YYYYYY",
"YYYYYY XX#<4tgnBZADGJJPPPPIPPPPPPPPPPPPLPPPPKPPPPPJPPPPPLJGFSCMbhrw,*O..YYYYYY",
"YYYYYY .O#<9azBZSFGJJLLPPPIPPPPPPPPPPPPPPPPPKPPPJPPPJLJPPJHGFSZBva7,+O. YYYYYY",
"YYYYYY XO#<rgnCDFGJJJJPPPPPPPPPPKPJPPJPPKPKPKKPJPPJJPJPPJJJJGGSZngr1*O. YYYYYY",
"YYYYYY .X*1yhNAGHKKKKKHHHHHHHHHHJJHJJJJJJJJHJJPJJPJJPJJKJJJKJHHSNhy1*O. YYYYYY",
"YYYYYY .X*1ixVFJPPPPKKHHHHHHHHHHHHHHHHHHHGGHHHHHHJJJJJKJJKKPPPHDVxi3*O. YYYYYY",
"YYYYYY  O*wivVGJPUPPKHHHHVZVCZASDSDDDSSSSSSSDDFFHHJJJKJJKJPPIPPHCniw*O. YYYYYY",
"YYYYYY .O*wivAGLUUUIKKHSVNvvvNNVVCZCCCCCVCCCCCADFHJJJPJPJPPPIIJHCniw*O. YYYYYY",
"YYYYYY .O*wdnVJLUUUUKHHVnxddugkcMMMMMMMMbmbbmMVASFHPJPJJKKPPIIIHCniw#O. YYYYYY",
"YYYYYY .O*winVGLIUUIJHCNli722yugkzzcczkkzzzzzbMCAFHJPJPJKKLPPPPHVviw#O. YYYYYY",
"YYYYYY .X*1ixVFJLIIPHHVvd7,*&20upfkkkjkjjjfkkzbBADHJJJPJJJJLLLKFVlr1#+. YYYYYY",
"YYYYYY .O*1ylNSGGJJHHSNhy2&+$;6eufffjjjkjjjfjzbBADHJPPJPKJJJHGFSNhr1#+. YYYYYY",
"YYYYYYY.O*1rgvNVVSVVVNvdr1=%%>50upffjkkzzkzzzbMVAFHJPPPPKJHHFSCNxi7<#O..YYYYYY",
"YYYYYYYYO*<qiglxvnnvnhdiq6;;>:80upfkzbbMbMMbMMVASFJJKPPPKJHDVNnla71=#O..YYYYYY",
"YYYYYYYYYY<wqryiiiiiiiy79666680eupjkbMBCCCCCCZADFHJJPPIPKHFANxdy91=#OXX.YYYYYY",
"YYYYYYYYYYY,111111ww3www680eeeuupfkbMCAADDSSSDFFHHJKPPPLKHANxd7w,*#OOXX.YYYYYY",
"YYYYYYYYYYYY##@#*###*,,38eeuupppsjcMVAFHHHHHHHHHHJJJJKKJJGVnd7<*+OOOOXXXYYYYYY",
"YYYYYYYYYYYYOOOOOOOOO*,15euppfffjkbBADHHJPPHJHJJKJJJJJJHGSNly1*OXXXXXXXXYYYYYY",
"YYYYYYYYYYYYX.XXXOX+@@<w0epsfjjkzbMCAFHJPPPPPJPJKKKJGGFSVNxiw,+X.  .XXOYYYYYYY",
"YYYYYYYYYYYY    XO##-,>90epffzcbMBCAFHJPPPPJPPPPPKJJGSVNnhi7<*O.    XXYYYYYYYY",
"YYYYYYYYYYYY  ..O+%->680etpfjcbMVCDDHHJKPPPPPPPPPPKJDCNldr3<*+X.   XYYYYYYYYYY",
"YYYYYYYYYYYY ..O+$-:80etuupfkbBCADHHHJJJJJJJJJJPPPJHSNla71,*+OO.X  YYYYYYYYYYY",
"YYYYYYYYYYYY.OOO$-:8ttupppfjcmVSFHHJJJJKJPJPJJPPKKHFCng7,*o+OOOXOXYYYYYYYYYYYY",
"YYYYYYYYYYYYOO+*%>6eupsffffzbBZDHHJKKKJKJJJPJJJPJHHSVxa6=+ooo+++++YYYYYYYYYYYY",
"YYYYYYYYYYY#*##<;:8epsffkkcbMCAFHJPPPKKKPPJPJJJHHHDZNli6%@+@****###YYYYYYYYYYY",
"YYYYYYYYYY#@=,<165euufkkcbmBCSFHJPPPPKKKPJPJJJJGFSZVngi9>;%&,,;---%#YYYYYYYYYY",
"YYYYYYYYO+#@;>4980tupfkzbBCZSDGHHPPPPKPKKPPPPJGFACVnzgue56::2666>;<@+OYYYYYYYY",
"YYYYYYYXO+@->58ettuusfkbMCASFGHJKJKJKKKKKJPPJJFSVNnxjppte00eeee85>-#OOXYYYYYYY",
"YYYYYY..X+@;4qttuppssjzMVZHHHHHJJJKKJKJHJKKJJGSZBbzjppptuuuupuut04;@#XX.YYYYYY",
"YYYYYY.XO+@;4etpsfffkkbBZSHJPPPJKJHHHHHHHHHHGFACmcfspppppppppppue4;@+O..YYYYYY",
"YYYYYYXXX+@;40ppfjkkzbMCSHHPPPPKJJHHDHDDSDSSSACMbjspppppsssfffpue4;=+O..YYYYYY",
"YYYYYY XO+@;40pskkzbMMZASHHKPKPKKHHHSAZCCCCCCBmbzfppptpppssffppue5;@+XX.YYYYYY",
"YYYYYYXXO+#;4euskzMBVCAHHHJKPPKKPHHSZVBMmmmbmbczjfppuppuppsspspue4;@+XX.YYYYYY",
"YYYYYY XX+@;40pfkbMCSSHHHHHKKPPJJHDAVMbzzzzzzzjjfspppppppppsfppue4;@+O..YYYYYY",
"YYYYYY..O+@;4epfzMCSDHHHKHPKJPPPJHDABckkjfjjjjjjfsssssssfsffffpur5<*+OX.YYYYYY",
"YYYYYY.XX+=<6tskMBADHHKKPPHKJPJPHHDABMzkjjjjjjjjjjjjjjjjjjjkkkfpr91=+X..YYYYYY",
"YYYYYY.XO+=wqajbMZSFHPPPJPKJPKPJJHHVVNnvxkkzkzzkzzcczzcznvzcbczjpq>=#OX.YYYYYY",
"YYYYYY .OO,wrgbMZSFGJJJPPJJJJKPJKHHAAVNNnMbMMMMMMMMMMMMMNNBBBmmbjr6<#X. YYYYYY",
"YYYYYY..O*<wanNZSFGHJPPPJJJJKJJKJHHHFVCVCVCCCCCCCCCCCCCCVCCCZZCMvdq<#OX YYYYYY",
"YYYYYY .O*1rgmZSGGJJJJJJJPJPJKKJJHHHHFHSSSSSSDSSSDDDFDDDFFFFFFSCngr;#O. YYYYYY",
"YYYYYY .O*1ylNSGJJPJJJPJJKJKKJKJJJJJHHHHHHHHHFHHHHHHHHHFHHJHJJGSNlr1#OX YYYYYY",
"YYYYYY .O*1yvNFGKLPLJPJJKJKJJKJKKKJJKJJKHJJJJJJJJJHJJJJPJJJKKJHFVxiw#O. YYYYYY",
"YYYYYY .O*winVGLIILPPJPJKKJKKKPKKKKPPPPPPPPPPPPPPPPPPPPPPPPILPJGCviw*O. YYYYYY",
"YYYYYY .O*winCJLIIIPPPPPPPPPPPPPPPPPPPPPPPPUPPPIPPPIPPPLPIIUUULJZviw*X. YYYYYY",
"YYYYYY  O*wanVGIUUUPPPPPPPPPPPPPPPPPPPPPIPPPPIIPIPIPPPPUPIUUUUIGCniw*O. YYYYYY",
"YYYYYY .O*winCGLPUPPPKKKKPPPPPKPKKPPPPPKPPPPPPKKPPPPPKPPPPPIIPLJCvi3*O. YYYYYY",
"YYYYYY .O*1ixVFLPKHHHHHHHHHHHHHKHJJHJHHHJJHJJJJJHHJHHHHHHHHPKLHHVxi1*O. YYYYYY",
"YYYYYY .O*1rhNAFHHHHHHHHHDHDHDDHFFFHHFHFFFFFFFFFHHDHHDHHHHHHFHFSNhy1*O. YYYYYY",
"YYYYYYY.O*1rgvNVVVCVVVVVVVVVVVVVVVVVVVVVVVVVVVVVVVVVVVVVNNVVCCVNvdr1*O.YYYYYYY",
"YYYYYYYYO*<9idhxxxvvxxxxxxvlxxxxxxvxxxxxxxxxxxxxxlxxxvxxxxxxvvxhdi9<*OYYYYYYYY",
"YYYYYYYYYY,w7rriiyiiiyiiiiyiyiiiiyiiiiiiiiiiiiiiyyiyiiiyiiiiiyiyr7w<YYYYYYYYYY",
"YYYYYYYYYYY,<11wwwww13133333333313113331113111ww33333333331333311<<YYYYYYYYYYY",
"YYYYYYYYYYYY*********************=*=*****=*******=*=*=************YYYYYYYYYYYY",
"YYYYYYYYYYYYOOOXOOOOOOOOOOOOOOOOOXXOOOOXOOOOOXOOOOXXOOXOOOXXOOOOXOYYYYYYYYYYYY",
"YYYYYYYYYYYYY....................................................YYYYYYYYYYYYY",
"YYYYYYYYYYYYYY                                                  YYYYYYYYYYYYYY",
"YYYYYYYYYYYYYYYYYYYYYYYYYYYYYYYYYYYYYYYYYYYYYYYYYYYYYYYYYYYYYYYYYYYYYYYYYYYYYY",
"YYYYYYYYYYYYYYYYYYYYYYYYYYYYYYYYYYYYYYYYYYYYYYYYYYYYYYYYYYYYYYYYYYYYYYYYYYYYYY",
"YYYYYYYYYYYYYYYYYYYYYYYYYYYYYYYYYYYYYYYYYYYYYYYYYYYYYYYYYYYYYYYYYYYYYYYYYYYYYY",
"YYYYYYYYYYYYYYYYYYYYYYYYYYYYYYYYYYYYYYYYYYYYYYYYYYYYYYYYYYYYYYYYYYYYYYYYYYYYYY",
"YYYYYYYYYYYYYYYYYYYYYYYYYYYYYYYYYYYYYYYYYYYYYYYYYYYYYYYYYYYYYYYYYYYYYYYYYYYYYY",
"YYYYYYYYYYYYYYYYYYYYYYYYYYYYYYYYYYYYYYYYYYYYYYYYYYYYYYYYYYYYYYYYYYYYYYYYYYYYYY"
};
