/* XPM */
static char *_[] = {
/* columns rows colors chars-per-pixel */
"78 90 72 1 ",
"  c #150D0A",
". c #15110F",
"X c #141414",
"o c #121813",
"O c #141618",
"+ c #121A1D",
"@ c #0F201F",
"# c #0F1F26",
"$ c #111D23",
"% c #0F2027",
"& c #0E232B",
"* c #0E292D",
"= c #122027",
"- c #12222A",
"; c #102B2F",
": c #0D2632",
"> c #0C2835",
", c #0B2C3B",
"< c #112630",
"1 c #102A34",
"2 c #102E3C",
"3 c #10303E",
"4 c #092F40",
"5 c #093243",
"6 c #0E3845",
"7 c #06374C",
"8 c #0C3649",
"9 c #05384F",
"0 c #0C394D",
"q c #103140",
"w c #053B52",
"e c #0C3D54",
"r c #033F59",
"t c #0D4057",
"y c #02425D",
"u c #0D425A",
"i c #004665",
"p c #0A4661",
"a c #004867",
"s c #0B4966",
"d c #004A6A",
"f c #0A4C6B",
"g c #00506D",
"h c #004E70",
"j c #015174",
"k c #0A5273",
"l c #01557B",
"z c #0A5679",
"x c #01587F",
"c c #09587D",
"v c #025C84",
"b c #095B81",
"n c #015F89",
"m c #01618D",
"M c #08638D",
"N c #026592",
"B c #046996",
"V c #036C9B",
"C c #026FA1",
"Z c #0272A5",
"A c #0276AB",
"S c #0278AE",
"D c #037BB3",
"F c #037EBB",
"G c #0281BC",
"H c #0286C3",
"J c #0289C6",
"K c #0287CB",
"L c #028BCA",
"P c #018ED0",
"I c #0190D2",
"U c #000000",
/* pixels */
"UUUUUUUUUUUUUUUUUUUUUUUUUUUUUUUUUUUUUUUUUUUUUUUUUUUUUUUUUUUUUUUUUUUUUUUUUUUUUU",
"UUUUUUUUUUUUUUUUUUUUUUUUUUUUUUUUUUUUUUUUUUUUUUUUUUUUUUUUUUUUUUUUUUUUUUUUUUUUUU",
"UUUUUUUUUUUUUUUUUUUUUUUUUUUUUUUUUUUUUUUUUUUUUUUUUUUUUUUUUUUUUUUUUUUUUUUUUUUUUU",
"UUUUUUUUUUUUUUUUUUUUUUUUUUUUUUUUUUUUUUUUUUUUUUUUUUUUUUUUUUUUUUUUUUUUUUUUUUUUUU",
"UUUUUUUUUUUUUUUUUUUUUUUUUUUUUUUUUUUUUUUUUUUUUUUUUUUUUUUUUUUUUUUUUUUUUUUUUUUUUU",
"UUUUUUUUUUUUUUUUUUUUUUUUUUUUUUUUUUUUUUUUUUUUUUUUUUUUUUUUUUUUUUUUUUUUUUUUUUUUUU",
"UUUUUUUUUUUUUUUUUUUU.. X..................X X  ...........UUUUUUUUUUUUUUUUUUUU",
"UUUUUUUUUUUUUUUUUUU.XX.XXXX.XXX.XX.XX.XX.XXXXXXXXXX.XXX.X.XUUUUUUUUUUUUUUUUUUU",
"UUUUUUUUUUUUUUUUUUOOXOOOOXOXXOXXXXXXOOXXOXOXXXOXOXOOOXOOXOOXUUUUUUUUUUUUUUUUUU",
"UUUUUUUUUUUUUUUUUU+++O+++++++++$+++++++++++++$++++++++++++++UUUUUUUUUUUUUUUUUU",
"UUUUUUUUUUUUUUUUU$###%%%########=$--%%##################-$#$$UUUUUUUUUUUUUUUUU",
"UUUUUUUUUUUUUUUU$##::>>>>>>>>,>>>>>>>>>>>>>,>>>,>>>>>>,><1:&$$UUUUUUUUUUUUUUUU",
"UUUUUUUUUUUUUUXO$#>,45555555454555455545555555445455554544,>%$OXUUUUUUUUUUUUUU",
"UUUUUUUUUUUUU.XO$:,57wwwwwwww9wwwwwwwwwwwwwwwwwwwwwwwwwww75,:$OX.UUUUUUUUUUUUU",
"UUUUUUUUUUUUXXO+#>47rriririrriyyyyyyryyyryyrrriryryyyiyyyr94>%+OX.UUUUUUUUUUUU",
"UUUUUUUUUUUUO++#&,7wriiaiiiiiiiiiiiiiiiiiiiiaiiiiiiiiaiiiyw5,&#++OUUUUUUUUUUUU",
"UUUUUUUUUUU$$$#&,47riiiddaiaaiaiaaiaiaaaididiaaiaaaaaaaaair74>:#$$$UUUUUUUUUUU",
"UUUUUUUUUU$$&&:,,7wryiaaaaiaiaaaiiaaaaiiiiiiaaiiaiaiaaaaiir974,>>#$$UUUUUUUUUU",
"UUUUUUUUX+##>,477wrriiiaiiiiiiiiiiiiiiiiiiiiiiiiiiiiiaaaiirrw744,>#$+XUUUUUUUU",
"UUUUUUUXX+#:,57wrryiiiiiiiiiiiiiiiiiiiiiiiiiiiiiiiiiiaiaiyirrrw95,1#+OXUUUUUUU",
"UUUUUU.XO+#>,7ryiiiaiaadddidididaaaddaaadadiddddaaaaaaaaaiaiiirr74>#$XX.UUUUUU",
"UUUUUU.XX+#>5wriahdddhhhhdhhhhhhhhhhhdhhhhhhdhdjhhhhhhhdhhhhddirw4>#$X..UUUUUU",
"UUUUUU.XO+#>5wyadhhllxxxxxlxxlxxxxxxxxlxlxxlllxxxxxxxxxxlljhhhaiw4>#OX..UUUUUU",
"UUUUUU..X+#>4wydhlvvnnmmmmmmmmmmnmnnmmnmmmmmmmmmnmnmnNnNnnvvlhar94>#$XX.UUUUUU",
"UUUUUU.XX+$>4wydhvnmBVVVCVCVVVVVCVVVVVVVVVCVVVVVCVVVVVZVCBNnvhdy94>#$X..UUUUUU",
"UUUUUU.XOO=:,wydlnNVZADDSSSSSSSSSSASDSSDAASSSDSSSSSADDSSAZCNvjai94>$+XX.UUUUUU",
"UUUUUU.XO+#>4wpdvnVZDFGGGGGGGGGGFFGFGFGGGGGGGGGGGGGGGGGGFDZVnvhi94>#+X..UUUUUU",
"UUUUUU..X$=>5rdjvBCDGHHHHHHHGHHHHHHHGHHHHHHHHHGHHHHHHJJJHFSCNnhir8>#$XX.UUUUUU",
"UUUUUU.XO+-,ephvNCSDHHJLLJJJJJJJJLJLLJJLJJLJLJJJJJJJJLLJJGFZCNvhp0,<OO..UUUUUU",
"UUUUUU XO$-5edvNCZDFHKLLLLJLJLLLLLLLLLLLLLLLLLLLJLJJJLLJJHFDZCNvfe4<=O..UUUUUU",
"UUUUUU .O$<8pzNCADFGHHLLJJJJLJLLLLLLLLLLLLLLLLLLJJJLJLJJJHHFDSVNcs6<=O..UUUUUU",
"UUUUUU XO$>efnVSDGHHHHJJJJJJJJJJJLJJLJLJLJLJJJJJJJJJJJJJJHHHFDSVbfe<=O. UUUUUU",
"UUUUUU .O=2tkMAFGJHHHHHHJHJHHHHHHHGHHHHHGHHGHHHHHJHHJHJHHHHJHGGAMkt2=O. UUUUUU",
"UUUUUU .O=2uzMDFLLLJLHJHHJHHHHGGGGGGGGGGGFGGGGGGGHHJHJHJHJHLLJGDBztq=O. UUUUUU",
"UUUUUU .O=qubBFKPPPLLHLLLLHHGGGSAAAAAAAAAAAAASDFGGHHJHJHJHLLLLHGBcu3=O. UUUUUU",
"UUUUUU .O-qubVHKIIPLLLLLLLLLGGAACVVBBVVBVVVVVCZAGGGHHJJJHJLLPLHSBcu3=O. UUUUUU",
"UUUUUU .O=qubVHKIIIPLLLLLLLHGACBmmnnmmvmmvvvmmBZAGGLHLHHHJLLLLHGVcu3-O. UUUUUU",
"UUUUUU .O=qubVFKLIPLLLLLLLLGGABmvllljlljlllllvmBZSGHLHLHJHJLLLGDBzuq$O. UUUUUU",
"UUUUUU .O=quzMDHJGGJGGJGJGGGSCNvlhhddhjghddjjjmNCSGHHLHJHJJLLLGGBzu3=O. UUUUUU",
"UUUUUU .O=2tkMADGGGGDSGSGGSACBmxjjhhhhjhjdjdjlvNCSGHLHLHGJJLLJGDBzuq=O  UUUUUU",
"UUUUUUU.O=2escMBBVVBBBBVVVBBMMmxxllljjljljjllvmBZDGHJJJJJJLLLLHGBcu3=O. UUUUUU",
"UUUUUUUUO=10ufkzccccczzzzzzzcccmnnnnmmmmmvmmmmBCAGGHJLJJJJLPLLGGBcuq=O. UUUUUU",
"UUUUUUUUUU1300tuttututuuttuufkcmNVVVCVVBVBBBVCZADGGJJJJLLJLLIJGGBcu2=O. UUUUUU",
"UUUUUUUUUUU11222333222221336ufcBVASDSSAAAAAAASDGGGHHJJJJHLLLLJGGVcuq=O. UUUUUU",
"UUUUUUUUUUUU=$==$---=-=+@@@;qsbBSFGGGGGGGGGGGGGGGHHHHHHJHHHLJLGGVzu2$O. UUUUUU",
"UUUUUUUUUUUU$$$$$$+$+++oooo;qsbVDGJLLLHHHGHHHGHHJHHHHGGGGGGGGGGDMke2#O. UUUUUU",
"UUUUUUUUUUU$$$$$$$$$===O+++;0sbZFHLLLLHHLJJJJHJHJJHHGGFDSSSDDDABbf02$O. UUUUUU",
"UUUUUUUUUU$##&&&::-;-<;-%&>3eknCGHPPPLLLJLJJJLLJJJJGGDAZVVVVVVBMzp81$OX.UUUUUU",
"UUUUUUUUOO$<<,,4444444,,,,49pzNAGJLPLLJLJJJJJJJJLJHGFACBmmmnmmvxfr41$X..UUUUUU",
"UUUUUUUXOO$<24799ww9997799wrdvBAGLLLLLHJJHJJJJJJJJHGSABmvlllllldp0q&$X..UUUUUU",
"UUUUUU..O+-147rrirrirryrrriijnVAGGLLLHHJJHHJHJJJLJHGSZNvjgjhjjddr82-$XX.UUUUUU",
"UUUUUU.XOO=149riiaaaaiiiiiadjnBZSGGGHHHHHJJHJHJJJJHGSZBvlggjhjhde82-OXX.UUUUUU",
"UUUUUU.XX$#>5wyidddaaiiiiiahlvmVZSGGGGHHJJJJJJJLJJHGDABmvxlllljds02-=X..UUUUUU",
"UUUUUU..X$#>5wyiaaaaaiiiiiadhlnmBZAAGGHLLJLJJJJJJJJGGACBmnnmmmmxstq<OX..UUUUUU",
"UUUUUU.XX$#>4wyiaaaiiiiiiyiadjlvmmBZAGHJLLLLJJJJLJHGGSAAVVVVVVBmzs6<=O..UUUUUU",
"UUUUUU..X+#>4wriaaaaiiiiiiiaddhjlmmVAGGHJLJJJJJJHJHHGGDSSSSDDSAVMst<=O..UUUUUU",
"UUUUUU.XX$#,5eyiddddddaaddddadddgjvNCAGGJJHHHHHHJHHHHGGGGGGHGGFSMcuq=X. UUUUUU",
"UUUUUU..X+#17rahhhhhhhhhhhdddddadjlmBASGGGGGGGGGGHHHJJHHHHHLLJHDMzuq=X. UUUUUU",
"UUUUUU.XX$#4ephlvxvxxxxxxxlljhddadjxmVZASSSAASDFGGHJJJJJHJLLLLHDBcuq=O. UUUUUU",
"UUUUUU XX$15rfvnmNmmnmnmmmmvvlhdaadjxmNVVVVVVVZSDGGHJJLJLJLLPLKDBzuq=O. UUUUUU",
"UUUUUU..O$18pcNVVZCCVVVCVVVVmvjdaiddjvvmmvmnmmBZSGGHJJLJJJLLLLKDBcuq=O. UUUUUU",
"UUUUUU .O$1efvVADDDSSSDSDSSZVmvjdaaddjljlljllvmVZDGHJJJJJJLLLLHDVzuq=O. UUUUUU",
"UUUUUU .O$qekMADGHGGGGGGGGFDABmlhddddjdjjddjjjvNZSGHJJJJJJJLLJHDVcu2=O. UUUUUU",
"UUUUUU XO#qezBDHJLLJHHHJJJGFSVNvjjjdddhjjdjdjlvNZSGHJJJJHHJLLLGDMzu2=O. UUUUUU",
"UUUUUU .O-qubBFKKPPJJJJJLJJGGAMMMczkzzlllllllvmBASGHLHLHHJJJPJHDMbuq=O..UUUUUU",
"UUUUUU .O-qubVHKPPPPLJLLLLJHGAAVMMMMmmnnvvvvmmBCAFGHHLJHJJJLPPHFBcuq=O. UUUUUU",
"UUUUUU  O-qubVHKPPPJJJJJLJJHGGDZBBMMBVVVVVVVVCAADGGHHLHJJJJJPPJFVbuq=O. UUUUUU",
"UUUUUU .O-qubBFKLPPJJJJJJJJHGGGDDGGAAASAAAAAASSGGGHHHHJHJJJKLLKGVbuq=X. UUUUUU",
"UUUUUU .O=2ezMDHJLJHHHJHJGJJGGGGGGGGGGGGFGGGGGGGHGHHHHJHHJJJKHKDMzt2=O. UUUUUU",
"UUUUUU .O=2tkMAFGGHGHJJJJJJJJJJJJJHHHHHJHGHHHGHHHHLHLHHLHHHHFFDDMkt2=O. UUUUUU",
"UUUUUUU.O=2tsbMVZDGGHJJJJJJJJLJJLLLLJJLLLLLLLLLLLLLHHLLLHHGFDZBMcst2=O.UUUUUUU",
"UUUUUUUUO=<qeskcMBAGHJLLLLLLLLLLLLLLLLPLLLLPLLLLLLLLLLLLJHFABMbkstq<=OUUUUUUUU",
"UUUUUUUUUU<2q0uszMMDHLPLPLLLLLLPLLPLPLLLPLLLPLLLLLLLLPPPLGDBMksutq2<UUUUUUUUUU",
"UUUUUUUUUUU-1130uzMDGJLLPLJJLLJLJJLLLLJJLLLJLKLKLLLLLLLLJGAMzu62<<-UUUUUUUUUUU",
"UUUUUUUUUUUU+$-16sbMDHKJJGGGGGGJGGJJJGGGJHHGHHHHJGGGJJJJHFBcs01-=OUUUUUUUUUUUU",
"UUUUUUUUUUUU.XO-qukMADGHGDGDGDDGDDGGGGGADGDDDDDDGSSGDDGGDAMkuq-OX.UUUUUUUUUUUU",
"UUUUUUUUUUUUU X$1tsbMMBBVBBMMMBBMBBMVMBMMMMVMBBBBBBBBVBVMMbs01=X UUUUUUUUUUUUU",
"UUUUUUUUUUUUUU +<qtskzccccczzzzczzccczczzzcczzbzzkzkcccczksuq<O.UUUUUUUUUUUUUU",
"UUUUUUUUUUUUUUUU-2qtttuuuuuuutuutuuuuutuutuutuuuuuuutuuuuttq2-UUUUUUUUUUUUUUUU",
"UUUUUUUUUUUUUUUUU<<1333qqq22qqqq2qqqqqq2qqqqq2qq333333332211<UUUUUUUUUUUUUUUUU",
"UUUUUUUUUUUUUUUUUU==========================================UUUUUUUUUUUUUUUUUU",
"UUUUUUUUUUUUUUUUUUOOOOOOOOOOOOOOOOOOOOOXOOOOXXOOOOOOOOOOOOOOUUUUUUUUUUUUUUUUUU",
"UUUUUUUUUUUUUUUUUUU........................................UUUUUUUUUUUUUUUUUUU",
"UUUUUUUUUUUUUUUUUUUU                                      UUUUUUUUUUUUUUUUUUUU",
"UUUUUUUUUUUUUUUUUUUUUUUUUUUUUUUUUUUUUUUUUUUUUUUUUUUUUUUUUUUUUUUUUUUUUUUUUUUUUU",
"UUUUUUUUUUUUUUUUUUUUUUUUUUUUUUUUUUUUUUUUUUUUUUUUUUUUUUUUUUUUUUUUUUUUUUUUUUUUUU",
"UUUUUUUUUUUUUUUUUUUUUUUUUUUUUUUUUUUUUUUUUUUUUUUUUUUUUUUUUUUUUUUUUUUUUUUUUUUUUU",
"UUUUUUUUUUUUUUUUUUUUUUUUUUUUUUUUUUUUUUUUUUUUUUUUUUUUUUUUUUUUUUUUUUUUUUUUUUUUUU",
"UUUUUUUUUUUUUUUUUUUUUUUUUUUUUUUUUUUUUUUUUUUUUUUUUUUUUUUUUUUUUUUUUUUUUUUUUUUUUU",
"UUUUUUUUUUUUUUUUUUUUUUUUUUUUUUUUUUUUUUUUUUUUUUUUUUUUUUUUUUUUUUUUUUUUUUUUUUUUUU"
};
