/* XPM */
static char *_[] = {
/* columns rows colors chars-per-pixel */
"78 90 68 1 ",
"  c #150C07",
". c #150D0A",
"X c #15110F",
"o c #141313",
"O c #131813",
"+ c #141618",
"@ c #121A1D",
"# c #0F1E25",
"$ c #111E23",
"% c #0F2027",
"& c #0F222A",
"* c #122027",
"= c #11242C",
"- c #102B2F",
"; c #0D2632",
": c #0C2835",
"> c #0C2D3B",
", c #112630",
"< c #102934",
"1 c #102F3D",
"2 c #10303F",
"3 c #092F40",
"4 c #093244",
"5 c #06374C",
"6 c #0C374A",
"7 c #05384E",
"8 c #0E394D",
"9 c #103140",
"0 c #053B52",
"q c #0C3D53",
"w c #043F59",
"e c #0D4057",
"r c #02425D",
"t c #0D425A",
"y c #004664",
"u c #0A4662",
"i c #004867",
"p c #0B4966",
"a c #004A6A",
"s c #0A4C6A",
"d c #004F71",
"f c #015174",
"g c #0A5274",
"h c #01567C",
"j c #0A5679",
"k c #00587F",
"l c #09587D",
"z c #025A82",
"x c #095C82",
"c c #045F88",
"v c #01628D",
"b c #08638D",
"n c #026591",
"m c #066996",
"M c #056B9A",
"N c #016FA1",
"B c #0272A4",
"V c #0376AC",
"C c #0278AE",
"Z c #037BB3",
"A c #037EBC",
"S c #0281BC",
"D c #0286C3",
"F c #0288C6",
"G c #0287CB",
"H c #018BCA",
"J c #018FD0",
"K c #000000",
/* pixels */
"KKKKKKKKKKKKKKKKKKKKKKKKKKKKKKKKKKKKKKKKKKKKKKKKKKKKKKKKKKKKKKKKKKKKKKKKKKKKKK",
"KKKKKKKKKKKKKKKKKKKKKKKKKKKKKKKKKKKKKKKKKKKKKKKKKKKKKKKKKKKKKKKKKKKKKKKKKKKKKK",
"KKKKKKKKKKKKKKKKKKKKKKKKKKKKKKKKKKKKKKKKKKKKKKKKKKKKKKKKKKKKKKKKKKKKKKKKKKKKKK",
"KKKKKKKKKKKKKKKKKKKKKKKKKKKKKKKKKKKKKKKKKKKKKKKKKKKKKKKKKKKKKKKKKKKKKKKKKKKKKK",
"KKKKKKKKKKKKKKKKKKKKKKKKKKKKKKKKKKKKKKKKKKKKKKKKKKKKKKKKKKKKKKKKKKKKKKKKKKKKKK",
"KKKKKKKKKKKKKKKKKKKKKKKKKKKKKKKKKKKKKKKKKKKKKKKKKKKKKKKKKKKKKKKKKKKKKKKKKKKKKK",
"KKKKKKKKKKKKKKXXXXXXXo.oXXX.KKKKKKKKKKKKKKKKKKKKKKXXXXX.XXXXXXXXKKKKKKKKKKKKKK",
"KKKKKKKKKKKKKooooXooXooooooooKKKKKKKKKKKKKKKKKKKKooooooooooXoooooKKKKKKKKKKKKK",
"KKKKKKKKKKKK++oo+o+o+oo+oo++ooKKKKKKKKKKKKKKKKKK+ooo+o+ooo+o++o+o+KKKKKKKKKKKK",
"KKKKKKKKKKKK@@@@@@@@@#@@@@@@@@KKKKKKKKKKKKKKKKKK@@@#@@@#@@@@@@@@@@KKKKKKKKKKKK",
"KKKKKKKKKKK$$##%%%%###%%%%%%%##KKKKKKKKKKKKKKKK$###&####***%%#####$KKKKKKKKKKK",
"KKKKKKKKKK$*&;:::::::::::::::&&#KKKKKKKKKKKKKK$#&:::::::<::::::::&#$KKKKKKKKKK",
"KKKKKKKKo@#%:>44444444444443>:&#@oooXoooooXoo@$;:>44444444444444>:&#@oKKKKKKKK",
"KKKKKKKo+@#:>4500000000000054>:#@oXoooooooXoo@$,>4770000000000074>:#@+oKKKKKKK",
"KKKKKK.oo@#:350ryrrrrryryrr074:%@+ooooooooXX+@*:47wwywywwyywwyww53<#@+oXKKKKKK",
"KKKKKKoo+@#:40wyyayyyyyyyyyr04:%@oooXoooooooo@*>47wyiyyyyyyiiyyw04:#@oooKKKKKK",
"KKKKKKXoo$#:30riaaaiiiiiaiyr04:&@ooXooooooXoo@%:40riiaiiiiiiidyr03:#$+XXKKKKKK",
"KKKKKKXo+@#:30wyiiiiiiiiiayr04:%@oooXoo+oXoo+@%:40wyiaaiiiiiiiyr04:#++oXKKKKKK",
"KKKKKKXoo@$:30ryiaiiyiiiiiyr04:%@ooXoooooXooo@%:40ryiiiiiiyiiiyw04<*$+XXKKKKKK",
"KKKKKK.oo$#:40ryiiiiyiiiiiyr04:%@+oXoooooooo+@%:40wyiiiiyyiiiiyrq9<*++XXKKKKKK",
"KKKKKKXo+@#:30yiiaiiiiiaaayr04>%@+oXooooooXo+@*:4wyyiaaaiiiiiiiye9<*++XXKKKKKK",
"KKKKKKXoo@=>6wyaffddddddfdaar6>%@+oooooooXXo+@%>5wydddddddddffdyt91**++XKKKKKK",
"KKKKKK.oo$=90udhzzzzhzzzzkhfy81=@oXXoXoooXXo+@=10ydhzzzzzzzzzzhdte2*++XXKKKKKK",
"KKKKKKXX+$,4qdzcvvnvcvvvnvvzat4-$oX.XXXoXX.Xo$=4wsxcnncvvcvvvvczgt9,*+X.KKKKKK",
"KKKKKK.X+$<8ujbMNNNNMNNNNNMvhu6;@oX.XXoXXX.Xo@<6thvMNNMBNNMNNNMnlt8,*+XXKKKKKK",
"KKKKKK.o+$<8gxNVZZZZCVZZZZVMbse<*oXXXXooXXXXo#:qsbNBCZACVVZZZZVNbpe<*+X.KKKKKK",
"KKKKKK.X+*1qgbZZSDAASSSSDSAVmgt1*+oooooooXXX@%>thmVSSDDSAAAADSZCbje1*+..KKKKKK",
"KKKKKK.o+*2tjmZDFGGGDDFHHFSCNlt6=$+o++@@@++O@&6ulMZSFHDDDDDGFGAAmje2*+X.KKKKKK",
"KKKKKK..+*2tjMZDHHHHHHHHHHDSMbs8:&##$$*%%###&>8sbBSSHHHHFHHHHHHAmxe9*+..KKKKKK",
"KKKKKK.X+*9tlMZDHHHHFHHHHHSSMbst4>&:;;::::;;>4egbMSFHJJHHHHHHHDZmxe9*+X.KKKKKK",
"KKKKKK.X+*9tjMZDJJHHFFHHHHHAVbhi053334444>>440phbBSSHHHHFFHJHHDZMjt2*+X.KKKKKK",
"KKKKKK.X+*1tjMZDHHHHFFFHHHFSVmzsr07700000777erszmVSFFHHFFFHHHFDZmjt2*+X.KKKKKK",
"KKKKKK.X+*2tjmZDHHHFFHFHHHSSCMvfarwwwwrrwwwwwifcMVAFFFHFDFFHHHDCmjt2*+X.KKKKKK",
"KKKKKK.X+*2ejmZDHHHFSSFHHHSSCMvhaiyryyyyryyyidzcMCADFHFFDDFHHFDZmjt2*+X.KKKKKK",
"KKKKKK.X+*2tjmZSHHHFHFSHSHSSCMvkfiyyyyyyyyyyidhnMCADFFFFFFFHHFSZmje2*+X.KKKKKK",
"KKKKKK.X+*2tjmZDFHHHHSFHHHSSSMvhdayyyyyyyyryidhcMCSSFFFFDDFHHFDZmlt1*+X.KKKKKK",
"KKKKKK.X+*2ejmSSHHHFFSHFHHSSSbllayyyyyyyyyyyaahvNCSSFHFFFFFHHHDCmle2*+..KKKKKK",
"KKKKKK.X+*2tjmZSFHHFHSHFSHSSSmbldyyyyyyyyyryydhvMVADFFFFSFFHHHDZmjt1*+X.KKKKKK",
"KKKKKK.X+*2ejmZDHHHFFFFFFHHSMmbldaiyyiyiayyiadzvNVSDFFFFFFFHHHSZmlt2*+X.KKKKKK",
"KKKKKK.X+*2tjmZSHHHFHSFFFHSSSSblhdadaaddadaadhznBZSDFFFFFFHHHHSZmle2*+X.KKKKKK",
"KKKKKK.X+*2tjmZSFHHFSFSHDFFZZSbbzzhhhhkhhfhhkzvMBZSDFFFFFSFHHHSZmle1*+X.KKKKKK",
"KKKKKK.X+*2ejmZDHHHFHFFHDFDDSSSbnvccvvvvvvcvvnMBCSSDDFFDFFFHHHSZmlt2*+X.KKKKKK",
"KKKKKK.X+*1tjmZDHHHFFHSHFDDDSSbmNNMMMMMMNMMMMBBVSSDFFFDFFFFHHHDZmle2*+X.KKKKKK",
"KKKKKK.XO*2tjmZDFHHFFSFFDDDDSSSSCCCCCCCVVVCCCZZSSSSDDDFDFSFHHHSZmle2*+X.KKKKKK",
"KKKKKK.X+*2tjmSSHHHFSSHFDFDDFAAAASASASSSSSASSSSSSSDHDDFFDDHHHHSSmle2*+X.KKKKKK",
"KKKKKK.XO*2tjbSSHHHFHFSFDFDDFFFDDFDDDSDDDDDDDSDDDDDDHDDDFDFHHHSZmje2*+X.KKKKKK",
"KKKKKK.XO-2tjmSSHHHHHSHFDDDDFDFFFFFFFFFFFFFFFFFFDDDDDDDFDDFHHFSSmle1*+X.KKKKKK",
"KKKKKK.XO*2tlMSFHJHHFFHSDDFDFFFFFGFFFFHFFFHFFFFFHHDDDDDDDFFHHFSZmle2*+X.KKKKKK",
"KKKKKK.Xo*2txMDFHJHHFFDDDDDFFDFFFFFFFFFFFFFFFFFFDDHDDDDDHDHHHHSSmle2*+X.KKKKKK",
"KKKKKK.X+*2tjMAGHHHHFFFDDFDDDFFDFFFFFFFFFFFFFFDFDDDDDDDDDDDHHHSVmje2*+X.KKKKKK",
"KKKKKK.X+*2ejmZDFFFFFDFDFDDFDDFFDFDDDDDFFDDDDDFDDDDDDHDDDDHHFFSSmle2*+X.KKKKKK",
"KKKKKK.X+*1egbBAAADAFDFDDDFDFDFFFDFDDFFFFDFDDFFFDHDDDDDDDHDHFFSSmjt2*+X.KKKKKK",
"KKKKKKKXo*1epjbmZZZADFFFFFFFFFFFFFFFFFFFFFFFFFFFDDDDDDDHFHFHHHFSmlt9*+X.KKKKKK",
"KKKKKKKK+*,9epgxbmZZDFJHHFHHHHHHFFHHHHHHFFHHHHFFDHDHDDDDSSFHHFSVmjt9*+X.KKKKKK",
"KKKKKKKKKK,198epjbMZAHJJHJHHHHHHHHHHHHHHHHHHHHFDHHDDDDDDHFHHHHSSmje2*+X.KKKKKK",
"KKKKKKKKKKK,<<28tjbMAFGJHHHHHHFHHHFHHFHHHFHHFFFDDDDDHDDDSFFHHSSSmje2*+X.KKKKKK",
"KKKKKKKKKKKK+**<8pxmAAGGDDDDSSDDDDSSDSSSSSDSSSSSFFFFFFFFFFFHHHSSmjt9*+X.KKKKKK",
"KKKKKKKKKKKKXo+*9ejbZAAAZZZZSZSSSSSSSSSSSSSSSSSSSSSFFFSFFFFFHHSSmjt9*+X.KKKKKK",
"KKKKKKKKKKKKKXo*18pjxbmmmMmmbbmmbmmmMmxbmMmmbMSSSSSFFFFFSFFHFFSSmje1*+X.KKKKKK",
"KKKKKKKKKKKKKKX+,9epgjlllljjjjjjggjjljljljjjgllmMSSSFFFFHFFHHFSVmjt1*+X.KKKKKK",
"KKKKKKKKKKKKKKKK*198eettttteeeteeetttttttttetpjxmSSSFHFFFFFHHHSSmjt9*+X KKKKKK",
"KKKKKKKKKKKKKKKKK,1122222222999999999999111198tjbBSSFHFFFFFHHFSSmjt9*+X KKKKKK",
"KKKKKKKKKKKKKKKKKK***********************+*O*-8plMSSFHFFFSFHFFSSmjt1*+XXKKKKKK",
"KKKKKKKKKKKKKKKKKK+++O+++++O+++++++++OOOOXOOO*9plbSSFHHFFFFFFSSSmle9*+X KKKKKK",
"KKKKKKKKKKKKKKKKKKKXXXXXXXXXXXXXXXXXXXXXX..XX@1tjmZDFHHFFDFFHFSSbje2*+XXKKKKKK",
"KKKKKKKKKKKKKKKKKKKK X   X  X   ...XXXXXX   X@1ejmZSFHHFDDFFHHSZmje2*+X.KKKKKK",
"KKKKKKKKKKKKKKKKKKKKKKKKKKKKKKKKKKXXXXXXX. .o*2tjMZDHHHFFFFHHFDZmje2*OX.KKKKKK",
"KKKKKKKKKKKKKKKKKKKKKKKKKKKKKKKKKKKXXXXXX.XXo*2tlmZDHHHFFFFHHHDSmjt2*OX.KKKKKK",
"KKKKKKKKKKKKKKKKKKKKKKKKKKKKKKKKKKKKooooXXXX+*9tlmZSHHHFFFFHGFDZmje2*+X.KKKKKK",
"KKKKKKKKKKKKKKKKKKKKKKKKKKKKKKKKKKKKo+ooXXXo+*9tlmZDFHHHFFFFFFDZmjt2*+X.KKKKKK",
"KKKKKKKKKKKKKKKKKKKKKKKKKKKKKKKKKKKKoooooXXX+*1tlMZDHHHHFFHGGGDZMjt2*+X.KKKKKK",
"KKKKKKKKKKKKKKKKKKKKKKKKKKKKKKKKKKKK+o+oXXXX+*2txMSFJJJHHFJJJJFAMxt2*+X.KKKKKK",
"KKKKKKKKKKKKKKKKKKKKKKKKKKKKKKKKKKKKoooooXXX+*9txMSHJJJJHHJJJJFSMlt9*+X KKKKKK",
"KKKKKKKKKKKKKKKKKKKKKKKKKKKKKKKKKKKK+ooooXXX+*9txMSGGGJHFHHHGGGSMlt9*+X.KKKKKK",
"KKKKKKKKKKKKKKKKKKKKKKKKKKKKKKKKKKKKooooXXXX+*1tjmZDGFFDSDDFGGDZbjt9*+X KKKKKK",
"KKKKKKKKKKKKKKKKKKKKKKKKKKKKKKKKKKKKoo+ooXXo+*1egbVAAAAAZZZSAAZZbge1*+X KKKKKK",
"KKKKKKKKKKKKKKKKKKKKKKKKKKKKKKKKKKKKKooooXXX+*1epxbbMMmmmmmMMMbbxp81*oXKKKKKKK",
"KKKKKKKKKKKKKKKKKKKKKKKKKKKKKKKKKKKKKK+ooXXXo*<8tpgjjxjxjjjjlljgpt81*+KKKKKKKK",
"KKKKKKKKKKKKKKKKKKKKKKKKKKKKKKKKKKKKKKKKKKKKKK<28eeetttteetttttee81,KKKKKKKKKK",
"KKKKKKKKKKKKKKKKKKKKKKKKKKKKKKKKKKKKKKKKKKKKKKK<<1111111222292221<,KKKKKKKKKKK",
"KKKKKKKKKKKKKKKKKKKKKKKKKKKKKKKKKKKKKKKKKKKKKKKK******************KKKKKKKKKKKK",
"KKKKKKKKKKKKKKKKKKKKKKKKKKKKKKKKKKKKKKKKKKKKKKKK++++++++++oo+++o++KKKKKKKKKKKK",
"KKKKKKKKKKKKKKKKKKKKKKKKKKKKKKKKKKKKKKKKKKKKKKKKKXXXXXXXXXXXXXXXXKKKKKKKKKKKKK",
"KKKKKKKKKKKKKKKKKKKKKKKKKKKKKKKKKKKKKKKKKKKKKKKKKK   X  XX X X XKKKKKKKKKKKKKK",
"KKKKKKKKKKKKKKKKKKKKKKKKKKKKKKKKKKKKKKKKKKKKKKKKKKKKKKKKKKKKKKKKKKKKKKKKKKKKKK",
"KKKKKKKKKKKKKKKKKKKKKKKKKKKKKKKKKKKKKKKKKKKKKKKKKKKKKKKKKKKKKKKKKKKKKKKKKKKKKK",
"KKKKKKKKKKKKKKKKKKKKKKKKKKKKKKKKKKKKKKKKKKKKKKKKKKKKKKKKKKKKKKKKKKKKKKKKKKKKKK",
"KKKKKKKKKKKKKKKKKKKKKKKKKKKKKKKKKKKKKKKKKKKKKKKKKKKKKKKKKKKKKKKKKKKKKKKKKKKKKK",
"KKKKKKKKKKKKKKKKKKKKKKKKKKKKKKKKKKKKKKKKKKKKKKKKKKKKKKKKKKKKKKKKKKKKKKKKKKKKKK",
"KKKKKKKKKKKKKKKKKKKKKKKKKKKKKKKKKKKKKKKKKKKKKKKKKKKKKKKKKKKKKKKKKKKKKKKKKKKKKK"
};
