/* XPM */
static char *_[] = {
/* columns rows colors chars-per-pixel */
"90 104 4 1 ",
"  c gray8",
". c #004766",
"X c #0287C4",
"o c #000000",
/* pixels */
"oooooooooooooooooooooooooooooooooooooooooooooooooooooooooooooooooooooooooooooooooooooooooo",
"oooooooooooooooooooooooooooooooooooooooooooooooooooooooooooooooooooooooooooooooooooooooooo",
"oooooooooooooooooooooooooooooooooooooooooooooooooooooooooooooooooooooooooooooooooooooooooo",
"oooooooooooooooooooooooooooooooooooooooooooooooooooooooooooooooooooooooooooooooooooooooooo",
"oooooooooooooooooooooooooooooooooooooooooooooooooooooooooooooooooooooooooooooooooooooooooo",
"oooooooooooooooooooooooooooooooooooooooooooooooooooooooooooooooooooooooooooooooooooooooooo",
"oooooooooooooo                    oooooooooooooooooooooo                    oooooooooooooo",
"oooooooooooooo                    oooooooooooooooooooooo                    oooooooooooooo",
"oooooooooooooo                    oooooooooooooooooooooo                    oooooooooooooo",
"oooooooooooooo                    oooooooooooooooooooooo                    oooooooooooooo",
"oooooooooooooo                    oooooooooooooooooooooo                    oooooooooooooo",
"oooooooooooooo                    oooooooooooooooooooooo                    oooooooooooooo",
"oooooooooooooo                    oooooooooooooooooooooo                    oooooooooooooo",
"oooooooooooooo                    oooooooooooooooooooooo                    oooooooooooooo",
"oooooo        ....................                      ....................        oooooo",
"oooooo        ....................                      ....................        oooooo",
"oooooo        ....................                      ....................        oooooo",
"oooooo        ....................                      ....................        oooooo",
"oooooo        ....................                      ....................        oooooo",
"oooooo        ....................                      ....................        oooooo",
"oooooo        ....................                      ....................        oooooo",
"oooooo        ....................                      ....................        oooooo",
"oooooo        ....................                      ....................        oooooo",
"oooooo        ....................                      ....................        oooooo",
"oooooo        ....................                      ....................        oooooo",
"oooooo        ....................                      ....................        oooooo",
"oooooo        ....................                      ....................        oooooo",
"oooooo        ....................                      ....................        oooooo",
"oooooo        XXXXXXXXXXXXXXXXXXXX                      XXXXXXXXXXXXXXXXXXXX        oooooo",
"oooooo        XXXXXXXXXXXXXXXXXXXX                      XXXXXXXXXXXXXXXXXXXX        oooooo",
"oooooo        XXXXXXXXXXXXXXXXXXXX                      XXXXXXXXXXXXXXXXXXXX        oooooo",
"oooooo        XXXXXXXXXXXXXXXXXXXX                      XXXXXXXXXXXXXXXXXXXX        oooooo",
"oooooo        XXXXXXXXXXXXXXXXXXXX                      XXXXXXXXXXXXXXXXXXXX        oooooo",
"oooooo        XXXXXXXXXXXXXXXXXXXX                      XXXXXXXXXXXXXXXXXXXX        oooooo",
"oooooo        XXXXXXXXXXXXXXXXXXXX......................XXXXXXXXXXXXXXXXXXXX        oooooo",
"oooooo        XXXXXXXXXXXXXXXXXXXX......................XXXXXXXXXXXXXXXXXXXX        oooooo",
"oooooo        XXXXXXXXXXXXXXXXXXXX......................XXXXXXXXXXXXXXXXXXXX        oooooo",
"oooooo        XXXXXXXXXXXXXXXXXXXX......................XXXXXXXXXXXXXXXXXXXX        oooooo",
"oooooo        XXXXXXXXXXXXXXXXXXXX......................XXXXXXXXXXXXXXXXXXXX        oooooo",
"oooooo        XXXXXXXXXXXXXXXXXXXX......................XXXXXXXXXXXXXXXXXXXX        oooooo",
"oooooo        XXXXXXXXXXXXXXXXXXXX......................XXXXXXXXXXXXXXXXXXXX        oooooo",
"oooooo        XXXXXXXXXXXXXXXXXXXX......................XXXXXXXXXXXXXXXXXXXX        oooooo",
"oooooo        XXXXXXXXXXXXXXXXXXXX......................XXXXXXXXXXXXXXXXXXXX        oooooo",
"oooooo        XXXXXXXXXXXXXXXXXXXX......................XXXXXXXXXXXXXXXXXXXX        oooooo",
"oooooo        XXXXXXXXXXXXXXXXXXXX......................XXXXXXXXXXXXXXXXXXXX        oooooo",
"oooooo        XXXXXXXXXXXXXXXXXXXX......................XXXXXXXXXXXXXXXXXXXX        oooooo",
"oooooo        XXXXXXXXXXXXXXXXXXXX......................XXXXXXXXXXXXXXXXXXXX        oooooo",
"oooooo        XXXXXXXXXXXXXXXXXXXX......................XXXXXXXXXXXXXXXXXXXX        oooooo",
"oooooo        XXXXXXXXXXXXXXXXXXXXXXXXXXXXXXXXXXXXXXXXXXXXXXXXXXXXXXXXXXXXXX        oooooo",
"oooooo        XXXXXXXXXXXXXXXXXXXXXXXXXXXXXXXXXXXXXXXXXXXXXXXXXXXXXXXXXXXXXX        oooooo",
"oooooo        XXXXXXXXXXXXXXXXXXXXXXXXXXXXXXXXXXXXXXXXXXXXXXXXXXXXXXXXXXXXXX        oooooo",
"oooooo        XXXXXXXXXXXXXXXXXXXXXXXXXXXXXXXXXXXXXXXXXXXXXXXXXXXXXXXXXXXXXX        oooooo",
"oooooo        XXXXXXXXXXXXXXXXXXXXXXXXXXXXXXXXXXXXXXXXXXXXXXXXXXXXXXXXXXXXXX        oooooo",
"oooooo        XXXXXXXXXXXXXXXXXXXXXXXXXXXXXXXXXXXXXXXXXXXXXXXXXXXXXXXXXXXXXX        oooooo",
"oooooo        XXXXXXXXXXXXXXXXXXXXXXXXXXXXXXXXXXXXXXXXXXXXXXXXXXXXXXXXXXXXXX        oooooo",
"oooooo        XXXXXXXXXXXXXXXXXXXXXXXXXXXXXXXXXXXXXXXXXXXXXXXXXXXXXXXXXXXXXX        oooooo",
"oooooo        XXXXXXXXXXXXXXXXXXXXXXXXXXXXXXXXXXXXXXXXXXXXXXXXXXXXXXXXXXXXXX        oooooo",
"oooooo        XXXXXXXXXXXXXXXXXXXXXXXXXXXXXXXXXXXXXXXXXXXXXXXXXXXXXXXXXXXXXX        oooooo",
"oooooo        XXXXXXXXXXXXXXXXXXXXXXXXXXXXXXXXXXXXXXXXXXXXXXXXXXXXXXXXXXXXXX        oooooo",
"oooooo        XXXXXXXXXXXXXXXXXXXXXXXXXXXXXXXXXXXXXXXXXXXXXXXXXXXXXXXXXXXXXX        oooooo",
"oooooo        XXXXXXXXXXXXXXXXXXXXXXXXXXXXXXXXXXXXXXXXXXXXXXXXXXXXXXXXXXXXXX        oooooo",
"oooooo        XXXXXXXXXXXXXXXXXXXXXXXXXXXXXXXXXXXXXXXXXXXXXXXXXXXXXXXXXXXXXX        oooooo",
"oooooooooooooo      XXXXXXXXXXXXXXXXXXXXXXXXXXXXXXXXXXXXXXXXXXXXXXXXXXXXXXXX        oooooo",
"oooooooooooooo      XXXXXXXXXXXXXXXXXXXXXXXXXXXXXXXXXXXXXXXXXXXXXXXXXXXXXXXX        oooooo",
"oooooooooooooo      XXXXXXXXXXXXXXXXXXXXXXXXXXXXXXXXXXXXXXXXXXXXXXXXXXXXXXXX        oooooo",
"oooooooooooooo      XXXXXXXXXXXXXXXXXXXXXXXXXXXXXXXXXXXXXXXXXXXXXXXXXXXXXXXX        oooooo",
"oooooooooooooo      XXXXXXXXXXXXXXXXXXXXXXXXXXXXXXXXXXXXXXXXXXXXXXXXXXXXXXXX        oooooo",
"oooooooooooooo      XXXXXXXXXXXXXXXXXXXXXXXXXXXXXXXXXXXXXXXXXXXXXXXXXXXXXXXX        oooooo",
"oooooooooooooo      XXXXXXXXXXXXXXXXXXXXXXXXXXXXXXXXXXXXXXXXXXXXXXXXXXXXXXXX        oooooo",
"oooooooooooooo      XXXXXXXXXXXXXXXXXXXXXXXXXXXXXXXXXXXXXXXXXXXXXXXXXXXXXXXX        oooooo",
"oooooooooooooooooooo                                    XXXXXXXXXXXXXXXXXXXX        oooooo",
"oooooooooooooooooooo                                    XXXXXXXXXXXXXXXXXXXX        oooooo",
"oooooooooooooooooooo                                    XXXXXXXXXXXXXXXXXXXX        oooooo",
"oooooooooooooooooooo                                    XXXXXXXXXXXXXXXXXXXX        oooooo",
"oooooooooooooooooooo                                    XXXXXXXXXXXXXXXXXXXX        oooooo",
"oooooooooooooooooooo                                    XXXXXXXXXXXXXXXXXXXX        oooooo",
"oooooooooooooooooooooooooooooooooooooooooo              XXXXXXXXXXXXXXXXXXXX        oooooo",
"oooooooooooooooooooooooooooooooooooooooooo              XXXXXXXXXXXXXXXXXXXX        oooooo",
"oooooooooooooooooooooooooooooooooooooooooo              XXXXXXXXXXXXXXXXXXXX        oooooo",
"oooooooooooooooooooooooooooooooooooooooooo              XXXXXXXXXXXXXXXXXXXX        oooooo",
"oooooooooooooooooooooooooooooooooooooooooo              XXXXXXXXXXXXXXXXXXXX        oooooo",
"oooooooooooooooooooooooooooooooooooooooooo              XXXXXXXXXXXXXXXXXXXX        oooooo",
"oooooooooooooooooooooooooooooooooooooooooo              XXXXXXXXXXXXXXXXXXXX        oooooo",
"oooooooooooooooooooooooooooooooooooooooooo              XXXXXXXXXXXXXXXXXXXX        oooooo",
"oooooooooooooooooooooooooooooooooooooooooo              XXXXXXXXXXXXXXXXXXXX        oooooo",
"oooooooooooooooooooooooooooooooooooooooooo              XXXXXXXXXXXXXXXXXXXX        oooooo",
"oooooooooooooooooooooooooooooooooooooooooo              XXXXXXXXXXXXXXXXXXXX        oooooo",
"oooooooooooooooooooooooooooooooooooooooooo              XXXXXXXXXXXXXXXXXXXX        oooooo",
"oooooooooooooooooooooooooooooooooooooooooo              XXXXXXXXXXXXXXXXXXXX        oooooo",
"oooooooooooooooooooooooooooooooooooooooooo              XXXXXXXXXXXXXXXXXXXX        oooooo",
"oooooooooooooooooooooooooooooooooooooooooooooooooooooooo                    oooooooooooooo",
"oooooooooooooooooooooooooooooooooooooooooooooooooooooooo                    oooooooooooooo",
"oooooooooooooooooooooooooooooooooooooooooooooooooooooooo                    oooooooooooooo",
"oooooooooooooooooooooooooooooooooooooooooooooooooooooooo                    oooooooooooooo",
"oooooooooooooooooooooooooooooooooooooooooooooooooooooooo                    oooooooooooooo",
"oooooooooooooooooooooooooooooooooooooooooooooooooooooooo                    oooooooooooooo",
"oooooooooooooooooooooooooooooooooooooooooooooooooooooooo                    oooooooooooooo",
"oooooooooooooooooooooooooooooooooooooooooooooooooooooooo                    oooooooooooooo",
"oooooooooooooooooooooooooooooooooooooooooooooooooooooooooooooooooooooooooooooooooooooooooo",
"oooooooooooooooooooooooooooooooooooooooooooooooooooooooooooooooooooooooooooooooooooooooooo",
"oooooooooooooooooooooooooooooooooooooooooooooooooooooooooooooooooooooooooooooooooooooooooo",
"oooooooooooooooooooooooooooooooooooooooooooooooooooooooooooooooooooooooooooooooooooooooooo",
"oooooooooooooooooooooooooooooooooooooooooooooooooooooooooooooooooooooooooooooooooooooooooo",
"oooooooooooooooooooooooooooooooooooooooooooooooooooooooooooooooooooooooooooooooooooooooooo"
};
