/* XPM */
static char *_[] = {
/* columns rows colors chars-per-pixel */
"78 90 66 1 ",
"  c #150D0A",
". c #15110F",
"X c #141414",
"o c #141618",
"O c #121A1D",
"+ c #0F1F26",
"@ c #111E23",
"# c #0F2027",
"$ c #0F222B",
"% c #122027",
"& c #12232B",
"* c #0D2631",
"= c #0C2835",
"- c #0B2D3B",
"; c #112630",
": c #102A35",
"> c #102F3D",
", c #10303F",
"< c #092F40",
"1 c #093243",
"2 c #06374C",
"3 c #0B3649",
"4 c #05384E",
"5 c #0D394E",
"6 c #103140",
"7 c #053A52",
"8 c #0C3D53",
"9 c #043F59",
"0 c #0D4057",
"q c #02425D",
"w c #0D425A",
"e c #004665",
"r c #094662",
"t c #004867",
"y c #0C4966",
"u c #004A6A",
"i c #094D6B",
"p c #004E71",
"a c #005074",
"s c #0A5273",
"d c #01567B",
"f c #0A5679",
"g c #00587F",
"h c #09587C",
"j c #025B84",
"k c #095B80",
"l c #015F89",
"z c #01618C",
"x c #08638C",
"c c #026591",
"v c #066996",
"b c #036B9B",
"n c #016FA1",
"m c #0272A4",
"M c #0276AC",
"N c #0278AE",
"B c #037BB3",
"V c #037EBB",
"C c #0281BB",
"Z c #0286C3",
"A c #0288C6",
"S c #0287CB",
"D c #028BCA",
"F c #018FD0",
"G c #0190D1",
"H c #000000",
/* pixels */
"HHHHHHHHHHHHHHHHHHHHHHHHHHHHHHHHHHHHHHHHHHHHHHHHHHHHHHHHHHHHHHHHHHHHHHHHHHHHHH",
"HHHHHHHHHHHHHHHHHHHHHHHHHHHHHHHHHHHHHHHHHHHHHHHHHHHHHHHHHHHHHHHHHHHHHHHHHHHHHH",
"HHHHHHHHHHHHHHHHHHHHHHHHHHHHHHHHHHHHHHHHHHHHHHHHHHHHHHHHHHHHHHHHHHHHHHHHHHHHHH",
"HHHHHHHHHHHHHHHHHHHHHHHHHHHHHHHHHHHHHHHHHHHHHHHHHHHHHHHHHHHHHHHHHHHHHHHHHHHHHH",
"HHHHHHHHHHHHHHHHHHHHHHHHHHHHHHHHHHHHHHHHHHHHHHHHHHHHHHHHHHHHHHHHHHHHHHHHHHHHHH",
"HHHHHHHHHHHHHHHHHHHHHHHHHHHHHHHHHHHHHHHHHHHHHHHHHHHHHHHHHHHHHHHHHHHHHHHHHHHHHH",
"HHHHHHHHHHHHHH.......X .................... .. .................HHHHHHHHHHHHHH",
"HHHHHHHHHHHHH.XX.X.X.XX.XX..X.XX.XX.XX.X.XXXXXXXXX..X.X.X.XX.X.oXHHHHHHHHHHHHH",
"HHHHHHHHHHHHXoooooXoXooooXoooXoooooXoXoXoXoXoXooXoXooXoXooXooXoXoXHHHHHHHHHHHH",
"HHHHHHHHHHHHOOOoOOOOOOOOOOOOOOOOOOOoOOOOOOOOOOoOOOOOOOOOOoOOOOOOOoHHHHHHHHHHHH",
"HHHHHHHHHHH++++####$+++#+++#++##%%%%$++++$+++$+++++$+++$%%%$$+++++@HHHHHHHHHHH",
"HHHHHHHHHH@%$*==========================================:========$++HHHHHHHHHH",
"HHHHHHHHoO+$=-<1111111111111111111111111111111111111111<1111111<-=$+OXHHHHHHHH",
"HHHHHHHXoO#*-1277777774474777747777777777774777777777777777777723==+OXXHHHHHHH",
"HHHHHH XXO+*<27qqeqqqqqqqqqqqqqqqqqqqqq9qqqqq9qqq9qq9qqqqqeqqeq72<=+OXX HHHHHH",
"HHHHHHX.oO+=14qettteeeeeeeeeeeeeeeeeeeeeeeeeeeeeeeeeeeeeeeeeeeeq71=%OoXXHHHHHH",
"HHHHHH.XXO+=17eettutttttttetteetuettttttttttetttttetttttettuuutq71=+@oX HHHHHH",
"HHHHHH.XoO+=179etuttttteetteettteteteeeteeetttetetetetetetttttt97<=+OXX.HHHHHH",
"HHHHHH.XXO@=179etttteeeeeeeeeeeeeeeeeeeeeeeeeeeeeeeeeeeeettttte97<-+OXX.HHHHHH",
"HHHHHH..oO+=17qetttteeeeeetteeeeeeeeeeeeeeeeeeetteeeteeteeettteq7<=+Oo..HHHHHH",
"HHHHHH.XoO+=17eeuuutttttuutuutuuuuuttututuuutttttttttuttttttuuuq71;+OX..HHHHHH",
"HHHHHH XXO$-39eppapuppppupauuauuupupauuapuaupppppppupppppppppppt93-&@oX.HHHHHH",
"HHHHHH.XX@&<5rpdjjjjdjdjgddgggggdggddggddggdgdddddjjddddjdjjjjdpr7>&OXX.HHHHHH",
"HHHHHH .o@;1wuklzzczllllzzzzzzzzzzzzzzzzzzzzzzzzzzlllczzzlzzzzlkpw6;@o..HHHHHH",
"HHHHHH .X@:3yhxvnnnnbbnbbbnbbbnbbnbbbbbnbnbbnbbnbbbbnbbbnnbnmnbzfy3:@o. HHHHHH",
"HHHHHH Xo%:8skbMBBBNMMNNNNNNMMNNNNNMBNNNNMNNNNMMBNNMNNNNMMBBBBMbxy5:@o. HHHHHH",
"HHHHHH .o%>8sxBCCCZVVCCVCCCCCCCCCCCVVCCCCCCCCCCCCCCCCCCCVVVCZCVMxf8>%o. HHHHHH",
"HHHHHH .o%>wfvBCDSSSZZZZZZZZZZZZZZZZZZZZZZZZZZZZZZZZZZZZZZASDDCBvfw,%o. HHHHHH",
"HHHHHH .o%,whvBZDDDDDAAAAAAAAAAAAADDAAADDADAADADAADADZDADDDDDDABbhw6%o  HHHHHH",
"HHHHHH .o%6whbBZDFFDADDAAAAADDDDDDDDDDDDDDDDDDDDDDDDDDADDDGGFFAVbhw6%o. HHHHHH",
"HHHHHH .o%,whvVZDFDDAAAAAAAAADDDDDDDDDDDDDDDDDDDDDDDDDDDDDDGGFABnhw6%O. HHHHHH",
"HHHHHH .o%>wfvBZDDDDAAAAAAAAAAAADAADDAADADADADADADADDDDDADDFDDZCvhw6%o. HHHHHH",
"HHHHHH .X%,wfvCCDDDAZAAZAZZZZZZZZZCZZCZZCZZZZZZZZCZZCZZZZZAADDZNvf86@O. HHHHHH",
"HHHHHH .X%,wfxCCDDDAAZZAZAZZZZCCCCCCCCCCCCCCCCCBCCCCCCCCCCCZCCVMxs86@XX HHHHHH",
"HHHHHH .o%,wfvCCADDAZZAZAZAZCCBBNMMMMMMMMMMMMMMMMMMMMMMMMMNBBNMbjs5>@o. HHHHHH",
"HHHHHH .o%,wfvCCDDDDZAZAAAACCBMnnbbbbbbbbbbbbbbbbbbbbbbbbbbbmmbzhr3:@O. HHHHHH",
"HHHHHH .o%,wfvCCADDAZAAAAAZCBMmbzzjzjjzzjzjzzjzjzjzzjzjzjzzzzzzgp83;@o. HHHHHH",
"HHHHHH .o%,wfvBCDDDAAZZAAAZCBmbzjddddddddddddddddddddddddddgggdar4-&OoX.HHHHHH",
"HHHHHH .X%,wfvCZDDDAAZAADAZCBmcjdapupauppaauauaaaaauuauaapaaaaut92-+OXX.HHHHHH",
"HHHHHH .o%,wsvBCADDAZZAAAAZCNmcjdpppuupapaaaaaauuapaaaaaappauuuq71=+Oo..HHHHHH",
"HHHHHH .o%,wfvBCDDDAZZAAAAZCBMbzgddddddddddddddddddddddddaaauueq4<*+OXX.HHHHHH",
"HHHHHH .o%,wfvCCDDDAAZAAAAZCBMmczzjjjjjzjzzjzjjzlllllzzzzjjdaue92<*+OoX.HHHHHH",
"HHHHHH .o%,wfvBZADDAAZZAAAZCCBMMbbbbbbbbbbbbbbbbbbbbbbbbbczjdpe92-=+OXX.HHHHHH",
"HHHHHH .X%,wfvBCDDDAZZAZZAAZCCBBNMMMMMMMMMMMMMMMMMMMNNNNMmbzjau92<*+OX..HHHHHH",
"HHHHHH .o%,0hvNZDDDAAZAZZAZZZCCCCCCCCCCCCBCCCCCCVCCBCCCCBBmbzdpe5<=+oo..HHHHHH",
"HHHHHH .o%,whvBZDDDAAZAZAZZAAAAZZZZZZCZZZZZZZCZZZZZZZZAAZVBmclae91=+@XX.HHHHHH",
"HHHHHH .o%,wfvBZDDDDAAAAAAAAAAAAADDADDADADADDDAAAAAAADDDACBMncjpw8>&Oo..HHHHHH",
"HHHHHH .o%,whbBADDDDAAAAAAAADADDDDDDDDDDDDDDDDDDDADADADDAZVBMbcks86&@o..HHHHHH",
"HHHHHH .o%,wfvCADFDDDDADAADADDDDDDDDDDDDDDDDDDDDDAAADADAAZCCBMbzhy6;%o..HHHHHH",
"HHHHHH .o%,wfvCZDDDDDAAAAAAAAAAADAAADADAADAAAAAAAAAAAAAAZZZZCCNnxy0:%o. HHHHHH",
"HHHHHH .o%,0svBCDDASZZZCZZZZZZZZZZZZZZZZZZZZZZAAZZAZAZAZAZAZZZCmxf0,%o. HHHHHH",
"HHHHHH .o%>0sxBCCZCCVCVCCCCCBCCCCCCCCCCCCCCCCCCCZZZZZAZAZZADDAZBxf0,%X. HHHHHH",
"HHHHHH .o@:8ykvBNBNNMMMMMMMMMMNNMNNNBNNNNNNNNNBBCCZAAZZZZADDDDABvkw6%o. HHHHHH",
"HHHHHH..o@:5yfxvnnnbbbbbbbbbbbbbbbbbbbbbbbbbbmMMBCCAAAAAAAADDDABvhw6%X. HHHHHH",
"HHHHHH..o@;<9ikkzzzllllljzjzzzjzzzzczzzzzzzzzcbmNBCZAAAZZAADDDZBvhw,%o. HHHHHH",
"HHHHHH..X@+<5qsdddjddddddddddddgddgdddddddddgjzbMBCAZAAAAZDDDDZBvfw,%o. HHHHHH",
"HHHHHH.XXO+>39upadpappppppppppppppuppuppuupuadjcmNCZAAAAZZADDDCBvhw,%o. HHHHHH",
"HHHHHH..X@+-39tpaaapapppppppppuuuueeuueutettuugznNCAAAAAZAADDDZBvfw,%o. HHHHHH",
"HHHHHH.XX@+<4qpdddddddddjddppputeeeeeqeeeqqqtudzbMCCAAAAAZADDACBvf0,%o. HHHHHH",
"HHHHHH XX@;68ikjzczzlllzllljjdpueqqqqeqqqqqqeudjbMCZADAAZAADDAZBvfw,%o. HHHHHH",
"HHHHHH..o@;5rdlbbnnbbbbbbnbcljdueqq9qqqeqqqqquazbMCCADAAZAADDAZBvfw,%o. HHHHHH",
"HHHHHH .o@:8skbMNBBMMMBMNNMnbcjpueeeeqqeqqqeeudzbMCAAAAAZAADFACBvfw,%o. HHHHHH",
"HHHHHH .o@>8sxMVCZCCVCCCCCVBMcldpteeeteteeetupdznNCZAAAAAZADDDZBvh0,%o. HHHHHH",
"HHHHHH .O@68fvBVADDZZZZAAZZVMncjdpppuuppppuupdzcnNCZAAAAZAADDDCBvfw,%o. HHHHHH",
"HHHHHH .o%6wkvVSDFDDAAAADAZZBMvxkkhfdddjddddgjzbmBCAAAAAZAADDDABvhw,%o..HHHHHH",
"HHHHHH .o%6wkmVSFFFDDADDDDAZCMmvvxxlllzlllllzcbmNBCZAAAAZAADFFABvhw,%o. HHHHHH",
"HHHHHH  o%6ykmVGFFFDDAAADAAZCBBMvvvvbnbnnbbnbmMNBCCZZAZZAAADFFSVvky,%o. HHHHHH",
"HHHHHH .o%6wfvVSDFFDAAAAAAAZCCCBBBBBNNNMMMMMNNBCCZZAAAZAAAADDDSVvkw,%X. HHHHHH",
"HHHHHH .o%>8svBZSDZZZAZAAZAZZCZCCCCCCCCCVCVCCCCCCZZZZAZAZZAASASBvs0>%o. HHHHHH",
"HHHHHH .o%>8sxMVCCZZZZAAAAZAAZAZZAZZZZZAZZZAZZZAAZAAAZAZAZZZCVBMxs0>%o. HHHHHH",
"HHHHHHH.o%>8yhxbmBCCZAADAAAAADADDDDDAADDDDDDADDDADAADDADAZCBBmvxhy0>%o.HHHHHHH",
"HHHHHHHHo%:68yshxvMCZADDDDDDDDDDFDDFDDDFDDDFDDDDDDDDDDDDAZBBvxksy06;%oHHHHHHHH",
"HHHHHHHHHH;>68wysxvBCDDFFDDDDDFDDFDFFDDDDDDDDFDDDDDDFFFFDCBvxsy056,;HHHHHHHHHH",
"HHHHHHHHHHH%;:,5wsxMCADFFDDDDDDDAADDDDAADDDADDDADDDDDDDDZCMxfw5>:;&HHHHHHHHHHH",
"HHHHHHHHHHHHo@%:5ykvVZSAACZCZCZCZZZZZZCZAZZZZZZZCZZCZZDSZVvky5:&%oHHHHHHHHHHHH",
"HHHHHHHHHHHH.XO%60sxMBCCCBBBCBBBBBBBBBBBBBBBBBBBBBBBBVVCBmxfw6&o..HHHHHHHHHHHH",
"HHHHHHHHHHHHH o@:0yfxvvvvvvvvvvvvvvvvvvvvvvvvvvvbvvvbvvvvxky5:%. HHHHHHHHHHHHH",
"HHHHHHHHHHHHHH O;60ysfhhhhhssshhfhhfhfhfffffffhffhfhhhhhssyw6;o.HHHHHHHHHHHHHH",
"HHHHHHHHHHHHHHHH&>6000wwwwwwwwww00w00w0w000w0ww000w0www088566&HHHHHHHHHHHHHHHH",
"HHHHHHHHHHHHHHHHH;;>,,,,,6>,>>,,,,,,,,,,6,,,,>,>,,,,,,,,66>:;HHHHHHHHHHHHHHHHH",
"HHHHHHHHHHHHHHHHHH%%&%%&%%%%%%%%%%%%%%%%%%%%%%%%%%%%%%%%%%%%HHHHHHHHHHHHHHHHHH",
"HHHHHHHHHHHHHHHHHHooXXXooXoXooooooooooooooooooooooooooooXooXHHHHHHHHHHHHHHHHHH",
"HHHHHHHHHHHHHHHHHHH........................................HHHHHHHHHHHHHHHHHHH",
"HHHHHHHHHHHHHHHHHHHH    .                                 HHHHHHHHHHHHHHHHHHHH",
"HHHHHHHHHHHHHHHHHHHHHHHHHHHHHHHHHHHHHHHHHHHHHHHHHHHHHHHHHHHHHHHHHHHHHHHHHHHHHH",
"HHHHHHHHHHHHHHHHHHHHHHHHHHHHHHHHHHHHHHHHHHHHHHHHHHHHHHHHHHHHHHHHHHHHHHHHHHHHHH",
"HHHHHHHHHHHHHHHHHHHHHHHHHHHHHHHHHHHHHHHHHHHHHHHHHHHHHHHHHHHHHHHHHHHHHHHHHHHHHH",
"HHHHHHHHHHHHHHHHHHHHHHHHHHHHHHHHHHHHHHHHHHHHHHHHHHHHHHHHHHHHHHHHHHHHHHHHHHHHHH",
"HHHHHHHHHHHHHHHHHHHHHHHHHHHHHHHHHHHHHHHHHHHHHHHHHHHHHHHHHHHHHHHHHHHHHHHHHHHHHH",
"HHHHHHHHHHHHHHHHHHHHHHHHHHHHHHHHHHHHHHHHHHHHHHHHHHHHHHHHHHHHHHHHHHHHHHHHHHHHHH"
};
