/* XPM */
static char *_[] = {
/* columns rows colors chars-per-pixel */
"78 90 64 1 ",
"  c #150D09",
". c #15110F",
"X c #141414",
"o c #141618",
"O c #121A1D",
"+ c #0F1F26",
"@ c #111E23",
"# c #0F2027",
"$ c #0F222B",
"% c #122027",
"& c #12232B",
"* c #0D2732",
"= c #0C2835",
"- c #0B2C3A",
"; c #112630",
": c #102A35",
"> c #102F3D",
", c #10303F",
"< c #092F40",
"1 c #093243",
"2 c #06374C",
"3 c #0B3649",
"4 c #05394F",
"5 c #0D394E",
"6 c #053B52",
"7 c #0C3E54",
"8 c #033F59",
"9 c #0D4057",
"0 c #02425D",
"q c #0D425A",
"w c #004664",
"e c #094661",
"r c #004867",
"t c #0C4966",
"y c #004A6A",
"u c #094C6B",
"i c #004E71",
"p c #005174",
"a c #0A5273",
"s c #01557B",
"d c #0A5679",
"f c #00587F",
"g c #09587C",
"h c #015C85",
"j c #095B80",
"k c #015F89",
"l c #01618C",
"z c #08638C",
"x c #026592",
"c c #056996",
"v c #036B9B",
"b c #016FA1",
"n c #0272A4",
"m c #0276AC",
"M c #0278AE",
"N c #037BB3",
"B c #037EBB",
"V c #0281BB",
"C c #0286C3",
"Z c #0288C6",
"A c #0287CB",
"S c #028BCA",
"D c #018FD0",
"F c #000000",
/* pixels */
"FFFFFFFFFFFFFFFFFFFFFFFFFFFFFFFFFFFFFFFFFFFFFFFFFFFFFFFFFFFFFFFFFFFFFFFFFFFFFF",
"FFFFFFFFFFFFFFFFFFFFFFFFFFFFFFFFFFFFFFFFFFFFFFFFFFFFFFFFFFFFFFFFFFFFFFFFFFFFFF",
"FFFFFFFFFFFFFFFFFFFFFFFFFFFFFFFFFFFFFFFFFFFFFFFFFFFFFFFFFFFFFFFFFFFFFFFFFFFFFF",
"FFFFFFFFFFFFFFFFFFFFFFFFFFFFFFFFFFFFFFFFFFFFFFFFFFFFFFFFFFFFFFFFFFFFFFFFFFFFFF",
"FFFFFFFFFFFFFFFFFFFFFFFFFFFFFFFFFFFFFFFFFFFFFFFFFFFFFFFFFFFFFFFFFFFFFFFFFFFFFF",
"FFFFFFFFFFFFFFFFFFFFFFFFFFFFFFFFFFFFFFFFFFFFFFFFFFFFFFFFFFFFFFFFFFFFFFFFFFFFFF",
"FFFFFFFFFFFFFFFFFFFF....................... .. X..........FFFFFFFFFFFFFFFFFFFF",
"FFFFFFFFFFFFFFFFFFFXXX.XXXX.XXX.XX.X.XXX.XXXXX.XXXX.XXX.XXXFFFFFFFFFFFFFFFFFFF",
"FFFFFFFFFFFFFFFFFFooXooXoXoooXooXXXXoXoooooXXoXooXoXoXooXXoXFFFFFFFFFFFFFFFFFF",
"FFFFFFFFFFFFFFFFFFOOOoOOOOOOOOOOOOOOOOoOoOOOOOOOOOOOOOOOOOOOFFFFFFFFFFFFFFFFFF",
"FFFFFFFFFFFFFFFFF@+#+#$$++##++##%+&&+$$+$++++$$++++$++$+%@+@@FFFFFFFFFFFFFFFFF",
"FFFFFFFFFFFFFFFFO+$**=*======*=*===;==*=======**========:**&+OFFFFFFFFFFFFFFFF",
"FFFFFFFFFFFFFFXo+#*--111<<<1111111<1111<<1<11111<<11111<<<-*$@oXFFFFFFFFFFFFFF",
"FFFFFFFFFFFFF.Xo+$-<446686664666666666666666666666666686621-$+oX.FFFFFFFFFFFFF",
"FFFFFFFFFFFF.XoO$=12800ww0000000000080000000800000000000084<=$OooXFFFFFFFFFFFF",
"FFFFFFFFFFFFoOO+$-140wrwwwwwwwwwwwwwwwwwwwwwwwwwwwwwwywww061-$+OooFFFFFFFFFFFF",
"FFFFFFFFFFFO@+$$=<480wyyrrrrwrrrrrwrrwwywrywrrrwwwwyrryrrw84-=*++@@FFFFFFFFFFF",
"FFFFFFFFFF@@$$=-<2680wrwrrwrrwwrwwrrrrwwywwrwrwrwywwrrrrww862<-==+@@FFFFFFFFFF",
"FFFFFFFFXO+$=-<14688wwwrrwwrwwwwwwrwwwwwwwrwwwwwwwwwrwwrw886421<-=+@OoFFFFFFFF",
"FFFFFFFXoo+*-146880wwwwwwrwrwwwrwrwwwwwwwwwwwwwwwrwwwwrwwwww8864<-=+OoXFFFFFFF",
"FFFFFF.XXO+*-280wrwrwwyrrrryyryyrrryyyyyyyywyrryyyyyrryrrrrwww882<=+OoX.FFFFFF",
"FFFFFF.XoO+=168wryyyiiiipyiyypyyiiiiiiyiyiiipyypyiiiiiiiiyiyyyw86<=+OXX.FFFFFF",
"FFFFFF.XXO+=160rypisssssfffsffffssssssfsfssssfffssssshssssisiirw6<=+OX..FFFFFF",
"FFFFFF..oO+=<60rishhkllxllllllllxlllllllllllllllxlllllllkkhhsir84<=+OoX.FFFFFF",
"FFFFFF.XXO@=<60yihhxcvbvbvvbvvbvvbvvvvvbvvvbvvvvvvvvbvvbbcxkhir04<=+OX..FFFFFF",
"FFFFFF.XXO@*<40yshxvnmMNNMMMmmMMMMmmNMMMmmMMMNMMNMMmMNNMmmvxhsy04<=+OoX.FFFFFF",
"FFFFFF.XoO%=16wisxvmMVVVVVVVBVVVBBBVNVVVVVVVVVVVVVBBVVVVBNnvlsiw4<:+OX..FFFFFF",
"FFFFFF..oO$=17wphxbMBCZZZCCCCCCCCCCCCCCCCCCCCCVCCCCCZZZCVBNbxkpw83:+OoX.FFFFFF",
"FFFFFF.XoO&-5eihxbmNCCZSZZZZZSZZZSZSSSZZSSZSZSZZZZZZZSSSZVNMbxhie5>+OX..FFFFFF",
"FFFFFF Xo@&18yhxvmNVCZSSSSZZZSSSSSSSSSSSSSSSSSSSZSSZSSSZSCVNmvxha71;%o..FFFFFF",
"FFFFFF .o@;3egxvmNBVCZZZZZZSSZSSSSSSSSSSSSSSSSSSSZZZZZSZZCVVNmvxdq5:Oo..FFFFFF",
"FFFFFF Xo@:7ujvNBBCCCZZZZZZZZZZZZSSZSZSSZSZSZSZZZZZZZZZZZCZVVBMvzt5:%o. FFFFFF",
"FFFFFF .o%,9azmVVZZZCCCZZCZCCCCZCCCCCVCCCCCCCCZZCCCCCZCZCCZZCCNmzaq>%o. FFFFFF",
"FFFFFF .o%,qdcNVSSZZZZCCCZCCCCVVVVVVVVVVBBBBVBVVCCCZZZZCCZSSSZCMcaq,%o. FFFFFF",
"FFFFFF .o%,qdcNVSSSZCCCZZCCCVVNNMMMMMMMMmmmmmMNNVCCCZZZZZZSSDSCNvjq,%o. FFFFFF",
"FFFFFF .o%,qgcVZSSSZZZZCZZCCVNMmnvvvvvvvbvvbvnmMNVCZZSZZZZSSDSZVvjq,%o. FFFFFF",
"FFFFFF .o%,9dcVZSDSSCCZZZCCVNMnvxlllllllkkkhlxvbMVCZSSSSSSSSDDSVvjq,+o. FFFFFF",
"FFFFFF .o%,9dcNVSSSSZCZZZZZVNnvlhfsfssfsssshhhlvmNVZSSZSZSSSSSCNvdq,+o. FFFFFF",
"FFFFFF .o%,9dcNCSSSZCZZZZZCVMnxhsiyyyyypiyyiiphlvMVVCZZCCCZSSSVNcdq<@o. FFFFFF",
"FFFFFF .o&,qdcNCSSSZZCZZZZCVNvlsyywwywyrrwrryihhvnNVVVVVBBVVCVBNza7<@o. FFFFFF",
"FFFFFF .o&>qdcNVZSSZZZZZZZCVmvlsyww0wwww8w8wwrihxvbmMNMMmmNNNNmvju7>@X..FFFFFF",
"FFFFFF .X%,qdcNCSSSZZCZZSZCVmvhsyw00888ww8w8wriphlxvvvvvvvvvvvclde3:@o. FFFFFF",
"FFFFFF .o&>qdcNCSSSZCZZZZZZNmvkpyw088ww0088w0wyiphhkkklkkkllllhsy8<;@o..FFFFFF",
"FFFFFF .X%>qdcNVZSSZZCZZZZCVMvlsyw0w00wwww0wwwriiisssssssssshssie5<;OX..FFFFFF",
"FFFFFF .o%,qdcNCSSSZCCZZZZCBNvlsiyrwwryrrrrrrryyyiiiipipiiipipiyq5>&oo..FFFFFF",
"FFFFFF .o%>qdcNVZSSZCZZZZZCVNbxhsiyyyiiiiiiyiiiiiiiiiiiipipippiw75=+%o..FFFFFF",
"FFFFFF .o%,qdcNCSSSZCZZZZZCVNnvlhsssssssshshshsshsssssssssshsssut5,&oo..FFFFFF",
"FFFFFF .o%>qdcNVSSSZZCCZZZCCNMnvxlklllllklklklkkkkkkkkkkkkklxlkst9,&%o..FFFFFF",
"FFFFFF .o%>qdcNCSSSZZCCZZZCVVNNmnvvvvvvvvvvvvvvvvvvvvvvvvvvbbvvldt,;%o..FFFFFF",
"FFFFFF .o%>qdcNCSSSZZCZCZCZCVVNNMMMmMMMMNMNMNMMmMmmmMMmmmmMNNMmvja9>%o. FFFFFF",
"FFFFFF .o%>qgcNVZSSZCCZZZCCCCVVVVVVBVVVVVVNVVVVVVBBBVNVVVBVVCBBMzd9,%o. FFFFFF",
"FFFFFF .o%>qgzNCSSSZZCCCCCZCCZZCCCCCCCCCCCCCCCCCCCCCCCCCCCCZAZCNzd9,%X. FFFFFF",
"FFFFFF .o%>qgcVCSSSZCZCZCZCZZZZZZZSZSZSZZZSZZSZZZZZZZZZZZSSSSSZNcjq,%o. FFFFFF",
"FFFFFF .o%>qdzNCSSSZZCCCCCCZZZZSSSSSSSSSSSSSSSSSZZZSZSZZSSSSSSZNcgq,%X. FFFFFF",
"FFFFFF .o%>qgcNVZSSZCCZCCCZCCZZSSSSSSSSSSSSSSSSSSZZZZZZZZSSDSSZNcgq,%o. FFFFFF",
"FFFFFF .o%,qgzNCSSSZCZCCZCCZZZZZZZSSSZSZSZSSSZZZZZZZZZZZZZSSSSCNcdq,%o. FFFFFF",
"FFFFFF .o%>qdcVCSSSZCZCZZCCCZCCCCCVCCCCCCCCCCCZZCCCZZCCZCZZSSZCNcgq,%o. FFFFFF",
"FFFFFF .o%>qdzNCSSSZZCCCCZCCCCVVVVBVVVVVNVVVVVVVVCCCCCZCCCZSSSVNcdq,%o. FFFFFF",
"FFFFFF .o%,qgcNCZSSZCCZZZCCCVVNNMMMmmmmmmmmmmMNNVVCZZZZCZZZSSSCNcg9,%o. FFFFFF",
"FFFFFF .o%>qgzNVSSSZCZCZZZZVVNmnvvvvcvvcvvcvvvnmVVVCZCZCCCZSSZCMcdq,%o. FFFFFF",
"FFFFFF .o%>qgcVCSSSZZCZZZZCVNMbcllkhhhlklhhhllcbmNVZZZZZZCZSSSVNcdq,%o. FFFFFF",
"FFFFFF .o%>qdzVCSSSZCCZZZZCVNnvlhsssssssssssshlvnNVCZZZCCCZSSSCNcd9,%o. FFFFFF",
"FFFFFF .o%,qgzNVZSSZZCZZZZCVNnxhsiyiyiyppypypshxnNVCZZZCCZSSSZVNcdq>%o. FFFFFF",
"FFFFFF .o%,qgzVVSSSZZCZZZZCVMnxhsppypiipypyypshxnMVCZSZZZCZSSSCNcdq>%o. FFFFFF",
"FFFFFF .o%,qjcNZASSZZCZZZZZVNcczjggdddsssspsshlcnNVZZZZZCZZSSSCNcgq,&o. FFFFFF",
"FFFFFF .o%,qjcNASDDZZCCZZZZVVnmczzzjkkkkhhkhllcnMNVCZZZZCZSSDDANcgq,&o. FFFFFF",
"FFFFFF .o%,qjcCASDSZZCZZZCCVVNNvzczzvvvvvcvvvbnmNVVCZZCZCZSSDDZVvjq,%o. FFFFFF",
"FFFFFF .o%,qjcBADDSSZCCZCZCCVVVNNNVNmmmmmmmmmMNBVVZCCCZCCZSSSSABcjq,%o. FFFFFF",
"FFFFFF .o%>9dzNZZAZZZZZZCZCCCVCVVVVVVVVBBBVVVVVVVCCZCCCZCZZAACCNza9>%o. FFFFFF",
"FFFFFF .o%>9azmVVCVCCCZZZCZZCCCCCZCCCCCZCCCCCCCZZCCZZZCZCCCVBBBNza9>%o. FFFFFF",
"FFFFFFF.o%:9tjzccVVVCZZSZZSZZZZZZZZZZZZZZSSSZSSSSZZZSSZSZCVNNnczjt9>%o.FFFFFFF",
"FFFFFFFFo%:,9tajzcmVVZSSSSSSSDZDSDDDSDDSSSSDSSSSSSSSSSSSACNNczjatq,;%oFFFFFFFF",
"FFFFFFFFFF;>,99tazzNCZSSDDSSSSDSDSDDSDDDSDSSDDDZSSSSSDSDSVNczat99,>;FFFFFFFFFF",
"FFFFFFFFFFF%;:,5qdzNVZSDSSZZSSSSZZZSSSZZSSSZZZZASSSSSSDSZVmzaq5,;;&FFFFFFFFFFF",
"FFFFFFFFFFFFo%&;9tjzBCAAZCCVCVCCVCCCCBCCZCCCCCZCCVCCCZZACBcjt5:&%oFFFFFFFFFFFF",
"FFFFFFFFFFFF.Xo%,9azmNVCVNNNNNNNNNNVNNNNNNNNNNNNNNNMNBVVNmzaq,&o..FFFFFFFFFFFF",
"FFFFFFFFFFFFF X%;9tjzzccccczzzcczcccccczzzcczccccccccvccczjt5:%..FFFFFFFFFFFFF",
"FFFFFFFFFFFFFF.o;,9tadjgjggdgdggddggggjdddgjddjgddddggggaatq,;O.FFFFFFFFFFFFFF",
"FFFFFFFFFFFFFFFF&,,999qqqqqqqqqq9qqqqq9q99qq9q9qqqq9qqqq995,,&FFFFFFFFFFFFFFFF",
"FFFFFFFFFFFFFFFFF;;:,,,,,,,,,,,,,,,,,,,,,,,,,,,>,,,,,,,,,>>;;FFFFFFFFFFFFFFFFF",
"FFFFFFFFFFFFFFFFFF%%%%%%%%%%%%%%%%%%%%%%%%%%%%%%%%%%%%%%%%%%FFFFFFFFFFFFFFFFFF",
"FFFFFFFFFFFFFFFFFFoooooooooooooooooooooooooooXooooooooooooooFFFFFFFFFFFFFFFFFF",
"FFFFFFFFFFFFFFFFFFF..................................... ..FFFFFFFFFFFFFFFFFFF",
"FFFFFFFFFFFFFFFFFFFF                                      FFFFFFFFFFFFFFFFFFFF",
"FFFFFFFFFFFFFFFFFFFFFFFFFFFFFFFFFFFFFFFFFFFFFFFFFFFFFFFFFFFFFFFFFFFFFFFFFFFFFF",
"FFFFFFFFFFFFFFFFFFFFFFFFFFFFFFFFFFFFFFFFFFFFFFFFFFFFFFFFFFFFFFFFFFFFFFFFFFFFFF",
"FFFFFFFFFFFFFFFFFFFFFFFFFFFFFFFFFFFFFFFFFFFFFFFFFFFFFFFFFFFFFFFFFFFFFFFFFFFFFF",
"FFFFFFFFFFFFFFFFFFFFFFFFFFFFFFFFFFFFFFFFFFFFFFFFFFFFFFFFFFFFFFFFFFFFFFFFFFFFFF",
"FFFFFFFFFFFFFFFFFFFFFFFFFFFFFFFFFFFFFFFFFFFFFFFFFFFFFFFFFFFFFFFFFFFFFFFFFFFFFF",
"FFFFFFFFFFFFFFFFFFFFFFFFFFFFFFFFFFFFFFFFFFFFFFFFFFFFFFFFFFFFFFFFFFFFFFFFFFFFFF"
};
