/* XPM */
static char *_[] = {
/* columns rows colors chars-per-pixel */
"78 90 71 1 ",
"  c #160A04",
". c #150D0A",
"X c #15110F",
"o c #141414",
"O c #131915",
"+ c #141718",
"@ c #121A1D",
"# c #12201F",
"$ c #0F1F26",
"% c #111E23",
"& c #0F2027",
"* c #0E222B",
"= c #0D282D",
"- c #122026",
"; c #122229",
": c #0D2631",
"> c #0C2835",
", c #0A2D3C",
"< c #112731",
"1 c #102A35",
"2 c #102E3C",
"3 c #10303F",
"4 c #092F40",
"5 c #0A3143",
"6 c #06364B",
"7 c #0C3649",
"8 c #05384E",
"9 c #0D384C",
"0 c #103140",
"q c #053B52",
"w c #0D3D53",
"e c #053F59",
"r c #0D4057",
"t c #02425D",
"y c #0D425A",
"u c #004665",
"i c #094762",
"p c #024867",
"a c #0B4966",
"s c #014969",
"d c #0B4B69",
"f c #00506D",
"g c #004E70",
"h c #025275",
"j c #0A5374",
"k c #01567C",
"l c #0A5679",
"z c #01587F",
"x c #09587D",
"c c #025B83",
"v c #095D83",
"b c #015F89",
"n c #02628D",
"m c #08638C",
"M c #016591",
"N c #056996",
"B c #046C9B",
"V c #016FA1",
"C c #0271A4",
"Z c #0375AB",
"A c #0278AE",
"S c #037BB3",
"D c #037EBB",
"F c #0281BB",
"G c #0286C3",
"H c #0288C6",
"J c #0287CB",
"K c #028BCA",
"L c #018ED0",
"P c #0190D2",
"I c #000000",
/* pixels */
"IIIIIIIIIIIIIIIIIIIIIIIIIIIIIIIIIIIIIIIIIIIIIIIIIIIIIIIIIIIIIIIIIIIIIIIIIIIIII",
"IIIIIIIIIIIIIIIIIIIIIIIIIIIIIIIIIIIIIIIIIIIIIIIIIIIIIIIIIIIIIIIIIIIIIIIIIIIIII",
"IIIIIIIIIIIIIIIIIIIIIIIIIIIIIIIIIIIIIIIIIIIIIIIIIIIIIIIIIIIIIIIIIIIIIIIIIIIIII",
"IIIIIIIIIIIIIIIIIIIIIIIIIIIIIIIIIIIIIIIIIIIIIIIIIIIIIIIIIIIIIIIIIIIIIIIIIIIIII",
"IIIIIIIIIIIIIIIIIIIIIIIIIIIIIIIIIIIIIIIIIIIIIIIIIIIIIIIIIIIIIIIIIIIIIIIIIIIIII",
"IIIIIIIIIIIIIIIIIIIIIIIIIIIIIIIIIIIIIIIIIIIIIIIIIIIIIIIIIIIIIIIIIIIIIIIIIIIIII",
"IIIIIIIIIIIIIIXX.Xo.o.XXXXXXXXXXXXXXXXXX.oX.oXXXXXXXXXXXXXXXXXXXIIIIIIIIIIIIII",
"IIIIIIIIIIIIIXoooXooooXooooXoooXXoXoXXooXoooooXXoooXoooXoX+XXXoooIIIIIIIIIIIII",
"IIIIIIIIIIIIo+++oo+o+ooo+o+++o++++++oo+o+o+o+o++ooooooooo+oo+o+o++IIIIIIIIIIII",
"IIIIIIIIIIII@@@+@%@@@@@$@@@@@@@@@@@+@$@@@@@@@$@@@@%%@@%%@@@%@@%@@+IIIIIIIIIIII",
"IIIIIIIIIII$%$$&&&&&$$*$$$$&$$&&-$--$$$$$$$$$$$$$$$$$$$$-$$-$$$$$$%IIIIIIIIIII",
"IIIIIIIIII%-&>>>>>>>>>>>>>>>>>>:>>>1>>>>>>>>>>>>>>>>>>>>11>>>>>>>*$%IIIIIIIIII",
"IIIIIIII+@$*>,45455555455555555555555555655555555555555555555554,>*%@oIIIIIIII",
"IIIIIIIoo@$:,56qq8qqqqqqqqqq8qqqqqqqqqqqqqqqqqqqqqqqqqqqqqq8qqq65,>%@ooIIIIIII",
"IIIIII.o+@$>46eeuuttttetttetttttttteeeueetteettetetteteeeueuuuee64>$@ooXIIIIII",
"IIIIIIXoo@$>5qeuuuuuuuuuuuuuuuuuuuuuuuuuuuuuuuuuuuuuuuuuuuuuuuueq5>-@+ooIIIIII",
"IIIIIIXo++$>5qtusssuusuuuuuuusuuuuuusuuuusuusuusuususuuuusssssutq5>$%ooXIIIIII",
"IIIIIIXoo%$>5qeuusssuuusuusuuuuuusuuuuuuuuuuuuuuuuuuuuusuuussuutq5>$%ooXIIIIII",
"IIIIIIXoo+$>5qtussuuuuuuuuuuuuuuuuuuuuuuuuuuuuuuuuuuuuuuuuussuutq5>$+oXXIIIIII",
"IIIIIIXXo%$>4qtuussuuuuuuuuuuuuuuuuuuuuuuuuuuuuuuuuuuuuuuusuuuueq5>$%oXXIIIIII",
"IIIIIIXoo%%>4qtpsssususussssssssssususussussssssssuusuuususssssuw5>;++XXIIIIII",
"IIIIII.o++$,7epggggggggghsshshsfgggggggggggggfsgggggggggggggggguw7>*-+XXIIIIII",
"IIIIIIXo+%$4qigkccccccckkkkkzzkkkkckkkkkkkkkkkkkcckccckccccccckga92;++XXIIIIII",
"IIIIII.X+%<7wgvbMMMbbbbbnnnnnnnnbMbbnnnnnnnnnnnnbbbbbbbbbbbMbnbcjy0<-+XXIIIIII",
"IIIIII.Xo%19avvBVVVVVBBBBVBBVBVVVVBBBBBVBBVVBBBVBBBBBBBBVVVVVVBnla0<-oXXIIIIII",
"IIIIII.o+%1wdvVZASSAZZAAAAAAAAZZAAAAAAAAAAAAAAAAAAAZSAAAZZASSSZVmdr2-+X.IIIIII",
"IIIIII.X+-2wjmZSFFGDFDFFFFFFFFFFDDDFFFFDFFFFFFFFFFFDFDFDDDDFGDDZmlr2-+X.IIIIII",
"IIIIII.X+-2ylNSGJJJJGGGGGGGGFGGFGGGGGGGGFGGGGGFGGGGGGGGHGGJGJHGANlr0-oX.IIIIII",
"IIIIII X+-0yxBSHKLLKKKKKHKKKKHKKKKKKHHKHKHHKHKHHHHHHHHHHHJKKKKKDNvy0-+X.IIIIII",
"IIIIII.X+-0yxVGJLPPLKKPKKKLKLKLKKKKKKKKKKKKKKKKKKHHKHHHHHKKLPLKDNvy0-+X.IIIIII",
"IIIIII.X+-0ixCDLPPPPLKLKLKLKKLKLLLKKKKKKKKKKKKKKHKHHHHHHHHKLLLKDBvy0-+X IIIIII",
"IIIIII.X+-0yxBDJLLLKKKKKKKKKKKKKKKKHKKHKHHKHHHHHHHHHHHHHHHKKLLLDNvy0-+X.IIIIII",
"IIIIII.X+-3rjNSGHHHGGFGGFFFGGFGFFGFFGFGGGGGFGGGGGHGHGHGGGHKKHHGSmly2-+X.IIIIII",
"IIIIII.X+-2rjmZSDFSFSSSSFSFSSSSSSSSFFFFFFDFDFFFFFGGGHGHHKFFFFFSZmjr2-+X.IIIIII",
"IIIIIIIX+-2wavmNNNNBNNNNNNNNNNNBNBBBCCZZZZZZZASFFFGGHHKGGFFFSZBmvar2-+XIIIIIII",
"IIIIIIIIo-20rajlxxlllllxllxxxxllxxvmmNNNBBBBBVCZFFFGGHKHGFFCNmvldy01-+IIIIIIII",
"IIIIIIIIII100rrryyyyryyryyyyyyrryyidjzncbbbbbnBBZFFHKKKHFFSBvjayr00<IIIIIIIIII",
"IIIIIIIIIII11223020233333330,,,2359rishhkkhkkcnBCAFGKKKHFFBmja901<;IIIIIIIIIII",
"IIIIIIIIIIII--------------;;$$$$-=>7wtsfhgggszcMCAFGKKKKHFBxa9<--+IIIIIIIIIIII",
"IIIIIIIIIIII++++++++++++++OO+++O##=5qtshghggfkbMCAFGGLLKFFNxy3-OXXIIIIIIIIIIII",
"IIIIIIIIIIIIIXXXXXXXXXXXXXXoo++@#*,7rsshzhkkkcnBBSFGKKPKFFNxr2#oX IIIIIIIIIIII",
"IIIIIIIIIIIIII............Xoo+@$*>5rihcbnnbbnMMCSFGGKKPKFFNlr2#X  IIIIIIIIIIII",
"IIIIIIIIIIIIIIIIIIIIII...XXo+$$:,6tuhbMBBBBBBBCZSFFHKPPKFFNxr2-X  IIIIIIIIIIII",
"IIIIIIIIIIIIIIIIIIIIIII.XXo+@$:,6ruhnMCCAAAZAASFFFGHKKKKKFBxr2-+X IIIIIIIIIIII",
"IIIIIIIIIIIIIIIIIIIIIIIIXoo@$*,6tthbMCADFFFFFFFFFGGGGJJHGSNjy2-+X.IIIIIIIIIIII",
"IIIIIIIIIIIIIIIIIIIIIIIIXXo@$:,6tsknBADGHHHGGGGGGGHGGGFFDZmjr2-+X.IIIIIIIIIIII",
"IIIIIIIIIIIIIIIIIIIIIIIIXX++$:4qtfcMCSFGKKKHHHHHHHGGDSSZNmvaw2-+XIIIIIIIIIIIII",
"IIIIIIIIIIIIIIIIIIIIIIIIXXo+$:46tfzMCSFHKKKKHHHKHHGFSZNmvldy01-+IIIIIIIIIIIIII",
"IIIIIIIIIIIIIIIIIIIIIIII.Xoo$*,qtdxNNZFGKKKKHKHKKHHFZNvlayw00<IIIIIIIIIIIIIIII",
"IIIIIIIIIIIIIIIIIIIIIIIIXoo@$:46tjxmNFFGHHKKGGHKHHGFZmjyw02<;IIIIIIIIIIIIIIIII",
"IIIIIIIIIIIIIIIIIIIIIIIIXoo%&:4qufvmZFFGHHKGHGHKHHFFNva9<-#+IIIIIIIIIIIIIIIIII",
"IIIIIIIIIIIIIIIIIIIIIIII+@@%>>6tshvNNZFGHHGKGHHKKHFSNly0#OoXIIIIIIIIIIIIIIIIII",
"IIIIIIIIIIIIIIIIIIIIIII@%%*>,5eihcMBNFFGHHHHGHKKKKGSNlr2#X. IIIIIIIIIIIIIIIIII",
"IIIIIIIIIIIIIIIIIIIIII%$&*>,7eikcMBCFFFGHHHHHGHKPKHDNlr2#X. IIIIIIIIIIIIIIIIII",
"IIIIIIIIIIIIIIIIIIIIo@$&:,56tplbMBZSFFGGGHHGHHKKPKHFNly2-X. IIIIIIIIIIIIIIIIII",
"IIIIIIIIIIIIIIIIIIIo+@$*>5qtplbMCZDFFGGGHHGHGGHKKKKFNvy2-oX.IIIIIIIIIIIIIIIIII",
"IIIIIIIIIIIIIIIIIIXoo@$*,6eshnMCSFFGGGGGGHGHGGGHJGGDmjy2-+X.IIIIIIIIIIIIIIIIII",
"IIIIIIIIIIIIIIIIIIXoo@$>,6tsknVAFFHHHHGHHHHGHGGGFDDSmjr2-+X.IIIIIIIIIIIIIIIIII",
"IIIIIIIIIIIIIIIIIIXoo@->58thznVAFHKHKGHGHHHHGFFFSBNmvar2-+XIIIIIIIIIIIIIIIIIII",
"IIIIIIIIIIIIIIIIIIXXo@$>,8uszMCSFHKKKKHGHHHHGFFBNmvlay0<-+IIIIIIIIIIIIIIIIIIII",
"IIIIIIIIIIIIIIIIIIXo+@&:58tszMCAFGHKHHGGHHHHGFFNmlayw02<IIIIIIIIIIIIIIIIIIIIII",
"IIIIIIIIIIIIIIIIIIXo+@$:,8ugznVAFGHKKGGHHKKHGFNmjyw02<<IIIIIIIIIIIIIIIIIIIIIII",
"IIIIIIIIIIIIIIIIIIXoo@&>58tgknCAFGKHKGGKHHHHGFNva9<-#+IIIIIIIIIIIIIIIIIIIIIIII",
"IIIIIIIIIIIIIIIIIIXX+@&>5eshnNCAFGGKGKGGHKKGFSNly0-oXXIIIIIIIIIIIIIIIIIIIIIIII",
"IIIIIIIIIIIIIIIIIIXXo@<29agcnVZSFHHHHHHGHHKKFFmlr2#XX IIIIIIIIIIIIIIIIIIIIIIII",
"IIIIIIIIIIIIIIIIIIXX+@<0wdvnVCADFGHHHGGHHHKHFZmlr1#o. IIIIIIIIIIIIIIIIIIIIIIII",
"IIIIIIIIIIIIIIIIIIXXo-10avmVZSDDGGHHHHGGHKKKGFNjr2#o. IIIIIIIIIIIIIIIIIIIIIIII",
"IIIIIIIIIIIIIIIIII.Xo-2wdvVZDFFGGGGHGHGHHKKHFFNlr2-oX IIIIIIIIIIIIIIIIIIIIIIII",
"IIIIIIIIIIIIIIIIII.X+-2rjmCDGHGHGGHGHGGHHKKHGFNly0;+X.IIIIIIIIIIIIIIIIIIIIIIII",
"IIIIIIIIIIIIIIIIII.X+-0ylNSGHJHHHHGHGHHHHKKHFSNly0-+X IIIIIIIIIIIIIIIIIIIIIIII",
"IIIIIIIIIIIIIIIIII.X+-0ylBSHKLKKHHHHHHHHKKPKGFmxy2-oXXIIIIIIIIIIIIIIIIIIIIIIII",
"IIIIIIIIIIIIIIIIII.X+-0yxBGKLPLKKKKKKHKHKPPKHFNxy0-oX IIIIIIIIIIIIIIIIIIIIIIII",
"IIIIIIIIIIIIIIIIII.X+;0yvBDLPPPLKKKKKKKKLPPJJDNxy0-oX.IIIIIIIIIIIIIIIIIIIIIIII",
"IIIIIIIIIIIIIIIIII.X+;0yxBDJJPLJKHHKHKHHJLJJJGNxy0;+X IIIIIIIIIIIIIIIIIIIIIIII",
"IIIIIIIIIIIIIIIIII.X+;2rlNSGJJJGFGGGGFGGGHJJGDNlr0;oX.IIIIIIIIIIIIIIIIIIIIIIII",
"IIIIIIIIIIIIIIIIII.X+-2wjmZSDDSSSSSSSSSSSSDDSZmjr0;+XXIIIIIIIIIIIIIIIIIIIIIIII",
"IIIIIIIIIIIIIIIIIIIX+-2waxmNNNBNNNNNNNNNNNNBNmxar1-oXIIIIIIIIIIIIIIIIIIIIIIIII",
"IIIIIIIIIIIIIIIIIIII+-19yajlxxxxlxllllxlxxxvljay91-oIIIIIIIIIIIIIIIIIIIIIIIIII",
"IIIIIIIIIIIIIIIIIIIIII<09wwyyyyyrrrrryyyyyryrww90<IIIIIIIIIIIIIIIIIIIIIIIIIIII",
"IIIIIIIIIIIIIIIIIIIIIII<122220203303302202020211<IIIIIIIIIIIIIIIIIIIIIIIIIIIII",
"IIIIIIIIIIIIIIIIIIIIIIII---;----------;----;----IIIIIIIIIIIIIIIIIIIIIIIIIIIIII",
"IIIIIIIIIIIIIIIIIIIIIIII+o++++++++++++++++++++++IIIIIIIIIIIIIIIIIIIIIIIIIIIIII",
"IIIIIIIIIIIIIIIIIIIIIIIIIXXXXXXXXXXXXXXXXXXXXXXIIIIIIIIIIIIIIIIIIIIIIIIIIIIIII",
"IIIIIIIIIIIIIIIIIIIIIIIIII.. ..... XX . ......IIIIIIIIIIIIIIIIIIIIIIIIIIIIIIII",
"IIIIIIIIIIIIIIIIIIIIIIIIIIIIIIIIIIIIIIIIIIIIIIIIIIIIIIIIIIIIIIIIIIIIIIIIIIIIII",
"IIIIIIIIIIIIIIIIIIIIIIIIIIIIIIIIIIIIIIIIIIIIIIIIIIIIIIIIIIIIIIIIIIIIIIIIIIIIII",
"IIIIIIIIIIIIIIIIIIIIIIIIIIIIIIIIIIIIIIIIIIIIIIIIIIIIIIIIIIIIIIIIIIIIIIIIIIIIII",
"IIIIIIIIIIIIIIIIIIIIIIIIIIIIIIIIIIIIIIIIIIIIIIIIIIIIIIIIIIIIIIIIIIIIIIIIIIIIII",
"IIIIIIIIIIIIIIIIIIIIIIIIIIIIIIIIIIIIIIIIIIIIIIIIIIIIIIIIIIIIIIIIIIIIIIIIIIIIII",
"IIIIIIIIIIIIIIIIIIIIIIIIIIIIIIIIIIIIIIIIIIIIIIIIIIIIIIIIIIIIIIIIIIIIIIIIIIIIII"
};
