/* XPM */
static char *_[] = {
/* columns rows colors chars-per-pixel */
"90 104 4 1 ",
"  c gray8",
". c #004766",
"X c #0287C4",
"o c #000000",
/* pixels */
"oooooooooooooooooooooooooooooooooooooooooooooooooooooooooooooooooooooooooooooooooooooooooo",
"oooooooooooooooooooooooooooooooooooooooooooooooooooooooooooooooooooooooooooooooooooooooooo",
"oooooooooooooooooooooooooooooooooooooooooooooooooooooooooooooooooooooooooooooooooooooooooo",
"oooooooooooooooooooooooooooooooooooooooooooooooooooooooooooooooooooooooooooooooooooooooooo",
"oooooooooooooooooooooooooooooooooooooooooooooooooooooooooooooooooooooooooooooooooooooooooo",
"oooooooooooooooooooooooooooooooooooooooooooooooooooooooooooooooooooooooooooooooooooooooooo",
"oooooooooooooo                                                              oooooooooooooo",
"oooooooooooooo                                                              oooooooooooooo",
"oooooooooooooo                                                              oooooooooooooo",
"oooooooooooooo                                                              oooooooooooooo",
"oooooooooooooo                                                              oooooooooooooo",
"oooooooooooooo                                                              oooooooooooooo",
"oooooooooooooo                                                              oooooooooooooo",
"oooooooooooooo                                                              oooooooooooooo",
"oooooo        ..............................................................        oooooo",
"oooooo        ..............................................................        oooooo",
"oooooo        ..............................................................        oooooo",
"oooooo        ..............................................................        oooooo",
"oooooo        ..............................................................        oooooo",
"oooooo        ..............................................................        oooooo",
"oooooo        ..............................................................        oooooo",
"oooooo        ..............................................................        oooooo",
"oooooo        ..............................................................        oooooo",
"oooooo        ..............................................................        oooooo",
"oooooo        ..............................................................        oooooo",
"oooooo        ..............................................................        oooooo",
"oooooo        ..............................................................        oooooo",
"oooooo        ..............................................................        oooooo",
"oooooo        XXXXXXXXXXXXXXXXXXXXXXXXXXXXXXXXXXXXXXXXXXXXXXXXXXXXXXXXXXXXXX        oooooo",
"oooooo        XXXXXXXXXXXXXXXXXXXXXXXXXXXXXXXXXXXXXXXXXXXXXXXXXXXXXXXXXXXXXX        oooooo",
"oooooo        XXXXXXXXXXXXXXXXXXXXXXXXXXXXXXXXXXXXXXXXXXXXXXXXXXXXXXXXXXXXXX        oooooo",
"oooooo        XXXXXXXXXXXXXXXXXXXXXXXXXXXXXXXXXXXXXXXXXXXXXXXXXXXXXXXXXXXXXX        oooooo",
"oooooo        XXXXXXXXXXXXXXXXXXXXXXXXXXXXXXXXXXXXXXXXXXXXXXXXXXXXXXXXXXXXXX        oooooo",
"oooooo        XXXXXXXXXXXXXXXXXXXXXXXXXXXXXXXXXXXXXXXXXXXXXXXXXXXXXXXXXXXXXX        oooooo",
"oooooo        XXXXXXXXXXXXXXXXXXXXXXXXXXXXXXXXXXXXXXXXXXXXXXXXXXXXXXXXXXXXXX        oooooo",
"oooooo        XXXXXXXXXXXXXXXXXXXXXXXXXXXXXXXXXXXXXXXXXXXXXXXXXXXXXXXXXXXXXX        oooooo",
"oooooo        XXXXXXXXXXXXXXXXXXXXXXXXXXXXXXXXXXXXXXXXXXXXXXXXXXXXXXXXXXXXXX        oooooo",
"oooooo        XXXXXXXXXXXXXXXXXXXXXXXXXXXXXXXXXXXXXXXXXXXXXXXXXXXXXXXXXXXXXX        oooooo",
"oooooo        XXXXXXXXXXXXXXXXXXXXXXXXXXXXXXXXXXXXXXXXXXXXXXXXXXXXXXXXXXXXXX        oooooo",
"oooooo        XXXXXXXXXXXXXXXXXXXXXXXXXXXXXXXXXXXXXXXXXXXXXXXXXXXXXXXXXXXXXX        oooooo",
"oooooo        XXXXXXXXXXXXXXXXXXXXXXXXXXXXXXXXXXXXXXXXXXXXXXXXXXXXXXXXXXXXXX        oooooo",
"oooooo        XXXXXXXXXXXXXXXXXXXXXXXXXXXXXXXXXXXXXXXXXXXXXXXXXXXXXXXXXXXXXX        oooooo",
"oooooooooooooo                            ..............XXXXXXXXXXXXXX      oooooooooooooo",
"oooooooooooooo                            ..............XXXXXXXXXXXXXX      oooooooooooooo",
"oooooooooooooo                            ..............XXXXXXXXXXXXXX      oooooooooooooo",
"oooooooooooooo                            ..............XXXXXXXXXXXXXX      oooooooooooooo",
"oooooooooooooo                            ..............XXXXXXXXXXXXXX      oooooooooooooo",
"oooooooooooooo                            ..............XXXXXXXXXXXXXX      oooooooooooooo",
"oooooooooooooooooooooooooooo      ........XXXXXXXXXXXXXXXXXXXXXXXXXXXX      oooooooooooooo",
"oooooooooooooooooooooooooooo      ........XXXXXXXXXXXXXXXXXXXXXXXXXXXX      oooooooooooooo",
"oooooooooooooooooooooooooooo      ........XXXXXXXXXXXXXXXXXXXXXXXXXXXX      oooooooooooooo",
"oooooooooooooooooooooooooooo      ........XXXXXXXXXXXXXXXXXXXXXXXXXXXX      oooooooooooooo",
"oooooooooooooooooooooooooooo      ........XXXXXXXXXXXXXXXXXXXXXXXXXXXX      oooooooooooooo",
"oooooooooooooooooooooooooooo      ........XXXXXXXXXXXXXXXXXXXXXXXXXXXX      oooooooooooooo",
"oooooooooooooooooooooooooooo      ........XXXXXXXXXXXXXXXXXXXXXXXXXXXX      oooooooooooooo",
"oooooooooooooooooooooooooooo      ........XXXXXXXXXXXXXXXXXXXXXXXXXXXX      oooooooooooooo",
"oooooooooooooooooooooooooooo      ........XXXXXXXXXXXXXXXXXXXX        oooooooooooooooooooo",
"oooooooooooooooooooooooooooo      ........XXXXXXXXXXXXXXXXXXXX        oooooooooooooooooooo",
"oooooooooooooooooooooooooooo      ........XXXXXXXXXXXXXXXXXXXX        oooooooooooooooooooo",
"oooooooooooooooooooooooooooo      ........XXXXXXXXXXXXXXXXXXXX        oooooooooooooooooooo",
"oooooooooooooooooooooooooooo      ........XXXXXXXXXXXXXXXXXXXX        oooooooooooooooooooo",
"oooooooooooooooooooooooooooo      ........XXXXXXXXXXXXXXXXXXXX        oooooooooooooooooooo",
"oooooooooooooooooooo        ......XXXXXXXXXXXXXXXXXXXXXXXXXXXX        oooooooooooooooooooo",
"oooooooooooooooooooo        ......XXXXXXXXXXXXXXXXXXXXXXXXXXXX        oooooooooooooooooooo",
"oooooooooooooooooooo        ......XXXXXXXXXXXXXXXXXXXXXXXXXXXX        oooooooooooooooooooo",
"oooooooooooooooooooo        ......XXXXXXXXXXXXXXXXXXXXXXXXXXXX        oooooooooooooooooooo",
"oooooooooooooooooooo        ......XXXXXXXXXXXXXXXXXXXXXXXXXXXX        oooooooooooooooooooo",
"oooooooooooooooooooo        ......XXXXXXXXXXXXXXXXXXXXXXXXXXXX        oooooooooooooooooooo",
"oooooooooooooooooooo        ......XXXXXXXXXXXXXXXXXXXXXXXXXXXX        oooooooooooooooooooo",
"oooooooooooooooooooo        ......XXXXXXXXXXXXXXXXXXXXXXXXXXXX        oooooooooooooooooooo",
"oooooooooooooooooooo        ......XXXXXXXXXXXXXXXXXXXXXX      oooooooooooooooooooooooooooo",
"oooooooooooooooooooo        ......XXXXXXXXXXXXXXXXXXXXXX      oooooooooooooooooooooooooooo",
"oooooooooooooooooooo        ......XXXXXXXXXXXXXXXXXXXXXX      oooooooooooooooooooooooooooo",
"oooooooooooooooooooo        ......XXXXXXXXXXXXXXXXXXXXXX      oooooooooooooooooooooooooooo",
"oooooooooooooooooooo        ......XXXXXXXXXXXXXXXXXXXXXX      oooooooooooooooooooooooooooo",
"oooooooooooooooooooo        ......XXXXXXXXXXXXXXXXXXXXXX      oooooooooooooooooooooooooooo",
"oooooooooooooooooooo        XXXXXXXXXXXXXXXXXXXXXXXXXXXX      oooooooooooooooooooooooooooo",
"oooooooooooooooooooo        XXXXXXXXXXXXXXXXXXXXXXXXXXXX      oooooooooooooooooooooooooooo",
"oooooooooooooooooooo        XXXXXXXXXXXXXXXXXXXXXXXXXXXX      oooooooooooooooooooooooooooo",
"oooooooooooooooooooo        XXXXXXXXXXXXXXXXXXXXXXXXXXXX      oooooooooooooooooooooooooooo",
"oooooooooooooooooooo        XXXXXXXXXXXXXXXXXXXXXXXXXXXX      oooooooooooooooooooooooooooo",
"oooooooooooooooooooo        XXXXXXXXXXXXXXXXXXXXXXXXXXXX      oooooooooooooooooooooooooooo",
"oooooooooooooooooooo        XXXXXXXXXXXXXXXXXXXXXXXXXXXX      oooooooooooooooooooooooooooo",
"oooooooooooooooooooo        XXXXXXXXXXXXXXXXXXXXXXXXXXXX      oooooooooooooooooooooooooooo",
"oooooooooooooooooooo        XXXXXXXXXXXXXXXXXXXXXXXXXXXX      oooooooooooooooooooooooooooo",
"oooooooooooooooooooo        XXXXXXXXXXXXXXXXXXXXXXXXXXXX      oooooooooooooooooooooooooooo",
"oooooooooooooooooooo        XXXXXXXXXXXXXXXXXXXXXXXXXXXX      oooooooooooooooooooooooooooo",
"oooooooooooooooooooo        XXXXXXXXXXXXXXXXXXXXXXXXXXXX      oooooooooooooooooooooooooooo",
"oooooooooooooooooooo        XXXXXXXXXXXXXXXXXXXXXXXXXXXX      oooooooooooooooooooooooooooo",
"oooooooooooooooooooo        XXXXXXXXXXXXXXXXXXXXXXXXXXXX      oooooooooooooooooooooooooooo",
"oooooooooooooooooooooooooooo                            oooooooooooooooooooooooooooooooooo",
"oooooooooooooooooooooooooooo                            oooooooooooooooooooooooooooooooooo",
"oooooooooooooooooooooooooooo                            oooooooooooooooooooooooooooooooooo",
"oooooooooooooooooooooooooooo                            oooooooooooooooooooooooooooooooooo",
"oooooooooooooooooooooooooooo                            oooooooooooooooooooooooooooooooooo",
"oooooooooooooooooooooooooooo                            oooooooooooooooooooooooooooooooooo",
"oooooooooooooooooooooooooooo                            oooooooooooooooooooooooooooooooooo",
"oooooooooooooooooooooooooooo                            oooooooooooooooooooooooooooooooooo",
"oooooooooooooooooooooooooooooooooooooooooooooooooooooooooooooooooooooooooooooooooooooooooo",
"oooooooooooooooooooooooooooooooooooooooooooooooooooooooooooooooooooooooooooooooooooooooooo",
"oooooooooooooooooooooooooooooooooooooooooooooooooooooooooooooooooooooooooooooooooooooooooo",
"oooooooooooooooooooooooooooooooooooooooooooooooooooooooooooooooooooooooooooooooooooooooooo",
"oooooooooooooooooooooooooooooooooooooooooooooooooooooooooooooooooooooooooooooooooooooooooo",
"oooooooooooooooooooooooooooooooooooooooooooooooooooooooooooooooooooooooooooooooooooooooooo"
};
