/* XPM */
static char *_[] = {
/* columns rows colors chars-per-pixel */
"78 90 64 1 ",
"  c #150D0A",
". c #15110F",
"X c #141414",
"o c #141618",
"O c #121A1D",
"+ c #0F1F26",
"@ c #111E23",
"# c #0F2027",
"$ c #0F222B",
"% c #122027",
"& c #12232B",
"* c #0D2632",
"= c #0C2835",
"- c #0B2C3A",
"; c #112630",
": c #102A34",
"> c #102F3D",
", c #10303F",
"< c #092F40",
"1 c #0A3243",
"2 c #06374C",
"3 c #0B3649",
"4 c #05394F",
"5 c #0C394E",
"6 c #053B52",
"7 c #0C3E54",
"8 c #033F59",
"9 c #0D4057",
"0 c #02415D",
"q c #0D425A",
"w c #004665",
"e c #094661",
"r c #004867",
"t c #0C4966",
"y c #014A6A",
"u c #094C6B",
"i c #00506D",
"p c #004E70",
"a c #005074",
"s c #0A5273",
"d c #01557B",
"f c #0A5679",
"g c #00587F",
"h c #09587C",
"j c #015C85",
"k c #095B80",
"l c #015E89",
"z c #01618C",
"x c #08638C",
"c c #026592",
"v c #046997",
"b c #036B9B",
"n c #016FA1",
"m c #0272A4",
"M c #0276AB",
"N c #0278AE",
"B c #037BB3",
"V c #037EBC",
"C c #0281BC",
"Z c #0286C3",
"A c #0289C6",
"S c #0287CB",
"D c #028BCA",
"F c #000000",
/* pixels */
"FFFFFFFFFFFFFFFFFFFFFFFFFFFFFFFFFFFFFFFFFFFFFFFFFFFFFFFFFFFFFFFFFFFFFFFFFFFFFF",
"FFFFFFFFFFFFFFFFFFFFFFFFFFFFFFFFFFFFFFFFFFFFFFFFFFFFFFFFFFFFFFFFFFFFFFFFFFFFFF",
"FFFFFFFFFFFFFFFFFFFFFFFFFFFFFFFFFFFFFFFFFFFFFFFFFFFFFFFFFFFFFFFFFFFFFFFFFFFFFF",
"FFFFFFFFFFFFFFFFFFFFFFFFFFFFFFFFFFFFFFFFFFFFFFFFFFFFFFFFFFFFFFFFFFFFFFFFFFFFFF",
"FFFFFFFFFFFFFFFFFFFFFFFFFFFFFFFFFFFFFFFFFFFFFFFFFFFFFFFFFFFFFFFFFFFFFFFFFFFFFF",
"FFFFFFFFFFFFFFFFFFFFFFFFFFFFFFFFFFFFFFFFFFFFFFFFFFFFFFFFFFFFFFFFFFFFFFFFFFFFFF",
"FFFFFFFFFFFFFFFFFFFF....................... .. X..........FFFFFFFFFFFFFFFFFFFF",
"FFFFFFFFFFFFFFFFFFFXXX.XXXX.XXX.XX.X.XXX.XXXXXXXXXX.XXX.XXXFFFFFFFFFFFFFFFFFFF",
"FFFFFFFFFFFFFFFFFFooXooXoXoooXXoXXXXoXoXoXoXoXoXoXooXoXoXXoXFFFFFFFFFFFFFFFFFF",
"FFFFFFFFFFFFFFFFFFOOOoOOOOOOOOOOOOOOOOOOOOOOOOOOOOOOOOOOOOOOFFFFFFFFFFFFFFFFFF",
"FFFFFFFFFFFFFFFFF++++#$$+++++++$$%%%$+++++++$+++++##++++%@+@@FFFFFFFFFFFFFFFFF",
"FFFFFFFFFFFFFFFFO+#**=*========*===:==================-=:**&+OFFFFFFFFFFFFFFFF",
"FFFFFFFFFFFFFFXoO$*--1111111111111<111<111<111<11<1111111--*$@oXFFFFFFFFFFFFFF",
"FFFFFFFFFFFFF.Xo+*-1466666666446666666666666666666666666641-$+oX.FFFFFFFFFFFFF",
"FFFFFFFFFFFF.XoO+=<2600000000008080808080808080808000000064<=$OoX.FFFFFFFFFFFF",
"FFFFFFFFFFFFoOO+*-160rrrrwwrwwrwrwrwrwrwrrrwrwrwrwwrrrrrr061-$+OOoFFFFFFFFFFFF",
"FFFFFFFFFFFO@@#$-<28wwrrrrrrrrrwwrrrrrwrwrrrrrwrrrwrrrrrr082<=*+++@FFFFFFFFFFF",
"FFFFFFFFFF@+$$=-<2680rrrrrrwwwrrrrwrwwrrrrwrwwrrrrrwrrrrww862<-=*++OFFFFFFFFFF",
"FFFFFFFFoO+$=-<146600wrrrwwwwwwwwwwwwwrwwwwwwwwwwwwwwrrrw808621<-=+@OoFFFFFFFF",
"FFFFFFFXXo+*-14660w0wwwrrwwrwwwwwwwwwwrrwwwwwwwrwwwwwwrrwww888621-=+OoXFFFFFFF",
"FFFFFF.XXO+=-280wrrrrrryyrryryyyrrrryyryryrryrryrrrrrrrrrrrrrw882<=+OoX.FFFFFF",
"FFFFFF.XoO+=168rryyyypppayyayayyyppppypyypypayyapyppppppppypyrr86<=@Oo..FFFFFF",
"FFFFFF.XXO+=160rypaddgggggdggggggggggddgdggggdggggdgggggddpapprw6<=+OXX.FFFFFF",
"FFFFFF..oO+*<60rpggjllzzzzzzzzzzlzzlzzzzzzzzzzzzlclzzzzzlljjdpr86<=+OX..FFFFFF",
"FFFFFF.XXO@=<60ypjjcvbmnbbbnbbnbbbbbbbbbbbbbbbbbnbbbnbmbbbcljpr06<*+OXX.FFFFFF",
"FFFFFF.XXO@*<40ydjcbmNNNBNNNNNNNNBNNBNNBMMBNNBNNNNNMNNBNNmbcjdy06<*+@XX.FFFFFF",
"FFFFFF.XoO%=<6epjzbmBBCCCCCCCBCCVVCCCVCCCCCCCCCCCCCCCCCCVBmvlgpw5<;+OXX.FFFFFF",
"FFFFFF..oO$=18rajvnNVZAZZZZZZZZZZZCZCZZZZZZZZZCZZZZZZAAZZVNmvjar83:+OX..FFFFFF",
"FFFFFF.XoO&-6epjcbmVCAADDAAAAAAAAAAADADAADAAAAAAAAAAADDDACBMncjpq7>&%X..FFFFFF",
"FFFFFF Xo@&<7ugcnmBVZADDDDDAADADDDDDDDDDDDDDDDDDADAAADDAAZCBmnzju71;%X..FFFFFF",
"FFFFFF .o@:3efcnMBVZZADAAAAAADDDDDDDDDDDDDDDDDDDADAAAADAAZCVBMbcft5;oX..FFFFFF",
"FFFFFF XX@:7ulbNBCZZZZAAAAAAAAAAADDADAADDADAADAAAAAAAAAAAZZZCVNbkt9>%o. FFFFFF",
"FFFFFF .X%,9fxMCZZZAZZZAZAZZAZZZZZCZZZZCZZZZZZAAZAAZAAZZAZZAZCCMxf9,%.. FFFFFF",
"FFFFFF .o%,qfxBCADDAAAZZAZAZZZCCCCCCCCCCVVCBCCCCCZZZZZZAZZADDACBxfq,%o. FFFFFF",
"FFFFFF .o%,qfxBZDDDAZZZAZAZZCCBBNMMMMMMMNMMNMNBBCCZZZAAZAZADDDABvhq,%o. FFFFFF",
"FFFFFF .o%,qkbBZDDDAAAAZAZACCBMmnbbvbbbbbvvvbbmNBCCZAAZAZADDDDABbhq,%o..FFFFFF",
"FFFFFF .o%,qhbCZDDDDZAZAAAZCBMmvzzllzzzzlljllccnNBCZAAAZAZDDDDABbhq,%o. FFFFFF",
"FFFFFF .o%,qhvBZDDDAAZAAAAZCBmvzjdddaadaddadgjzvmBCZAAAAZAADDDZBbfq,%o. FFFFFF",
"FFFFFF .o%,qhvBCDDDAZAAAAAZCBmcldppyyaiappyppdlcmNCZAAAAZAADDAZBvf9>%o. FFFFFF",
"FFFFFF .o%,9hxBZDDDAAZAAAAZCNncldaayayappppppdlcmBCZAAAAAZADDDCBvfq>%o. FFFFFF",
"FFFFFF .o&1qfvBZDDDDDDAAAAZCBmvzjddaaddddaadgjlvMBCZAAAAAADDDDABvhq,%o. FFFFFF",
"FFFFFF .X%>qfbBZDDDDDDADAAZCBNmvzlllllzllllzzcvnMBCZADAAAADDDDZCbfq,%o. FFFFFF",
"FFFFFF  X&1qfbBADDDDDAAAAAACCBNmnvvvvbbvbvvvbbmNBCCAAADAAADDDDZBbfq1%o. FFFFFF",
"FFFFFF .X%1qfbBADDDDAAAAAAAZCCBBNNNNMMNMNMMMNNBBCCZZAAAAAADDDDZBvfq>%o. FFFFFF",
"FFFFFF .o+<7fvBZAADAZZZZZZZZZCCCCCVBCCCCCCCBCCCCCZZZZZZZZZZDDDCVvh7>+o. FFFFFF",
"FFFFFF .o@>7scMVCZCCCCCCZZZZAAZZZZZZZZZZCZZZZZZZAZAZZZCCCCCCZCVNxf71+o. FFFFFF",
"FFFFFF .o@:7ukbMBBBNNBBBCCZZAAAAZAAAAAAAAAAAAAAAAAZZCCBBNNNBBBMbku7:@o. FFFFFF",
"FFFFFF..o@:3efzvbbbbvbmNBCCZAADADAADAAAADAADAAADAAACVBNmnvbbbbvxhq3:@oX.FFFFFF",
"FFFFFF..o%;,9uhklllllcvnMBCAAADAAAAAAAAAAAAAAAAAAAZCBNmvzzllzllgy81;@XX.FFFFFF",
"FFFFFF..oo&>9qpfgggddjzvmBCZAAAAAAAAAAAAAAAAAAAAAAACBmvzjddggddue5<+@X..FFFFFF",
"FFFFFF.Xo%&>58upaappydlcmNCZAAAAZZZAZZZAZAAZZAAAAAZCNmcldiappayyq5>&@X..FFFFFF",
"FFFFFF..Xo&:38rpppppidlcnBCZAAAAAZAZZAZZAZZZAZAAAAZCNmcldyipaayy73:&@...FFFFFF",
"FFFFFF..X@+<5epagddgdjzvmBCZAAAAAAAZAAAAAAZAAAADAAACBmvzjgdgggapt5>&oo..FFFFFF",
"FFFFFF.XX@;<8ukllzllzzvmNBCZADADAAAADAAAAAAAAAAAAAACBMmvzllzzlldt9,;%X..FFFFFF",
"FFFFFF .o@:3eflvbnbvvnmMBCZZAAAAAAADAADAAAADAAADAAZCCBNmbbvbnbvxft,;%...FFFFFF",
"FFFFFF .X+-5ujbMNBBNNNBVCCZZZAAAAAAAAAAAAAAAAAAAAAZZCCBBBNNNBNMbks9>%o. FFFFFF",
"FFFFFF .o+>7sxBVZZCCCCCCZZZZZZZZZZZZZZZZZZZZZZAZZZZZZZCCVCCCZCVNxhq>%o. FFFFFF",
"FFFFFF .o+17fxVZDDDZZZZZZZZZZZCCCCCCBCCCCCBCCCCCCZZAZZAZZZZDDAZBxfq,%o. FFFFFF",
"FFFFFF .o&1qfvBZDDDDAAAAZAZZCCBBNNNNMNMMNMMMMNBBCCZZAAAAZADDDSZBmhq,%o. FFFFFF",
"FFFFFF .o+>qfbBZDDDDDAAAAAZZCBNmbbvvvbvvbvvvvnmMBCCZAAAAADDDDSZBxhq,%o. FFFFFF",
"FFFFFF .o%,qfbBADDDDAAAAAAZCBNnvzlllllllzlllzzvmNCCZAAADAADDDDDCbkq,%o. FFFFFF",
"FFFFFF .o%,qfbBADDDDAAAAAAACBmvzjgadddddddaddgzvmBCZAAAAAADDDDZBxhq,%o. FFFFFF",
"FFFFFF .o%,qfbBCDDDAAZAAAAZCBncldapppppppyyaadjcmBCZAAAAAZADDDZBbkq,%o. FFFFFF",
"FFFFFF .o%,qfxBZDDDAZAAAAAZCNncldpppyppppppyadlcnNCZAAAAZAADDDCBxfq,%o. FFFFFF",
"FFFFFF .o%,qkbBZADDDZAAAAAZCBbxxxhffffdddddadjzvMBCAAAAAAZADDDZBbfq,&o. FFFFFF",
"FFFFFF .o%,qkbVSDDDDAZZAAAZCCMmbxxxkljllljllzcvbNBCZAAAZZZDDDDAVbhq,%o. FFFFFF",
"FFFFFF .o%,qfbVSDDDDAZZAZAZZCBBmxbxxvbbvbbvvbbmMBCCZZAAZAADDDDDVbkq,%o. FFFFFF",
"FFFFFF .o%,qfbVSDDDDAZAZAZZZCCBBMBCBMMNNNmNNNNBVCCZZAAZAZAADDDDZbhq,%o. FFFFFF",
"FFFFFF .o%,9fxBZDDAZZZAAZZAAZCCCCCCCCCCCVVCCCCCCCZZZZAZZZZAASZZBxf9>%o. FFFFFF",
"FFFFFF .o%,9sxMVCZZZZZAAAAAAZAAAAAZZZZZAZZZAZZZZAAZAAZAAZZZZCVVMxs9>%o. FFFFFF",
"FFFFFFF.o%>9tfxbMCCCZAADAAAAAAAADDDDAADDADDDADDDAAAADDAAZZCVBmbxkt9>%o.FFFFFFF",
"FFFFFFFFo%;,9tshxxMBZAADDADDDDDDDDDDDDDDDDDDDDDDDDDDDDDDAZVBxxkst9,;%oFFFFFFFF",
"FFFFFFFFFF&>,99tsxxBZDDDDDDDDDDDDDDDDDADDDDDDDDSDDDDDDDDDZBvxst99,,;FFFFFFFFFF",
"FFFFFFFFFFF%;>,5qfxBCADADDAAADDDAADDDDAADDSADDAADDDDDDDDDZMxfq5>;;&FFFFFFFFFFF",
"FFFFFFFFFFFFo%&;9tkxVZSADAZCZZAZCCAAACZCAZZZAZZZZCZCZAASZBvht5;;%oFFFFFFFFFFFF",
"FFFFFFFFFFFF.Xo%,9sxMBCZCBBBBBBBBBCCCCCBBCBBBBVCBBBBBBVCBMxfq,&o. FFFFFFFFFFFF",
"FFFFFFFFFFFFF..%;9tkxxbbmxbxxxbbxxmxmxxxxxxbxbxxvvvvvbbvxxkt9;%. FFFFFFFFFFFFF",
"FFFFFFFFFFFFFF.o;,9tsfhhhhfffffhffffhhkfffhkfkkkffffhhhhfftq,;o.FFFFFFFFFFFFFF",
"FFFFFFFFFFFFFFFF%>,999qqqqqqqqqqqqqqqq9qqqqq9999q9qqqqqq995,,&FFFFFFFFFFFFFFFF",
"FFFFFFFFFFFFFFFFF;;>,,,,,,,>>,,,,,,,,,,,,,,,,,,,,,,,>,,,,,>;;FFFFFFFFFFFFFFFFF",
"FFFFFFFFFFFFFFFFFF%%%%%%%%%%%%%%%%%%%%%%%%%%%%%%%%%%%%%%%%%%FFFFFFFFFFFFFFFFFF",
"FFFFFFFFFFFFFFFFFFoooooooooooooooXoooooooooooooooooXooooooXXFFFFFFFFFFFFFFFFFF",
"FFFFFFFFFFFFFFFFFFF........................................FFFFFFFFFFFFFFFFFFF",
"FFFFFFFFFFFFFFFFFFFF                                      FFFFFFFFFFFFFFFFFFFF",
"FFFFFFFFFFFFFFFFFFFFFFFFFFFFFFFFFFFFFFFFFFFFFFFFFFFFFFFFFFFFFFFFFFFFFFFFFFFFFF",
"FFFFFFFFFFFFFFFFFFFFFFFFFFFFFFFFFFFFFFFFFFFFFFFFFFFFFFFFFFFFFFFFFFFFFFFFFFFFFF",
"FFFFFFFFFFFFFFFFFFFFFFFFFFFFFFFFFFFFFFFFFFFFFFFFFFFFFFFFFFFFFFFFFFFFFFFFFFFFFF",
"FFFFFFFFFFFFFFFFFFFFFFFFFFFFFFFFFFFFFFFFFFFFFFFFFFFFFFFFFFFFFFFFFFFFFFFFFFFFFF",
"FFFFFFFFFFFFFFFFFFFFFFFFFFFFFFFFFFFFFFFFFFFFFFFFFFFFFFFFFFFFFFFFFFFFFFFFFFFFFF",
"FFFFFFFFFFFFFFFFFFFFFFFFFFFFFFFFFFFFFFFFFFFFFFFFFFFFFFFFFFFFFFFFFFFFFFFFFFFFFF"
};
