/* XPM */
static char *_[] = {
/* columns rows colors chars-per-pixel */
"90 104 4 1 ",
"  c gray8",
". c #004766",
"X c #0287C4",
"o c #000000",
/* pixels */
"oooooooooooooooooooooooooooooooooooooooooooooooooooooooooooooooooooooooooooooooooooooooooo",
"oooooooooooooooooooooooooooooooooooooooooooooooooooooooooooooooooooooooooooooooooooooooooo",
"oooooooooooooooooooooooooooooooooooooooooooooooooooooooooooooooooooooooooooooooooooooooooo",
"oooooooooooooooooooooooooooooooooooooooooooooooooooooooooooooooooooooooooooooooooooooooooo",
"oooooooooooooooooooooooooooooooooooooooooooooooooooooooooooooooooooooooooooooooooooooooooo",
"oooooooooooooooooooooooooooooooooooooooooooooooooooooooooooooooooooooooooooooooooooooooooo",
"oooooooooooooooooooo                                                  oooooooooooooooooooo",
"oooooooooooooooooooo                                                  oooooooooooooooooooo",
"oooooooooooooooooooo                                                  oooooooooooooooooooo",
"oooooooooooooooooooo                                                  oooooooooooooooooooo",
"oooooooooooooooooooo                                                  oooooooooooooooooooo",
"oooooooooooooooooooo                                                  oooooooooooooooooooo",
"oooooooooooooooooooo                                                  oooooooooooooooooooo",
"oooooooooooooooooooo                                                  oooooooooooooooooooo",
"oooooooooooooo      ..................................................      oooooooooooooo",
"oooooooooooooo      ..................................................      oooooooooooooo",
"oooooooooooooo      ..................................................      oooooooooooooo",
"oooooooooooooo      ..................................................      oooooooooooooo",
"oooooooooooooo      ..................................................      oooooooooooooo",
"oooooooooooooo      ..................................................      oooooooooooooo",
"oooooo        ..............................................................        oooooo",
"oooooo        ..............................................................        oooooo",
"oooooo        ..............................................................        oooooo",
"oooooo        ..............................................................        oooooo",
"oooooo        ..............................................................        oooooo",
"oooooo        ..............................................................        oooooo",
"oooooo        ..............................................................        oooooo",
"oooooo        ..............................................................        oooooo",
"oooooo        ......XXXXXXXXXXXXXXXXXXXXXXXXXXXXXXXXXXXXXXXXXXXXXXXXXX......        oooooo",
"oooooo        ......XXXXXXXXXXXXXXXXXXXXXXXXXXXXXXXXXXXXXXXXXXXXXXXXXX......        oooooo",
"oooooo        ......XXXXXXXXXXXXXXXXXXXXXXXXXXXXXXXXXXXXXXXXXXXXXXXXXX......        oooooo",
"oooooo        ......XXXXXXXXXXXXXXXXXXXXXXXXXXXXXXXXXXXXXXXXXXXXXXXXXX......        oooooo",
"oooooo        ......XXXXXXXXXXXXXXXXXXXXXXXXXXXXXXXXXXXXXXXXXXXXXXXXXX......        oooooo",
"oooooo        ......XXXXXXXXXXXXXXXXXXXXXXXXXXXXXXXXXXXXXXXXXXXXXXXXXX......        oooooo",
"oooooo        XXXXXXXXXXXXXXXXXXXXXXXXXXXXXXXXXXXXXXXXXXXXXXXXXXXXXXXXXXXXXX        oooooo",
"oooooo        XXXXXXXXXXXXXXXXXXXXXXXXXXXXXXXXXXXXXXXXXXXXXXXXXXXXXXXXXXXXXX        oooooo",
"oooooo        XXXXXXXXXXXXXXXXXXXXXXXXXXXXXXXXXXXXXXXXXXXXXXXXXXXXXXXXXXXXXX        oooooo",
"oooooo        XXXXXXXXXXXXXXXXXXXXXXXXXXXXXXXXXXXXXXXXXXXXXXXXXXXXXXXXXXXXXX        oooooo",
"oooooo        XXXXXXXXXXXXXXXXXXXXXXXXXXXXXXXXXXXXXXXXXXXXXXXXXXXXXXXXXXXXXX        oooooo",
"oooooo        XXXXXXXXXXXXXXXXXXXXXXXXXXXXXXXXXXXXXXXXXXXXXXXXXXXXXXXXXXXXXX        oooooo",
"oooooo        XXXXXXXXXXXXXXXXXXXXXXXXXXXXXXXXXXXXXXXXXXXXXXXXXXXXXXXXXXXXXX        oooooo",
"oooooo        XXXXXXXXXXXXXXXXXXXXXXXXXXXXXXXXXXXXXXXXXXXXXXXXXXXXXXXXXXXXXX        oooooo",
"oooooo        XXXXXXXXXXXXXXXXXXXX......................XXXXXXXXXXXXXXXXXXXX        oooooo",
"oooooo        XXXXXXXXXXXXXXXXXXXX......................XXXXXXXXXXXXXXXXXXXX        oooooo",
"oooooo        XXXXXXXXXXXXXXXXXXXX......................XXXXXXXXXXXXXXXXXXXX        oooooo",
"oooooo        XXXXXXXXXXXXXXXXXXXX......................XXXXXXXXXXXXXXXXXXXX        oooooo",
"oooooo        XXXXXXXXXXXXXXXXXXXX......................XXXXXXXXXXXXXXXXXXXX        oooooo",
"oooooo        XXXXXXXXXXXXXXXXXXXX......................XXXXXXXXXXXXXXXXXXXX        oooooo",
"oooooo        XXXXXXXXXXXXXXXXXXXXXXXXXXXX..............XXXXXXXXXXXXXXXXXXXX        oooooo",
"oooooo        XXXXXXXXXXXXXXXXXXXXXXXXXXXX..............XXXXXXXXXXXXXXXXXXXX        oooooo",
"oooooo        XXXXXXXXXXXXXXXXXXXXXXXXXXXX..............XXXXXXXXXXXXXXXXXXXX        oooooo",
"oooooo        XXXXXXXXXXXXXXXXXXXXXXXXXXXX..............XXXXXXXXXXXXXXXXXXXX        oooooo",
"oooooo        XXXXXXXXXXXXXXXXXXXXXXXXXXXX..............XXXXXXXXXXXXXXXXXXXX        oooooo",
"oooooo        XXXXXXXXXXXXXXXXXXXXXXXXXXXX..............XXXXXXXXXXXXXXXXXXXX        oooooo",
"oooooo        XXXXXXXXXXXXXXXXXXXXXXXXXXXX..............XXXXXXXXXXXXXXXXXXXX        oooooo",
"oooooo        XXXXXXXXXXXXXXXXXXXXXXXXXXXX..............XXXXXXXXXXXXXXXXXXXX        oooooo",
"oooooo        ......XXXXXXXXXXXXXXXXXXXXXXXXXXXXXXXXXXXXXXXXXXXXXXXXXXXXXXXX        oooooo",
"oooooo        ......XXXXXXXXXXXXXXXXXXXXXXXXXXXXXXXXXXXXXXXXXXXXXXXXXXXXXXXX        oooooo",
"oooooo        ......XXXXXXXXXXXXXXXXXXXXXXXXXXXXXXXXXXXXXXXXXXXXXXXXXXXXXXXX        oooooo",
"oooooo        ......XXXXXXXXXXXXXXXXXXXXXXXXXXXXXXXXXXXXXXXXXXXXXXXXXXXXXXXX        oooooo",
"oooooo        ......XXXXXXXXXXXXXXXXXXXXXXXXXXXXXXXXXXXXXXXXXXXXXXXXXXXXXXXX        oooooo",
"oooooo        ......XXXXXXXXXXXXXXXXXXXXXXXXXXXXXXXXXXXXXXXXXXXXXXXXXXXXXXXX        oooooo",
"oooooo        ....................XXXXXXXXXXXXXXXXXXXXXXXXXXXXXXXXXXXXXXXXXX        oooooo",
"oooooo        ....................XXXXXXXXXXXXXXXXXXXXXXXXXXXXXXXXXXXXXXXXXX        oooooo",
"oooooo        ....................XXXXXXXXXXXXXXXXXXXXXXXXXXXXXXXXXXXXXXXXXX        oooooo",
"oooooo        ....................XXXXXXXXXXXXXXXXXXXXXXXXXXXXXXXXXXXXXXXXXX        oooooo",
"oooooo        ....................XXXXXXXXXXXXXXXXXXXXXXXXXXXXXXXXXXXXXXXXXX        oooooo",
"oooooo        ....................XXXXXXXXXXXXXXXXXXXXXXXXXXXXXXXXXXXXXXXXXX        oooooo",
"oooooo        ....................XXXXXXXXXXXXXXXXXXXXXXXXXXXXXXXXXXXXXXXXXX        oooooo",
"oooooo        ....................XXXXXXXXXXXXXXXXXXXXXXXXXXXXXXXXXXXXXXXXXX        oooooo",
"oooooo        XXXXXXXXXXXXXXXXXXXX......................XXXXXXXXXXXXXXXXXXXX        oooooo",
"oooooo        XXXXXXXXXXXXXXXXXXXX......................XXXXXXXXXXXXXXXXXXXX        oooooo",
"oooooo        XXXXXXXXXXXXXXXXXXXX......................XXXXXXXXXXXXXXXXXXXX        oooooo",
"oooooo        XXXXXXXXXXXXXXXXXXXX......................XXXXXXXXXXXXXXXXXXXX        oooooo",
"oooooo        XXXXXXXXXXXXXXXXXXXX......................XXXXXXXXXXXXXXXXXXXX        oooooo",
"oooooo        XXXXXXXXXXXXXXXXXXXX......................XXXXXXXXXXXXXXXXXXXX        oooooo",
"oooooo        XXXXXXXXXXXXXXXXXXXXXXXXXXXXXXXXXXXXXXXXXXXXXXXXXXXXXXXXXXXXXX        oooooo",
"oooooo        XXXXXXXXXXXXXXXXXXXXXXXXXXXXXXXXXXXXXXXXXXXXXXXXXXXXXXXXXXXXXX        oooooo",
"oooooo        XXXXXXXXXXXXXXXXXXXXXXXXXXXXXXXXXXXXXXXXXXXXXXXXXXXXXXXXXXXXXX        oooooo",
"oooooo        XXXXXXXXXXXXXXXXXXXXXXXXXXXXXXXXXXXXXXXXXXXXXXXXXXXXXXXXXXXXXX        oooooo",
"oooooo        XXXXXXXXXXXXXXXXXXXXXXXXXXXXXXXXXXXXXXXXXXXXXXXXXXXXXXXXXXXXXX        oooooo",
"oooooo        XXXXXXXXXXXXXXXXXXXXXXXXXXXXXXXXXXXXXXXXXXXXXXXXXXXXXXXXXXXXXX        oooooo",
"oooooo        XXXXXXXXXXXXXXXXXXXXXXXXXXXXXXXXXXXXXXXXXXXXXXXXXXXXXXXXXXXXXX        oooooo",
"oooooo        XXXXXXXXXXXXXXXXXXXXXXXXXXXXXXXXXXXXXXXXXXXXXXXXXXXXXXXXXXXXXX        oooooo",
"oooooooooooooo      XXXXXXXXXXXXXXXXXXXXXXXXXXXXXXXXXXXXXXXXXXXXXXXXXX      oooooooooooooo",
"oooooooooooooo      XXXXXXXXXXXXXXXXXXXXXXXXXXXXXXXXXXXXXXXXXXXXXXXXXX      oooooooooooooo",
"oooooooooooooo      XXXXXXXXXXXXXXXXXXXXXXXXXXXXXXXXXXXXXXXXXXXXXXXXXX      oooooooooooooo",
"oooooooooooooo      XXXXXXXXXXXXXXXXXXXXXXXXXXXXXXXXXXXXXXXXXXXXXXXXXX      oooooooooooooo",
"oooooooooooooo      XXXXXXXXXXXXXXXXXXXXXXXXXXXXXXXXXXXXXXXXXXXXXXXXXX      oooooooooooooo",
"oooooooooooooo      XXXXXXXXXXXXXXXXXXXXXXXXXXXXXXXXXXXXXXXXXXXXXXXXXX      oooooooooooooo",
"oooooooooooooooooooo                                                  oooooooooooooooooooo",
"oooooooooooooooooooo                                                  oooooooooooooooooooo",
"oooooooooooooooooooo                                                  oooooooooooooooooooo",
"oooooooooooooooooooo                                                  oooooooooooooooooooo",
"oooooooooooooooooooo                                                  oooooooooooooooooooo",
"oooooooooooooooooooo                                                  oooooooooooooooooooo",
"oooooooooooooooooooo                                                  oooooooooooooooooooo",
"oooooooooooooooooooo                                                  oooooooooooooooooooo",
"oooooooooooooooooooooooooooooooooooooooooooooooooooooooooooooooooooooooooooooooooooooooooo",
"oooooooooooooooooooooooooooooooooooooooooooooooooooooooooooooooooooooooooooooooooooooooooo",
"oooooooooooooooooooooooooooooooooooooooooooooooooooooooooooooooooooooooooooooooooooooooooo",
"oooooooooooooooooooooooooooooooooooooooooooooooooooooooooooooooooooooooooooooooooooooooooo",
"oooooooooooooooooooooooooooooooooooooooooooooooooooooooooooooooooooooooooooooooooooooooooo",
"oooooooooooooooooooooooooooooooooooooooooooooooooooooooooooooooooooooooooooooooooooooooooo"
};
