/* XPM */
static char *_[] = {
/* columns rows colors chars-per-pixel */
"78 90 66 1 ",
"  c #150D09",
". c #15110F",
"X c #141414",
"o c #141618",
"O c #12191D",
"+ c #0F1F26",
"@ c #111E23",
"# c #0F2027",
"$ c #0F222B",
"% c #122027",
"& c #12232B",
"* c #0D2632",
"= c #0C2835",
"- c #0B2C3B",
"; c #112630",
": c #102A35",
"> c #102F3D",
", c #10303F",
"< c #092F40",
"1 c #093243",
"2 c #06374C",
"3 c #0C3649",
"4 c #05384F",
"5 c #0D394D",
"6 c #103140",
"7 c #053B52",
"8 c #0C3D54",
"9 c #023F59",
"0 c #0D4057",
"q c #02415D",
"w c #0D425A",
"e c #004665",
"r c #094662",
"t c #004867",
"y c #0C4966",
"u c #004A6B",
"i c #094D6B",
"p c #004E70",
"a c #005174",
"s c #0A5273",
"d c #01557B",
"f c #0A5679",
"g c #00587F",
"h c #09587C",
"j c #015C84",
"k c #095B80",
"l c #015F89",
"z c #01618D",
"x c #08638C",
"c c #016592",
"v c #046996",
"b c #036B9B",
"n c #016FA1",
"m c #0272A5",
"M c #0276AB",
"N c #0278AE",
"B c #037BB3",
"V c #037EBA",
"C c #0281BB",
"Z c #0286C3",
"A c #0288C6",
"S c #0287CB",
"D c #028BCA",
"F c #018FD0",
"G c #0190D1",
"H c #000000",
/* pixels */
"HHHHHHHHHHHHHHHHHHHHHHHHHHHHHHHHHHHHHHHHHHHHHHHHHHHHHHHHHHHHHHHHHHHHHHHHHHHHHH",
"HHHHHHHHHHHHHHHHHHHHHHHHHHHHHHHHHHHHHHHHHHHHHHHHHHHHHHHHHHHHHHHHHHHHHHHHHHHHHH",
"HHHHHHHHHHHHHHHHHHHHHHHHHHHHHHHHHHHHHHHHHHHHHHHHHHHHHHHHHHHHHHHHHHHHHHHHHHHHHH",
"HHHHHHHHHHHHHHHHHHHHHHHHHHHHHHHHHHHHHHHHHHHHHHHHHHHHHHHHHHHHHHHHHHHHHHHHHHHHHH",
"HHHHHHHHHHHHHHHHHHHHHHHHHHHHHHHHHHHHHHHHHHHHHHHHHHHHHHHHHHHHHHHHHHHHHHHHHHHHHH",
"HHHHHHHHHHHHHHHHHHHHHHHHHHHHHHHHHHHHHHHHHHHHHHHHHHHHHHHHHHHHHHHHHHHHHHHHHHHHHH",
"HHHHHHHHHHHHHHHHHHHH.. X................... .. X..........HHHHHHHHHHHHHHHHHHHH",
"HHHHHHHHHHHHHHHHHHHXXXX.XXX.XXX.X..X.XXX.XXXXX.XXXX.XXX.XXXHHHHHHHHHHHHHHHHHHH",
"HHHHHHHHHHHHHHHHHHooXoooXoXooXooXoXoooXXoXoXooXooXooXXooXXoXHHHHHHHHHHHHHHHHHH",
"HHHHHHHHHHHHHHHHHHOOOoOOOOOOOOOOOOOOOOOOOOOOOOOOOOOOOOOOOOOOHHHHHHHHHHHHHHHHHH",
"HHHHHHHHHHHHHHHHH@+++$+#+++$++++%+%%$++++$++++$++++++$$+%@+@@HHHHHHHHHHHHHHHHH",
"HHHHHHHHHHHHHHHHO+$**==============:====================:**&@@HHHHHHHHHHHHHHHH",
"HHHHHHHHHHHHHHXo@$*-<<111111<11<11<111<111<1111<1<1111111--=$@oXHHHHHHHHHHHHHH",
"HHHHHHHHHHHHH.Xo+$-1477777777777777777777777777777777777741-$+oX.HHHHHHHHHHHHH",
"HHHHHHHHHHHHXXoO$=<47qqqe9qq9q99q9q999q9q9q999q9q9qqqqqq994<*$OoX.HHHHHHHHHHHH",
"HHHHHHHHHHHHoOO+$-179tettettettetetttttetetettteeeettttteq71-$+OOoHHHHHHHHHHHH",
"HHHHHHHHHHH@@++$-<29qettttttttttettettttteetttttttttttttte92<=*++@@HHHHHHHHHHH",
"HHHHHHHHHH@@$$=--279eettttttteettteteetttttteetttttettttt9943<-=*+@@HHHHHHHHHH",
"HHHHHHHHoo+$*-<14799qetteetteeeteeeeeeteeeeeeeeeeeeetettee99421<-*++OoHHHHHHHH",
"HHHHHHHXoo+*-14799qeeeetteeteeeeeeteeetteeteeetteeeeettteee999741-:+OoXHHHHHHH",
"HHHHHH.XXO+*-299ettttttttttttttttttttttttttttttttttttuttttttte994<=+@XX.HHHHHH",
"HHHHHH.XoO+=179ttuuuupppppppppppupppppppupppaupppuppppppppuputt94<=+@o..HHHHHH",
"HHHHHH.XXO@=17qtuppdddjdgggddgdgdddjddjddddddgggddjdddjdddaapptq41=+oXX.HHHHHH",
"HHHHHH..oO$*<7etpdjjlzzzzzzzzzzzczzlzzzzzzzczzzzzzlzczzzlljjdptq4<:+Oo..HHHHHH",
"HHHHHH.XXO@=<7qtddlcvbbbmbbnbbbbbnbbbbbnbbbbbbbbbbbbbbnbbvcljpuq7<=+@X..HHHHHH",
"HHHHHH.XXO@*-4qudjcbmMBBNNNNNNBNNNNNBNNNMMBNNBMMBNBNBBBNMMncjate76*+@X..HHHHHH",
"HHHHHH.XoO%=17rpjlbMBVCZCCCCCCCCVVVVVCCVCCCCCCVCVCCVCCZCVBmbzdpe86;%oX..HHHHHH",
"HHHHHH..oO$=19tajvnNVZZAZZZZCZZAZZZZZZZZZZZZZZZZZZZZZZAAZVNnvlar86:&@XX.HHHHHH",
"HHHHHH.XoO&-5rpjcnMBZZADAAAAAAADADDDAADADADAADAAAAAADADAZZBNncjpy5>&%X..HHHHHH",
"HHHHHH Xo@&18ujcbMBVZZADDAADDDDDDDDDADDDDDDDDDDDAAAAADDDZZVBMbzjy06;oo..HHHHHH",
"HHHHHH .o@;3rhcbMBVZZSAADAAAADDDDDDDDDDDDDDDDDDDDDAAADAAAZCVBMnchy5;%X. HHHHHH",
"HHHHHH Xo@:8ilbNBVZZZZAAAAAAAAAAADADDADDDDDDADAAAAAAAAAAZZZZVVMbky0:%o..HHHHHH",
"HHHHHH .o%>0fxMCCZAZZZZAAZZZAZZZZZCZZZZZZZZZZZZZZZZZAZAAZZAAZZCmxhw,%X. HHHHHH",
"HHHHHH .o%,wfxBCDDDAAAZZZAZZZZCCCCCCCCCCVVVVVCCCZZZZZAZZZAADAAZBxhw6%o. HHHHHH",
"HHHHHH .o%6whvBCDDDDZZZAAZAZCCVNNNNMNNMMMMNNNBBVCCZZAZZAZZADDDZBvkw,%o. HHHHHH",
"HHHHHH .o%6whvCADFDAAAAZAAZCCBMmbbbbbbbbnbbbbmmNBCZZZAAZAAADDDZBxhw6%o. HHHHHH",
"HHHHHH .o%,whvCADDDDAZAAAAZCBNnvzzlzzlzzlllllcbnNVCZAAAAAZDDFDABvkw6%o. HHHHHH",
"HHHHHH .o%,whvBCDDDDZAAAAAZCBmvzjdddddddddjdjjcvmBCZAAAAZAADDDZBvhw6%o. HHHHHH",
"HHHHHH .o%>wfvBCDDDAZZAAAAZCBmvjdaauupuapuuppdjcmNCZAAAAZAADDDZBvk0,%o. HHHHHH",
"HHHHHH .o%>wfvBZDDDAAZAAAAZCNmcjdpuuutttteeetpjlbNCZAAAAAZADDDCBxfw,%o. HHHHHH",
"HHHHHH .o%,whvBZDDDAAAAAAAZCBmvzjdpuutteqqqeeudlbMCZZADAZAAADAZBvkw6%o. HHHHHH",
"HHHHHH .o%,whbBZDDDAAZZAAAZCCNmbzjddpttqqq99etdlbMCZDDAAZZADDDZBxhw6%o. HHHHHH",
"HHHHHH .o%6whvBZDFDDZAZAAZZCCCNmnczjautqq99qetdlbMCCZDAZAZADDDCBvk0,%o. HHHHHH",
"HHHHHH .o%,wfbBADDDDAZZAAZAZCCCNNmvzjatte99etudlbMCZZDDAZAADDDCBxfw6%o. HHHHHH",
"HHHHHH .o%>wfvBCADDAZZZAZAZZZZZCCBmvzdpteeeetpjlnNCZADAAZAADDDZNvkw6%o. HHHHHH",
"HHHHHH .o%:0sxMCZZAAZAAZAZZAAAAZCVNncjdputuupdjcnNCZZDAZZZADDDZBxhw6%o. HHHHHH",
"HHHHHH .o%:5ixnNVCCZZAAAAAAAADDAACVmvzjgddadjjzbmBCZAADZAZADDDCBvk0,%o. HHHHHH",
"HHHHHH..o@:2wfzbMBCCZAADADAAADDDAZCNmbvzlllllcbnMCCZAAZAZADDDDCBxh0,%o. HHHHHH",
"HHHHHH..o%;68ijcnMNVZSDDDDDADDDADCCCNmmbbbbbnnMNCCCZDZAAZAADDDCNvkw6%o. HHHHHH",
"HHHHHH..oo&>5rpjcnNBCZAAAAAAAAAAAACCCCNNNMNNMNCCCCZZZZZZAZADDDCCxhw6%o. HHHHHH",
"HHHHHH..oO&:19iplcnNCZZAZZAZZZZZACCZCCCCCCCCCCCCCZZZDZZZZZDDDDCCvkw>%o. HHHHHH",
"HHHHHH.Xoo%:<4epdzbMBVCCCCCCCCZZADZAACACCCZACCCZDZZZZZAAZAADDDCNxh06%o. HHHHHH",
"HHHHHH.XXO+*<49tdjzbmNNBNMNBBVCCCAADDDADDDDDDAAAZAZZZZZZCAADDDCCvkw6%o. HHHHHH",
"HHHHHH..XO+*-49tpdjzcvvvbbbbmMBCAADDDDDDDDDDDDDADADZDZAZDAADDDCNxhw6%o. HHHHHH",
"HHHHHH.XXO+*-29euadjllzljlzzvmNVCADDDDDDDDDDDDDDZDZZZZZZAAADDDCCvk0>%o. HHHHHH",
"HHHHHH..XO+=-49etupadddddddjzvmVCADDDADADDDDADZDAZZZZZZAACADDDCBxfw>%o. HHHHHH",
"HHHHHH XXO%-<7qttppppppuuppdzcnNCCAAZZCACCZCAZCAAAACDCAAAAADDDCCvhw6%o. HHHHHH",
"HHHHHH .X+%-29iupaaapaauppadgzbMCCCCCCCCCCCCCCCCCCAAAAACCAADDDCNvfw6%o. HHHHHH",
"HHHHHH.XXO$-7rpdgjgddddddddgzzbnmMNNNMNNMMMMNNNCCCAAAAAADCDDDACCvk0,%o. HHHHHH",
"HHHHHH XX+*18uklzczzzjlljzzzzzccvbbbbbbbbbbcbnmNCCCACAADAADDDDCBxfw6%o. HHHHHH",
"HHHHHH..o@:3rhcvnmbbbbbbbbbvbczzzzjzzzzjzjzzzzbnMCCCAAACACADDDCCvfw6%o. HHHHHH",
"HHHHHH Xo@:8ixbNBBBNNNNNNNNmnczzddddaddddapddgzbmCCCAAAAAAADDDCBvfw6%o. HHHHHH",
"HHHHHH .o@>8scNVCZCCCCCCCCCNMnzjdpppppppppppadhvbBCCADAAAAADDACCvf0>%o. HHHHHH",
"HHHHHH Xo%68svNZADDZZCZAAZCCNncjdppupppppppppdxxmCCAAAADCADDDACBvfw>%o. HHHHHH",
"HHHHHH Xo%,wkbBSSFSSAAAADDZCCbvxxhffffdddaaddjzvmBCZAAAAAAADFDABvhw6&o. HHHHHH",
"HHHHHH  o%6wkbZSFGFFDDDDDDAZCMmvxxxklllllllllccmNVCZAAAAZZADFDABvhw6%o. HHHHHH",
"HHHHHH Xo%,ykmVGFGFDAAAAADAZCBBmxvxxvbbbbbvbvnmMBCCZZAAZAASDFDACbkw6%o. HHHHHH",
"HHHHHH  o%,wkvVSFFSDAAAAAAAZCCCBBBCMMMMMMMMMMNBVVCZAZAAZZASAFDSCvkw6%o. HHHHHH",
"HHHHHH Xo%>8fxBZAAAAZZAZAAZZZCCCCCCCCCCCVVCVCCCZCZZAAAZZAZAASSSBxs0>%o. HHHHHH",
"HHHHHH  o%>8sxMVCCZCZAAAZZAAZZAAZZZZZZZZZZZZZZZAAZAAZAAAZZZZCVBMxs0>%o. HHHHHH",
"HHHHHHH.o%>8ykxbmCCCZZADAAADAADADDDDZADDSDDAAAAAAADAADAAAZCBBmvxky0>%o.HHHHHHH",
"HHHHHHHHo%:68yshxvmCZADDFDDDDDDFDFDDFDFDDDDFDFFDDDDDDDDDAZBBvxksy06;%oHHHHHHHH",
"HHHHHHHHHH;>68wyfxxBZDDFFDDDDFDDDDFDFDDFFDFDFDDDDDDDDFFFSCBvxsy006,;HHHHHHHHHH",
"HHHHHHHHHHH&;:,5wfxBCSDDDDAADADDAADDDDAADDDDDDDADDDDDDDDACMxfw5>;;&HHHHHHHHHHH",
"HHHHHHHHHHHHO@&;5ykxBZSAACZCZCZCZZZAACZCZZCCZZZZCZZZAAASZVvky5:&%oHHHHHHHHHHHH",
"HHHHHHHHHHHH.Xo&60sxMBCZCBCBBBBCBBBCCBBBBBBBBBBCBNBBBBCCBMxs06&oX.HHHHHHHHHHHH",
"HHHHHHHHHHHHH X@:0yfxxvvbvvxxxvvxvvxvxvxxxvvxvvvbvvvvvvbvxky5:%X HHHHHHHHHHHHH",
"HHHHHHHHHHHHHH O;60ysfhhhhhhhhhhfhkhkhkfhfhkffkffhfhhhhhssyw6;o.HHHHHHHHHHHHHH",
"HHHHHHHHHHHHHHHH%>6000wwww0wwwww00wwww00w0ww0w0w00w0wwwww056,&HHHHHHHHHHHHHHHH",
"HHHHHHHHHHHHHHHHH;:>>66666>6>>66,,6666,,,,,6,,,>,,,,,,,,>>>;;HHHHHHHHHHHHHHHHH",
"HHHHHHHHHHHHHHHHHH%%%%%%%%%%%%%%%%%%%%%%%%%%%%%%%%%%%%%%%%%%HHHHHHHHHHHHHHHHHH",
"HHHHHHHHHHHHHHHHHHoXoXoooooooooooooooooooooooXooooooooooooooHHHHHHHHHHHHHHHHHH",
"HHHHHHHHHHHHHHHHHHH........................................HHHHHHHHHHHHHHHHHHH",
"HHHHHHHHHHHHHHHHHHHH                                      HHHHHHHHHHHHHHHHHHHH",
"HHHHHHHHHHHHHHHHHHHHHHHHHHHHHHHHHHHHHHHHHHHHHHHHHHHHHHHHHHHHHHHHHHHHHHHHHHHHHH",
"HHHHHHHHHHHHHHHHHHHHHHHHHHHHHHHHHHHHHHHHHHHHHHHHHHHHHHHHHHHHHHHHHHHHHHHHHHHHHH",
"HHHHHHHHHHHHHHHHHHHHHHHHHHHHHHHHHHHHHHHHHHHHHHHHHHHHHHHHHHHHHHHHHHHHHHHHHHHHHH",
"HHHHHHHHHHHHHHHHHHHHHHHHHHHHHHHHHHHHHHHHHHHHHHHHHHHHHHHHHHHHHHHHHHHHHHHHHHHHHH",
"HHHHHHHHHHHHHHHHHHHHHHHHHHHHHHHHHHHHHHHHHHHHHHHHHHHHHHHHHHHHHHHHHHHHHHHHHHHHHH",
"HHHHHHHHHHHHHHHHHHHHHHHHHHHHHHHHHHHHHHHHHHHHHHHHHHHHHHHHHHHHHHHHHHHHHHHHHHHHHH"
};
